<?xml version="1.0" encoding="utf-8"?>
<!-- Generator: Adobe Illustrator 24.1.0, SVG Export Plug-In . SVG Version: 6.00 Build 0)  -->
<svg version="1.1" xmlns="http://www.w3.org/2000/svg" xmlns:xlink="http://www.w3.org/1999/xlink" x="0px" y="0px"
	 viewBox="0 0 1080 1920" style="enable-background:new 0 0 1080 1920;" xml:space="preserve">
<style type="text/css">
	.st0{fill:#EFE7CE;}
	.st1{fill:#637454;}
	.st2{opacity:0.5;}
	.st3{fill:#FFFFFF;}
	.st4{fill:#F0C820;}
	.st5{fill:none;}
	.st6{fill:#3C3C3B;}
	.st7{font-family:'Futura-Bold';}
	.st8{font-size:70px;}
	.st9{letter-spacing:-1;}
	.st10{font-size:60px;}
	.st11{fill:#93A583;}
	.st12{font-size:147.3433px;}
	.st13{letter-spacing:-2;}
	.st14{opacity:0.5;fill:#FFFFFF;}
</style>
<g id="Ebene_2">
</g>
<g id="Ebene_1">
	<rect x="1" y="1" class="st0" width="1079" height="1919"/>
	<g>
		<path class="st1" d="M417.46,704.68c0-6.7-2.49-12.23-5.73-13.09c-0.49-0.17-1.03-0.29-1.63-0.32c-7.32-0.39-21.55,2.86-29.5,8.87
			c-4.49,3.4-5.02,4.69-4.39,6.13c0.15,1.42,1.28,3.3,4.68,5.58c8.27,5.55,22.89,6.88,30.18,6.08c2.91-0.32,4.25-2.36,4.82-4.69
			C416.86,710.93,417.46,707.95,417.46,704.68z"/>
		<path class="st1" d="M399.28,662.47c3.44-5.75,4.14-11.78,1.8-14.18c-0.33-0.4-0.73-0.78-1.24-1.12
			c-6.08-4.09-19.97-8.6-29.87-7.52c-5.6,0.61-6.72,1.45-6.91,3.01c-0.6,1.3-0.6,3.49,1.15,7.19c4.25,9.01,16.12,17.65,22.78,20.7
			c2.67,1.22,4.86,0.16,6.54-1.55C395.56,667.53,397.6,665.27,399.28,662.47z"/>
		<path class="st1" d="M436.93,639.25c6.7-0.04,12.22-2.57,13.06-5.81c0.17-0.49,0.28-1.03,0.31-1.64c0.34-7.32-3-21.54-9.06-29.44
			c-3.43-4.47-4.72-4.99-6.16-4.35c-1.42,0.16-3.29,1.3-5.55,4.71c-5.5,8.31-6.73,22.94-5.88,30.21c0.34,2.91,2.38,4.24,4.72,4.79
			C430.67,638.69,433.66,639.27,436.93,639.25z"/>
		<path class="st1" d="M462.91,662.7c4.77,4.71,10.46,6.82,13.34,5.12c0.47-0.22,0.93-0.53,1.38-0.94
			c5.42-4.93,13.11-17.35,14.41-27.22c0.74-5.58,0.19-6.87-1.28-7.43c-1.12-0.89-3.24-1.41-7.26-0.59
			c-9.76,1.99-20.98,11.46-25.53,17.2c-1.82,2.3-1.31,4.68-0.05,6.72C458.87,657.88,460.58,660.4,462.91,662.7z"/>
		<path class="st1" d="M465.2,617.95c4.77,4.71,10.46,6.82,13.34,5.12c0.47-0.22,0.93-0.53,1.38-0.94
			c5.42-4.93,13.11-17.35,14.41-27.22c0.74-5.58,0.19-6.87-1.28-7.43c-1.12-0.89-3.24-1.41-7.26-0.59
			c-9.76,1.99-20.98,11.46-25.53,17.2c-1.82,2.3-1.31,4.68-0.05,6.72C461.17,613.14,462.88,615.66,465.2,617.95z"/>
		<path class="st1" d="M399.69,621.74c5.9-3.17,9.6-7.98,8.83-11.24c-0.08-0.51-0.23-1.04-0.49-1.59
			c-3.12-6.63-12.72-17.63-21.77-21.79c-5.12-2.35-6.51-2.2-7.48-0.96c-1.18,0.81-2.3,2.69-2.7,6.76
			c-0.98,9.91,4.77,23.42,8.92,29.46c1.66,2.42,4.09,2.63,6.41,2.03C393.9,624.17,396.82,623.28,399.69,621.74z"/>
		<path class="st1" d="M495.59,671.32c-1.96,6.41-1.2,12.42,1.64,14.2c0.41,0.31,0.9,0.58,1.47,0.79c6.88,2.51,21.45,3.58,30.8,0.17
			c5.29-1.93,6.18-3.01,5.99-4.58c0.27-1.4-0.25-3.53-2.83-6.71c-6.28-7.73-19.87-13.29-27.07-14.66c-2.88-0.55-4.76,1.01-5.98,3.07
			C497.99,665.52,496.55,668.2,495.59,671.32z"/>
		<path class="st1" d="M367.73,684.07c-0.46-6.68-3.32-12.03-6.61-12.67c-0.5-0.14-1.04-0.22-1.65-0.21
			c-7.33,0.11-21.31,4.33-28.82,10.87c-4.25,3.7-4.69,5.02-3.96,6.42c0.25,1.41,1.5,3.2,5.05,5.25c8.63,4.97,23.31,5.3,30.52,4
			c2.89-0.52,4.08-2.64,4.48-5C367.56,690.35,367.95,687.33,367.73,684.07z"/>
		<path class="st1" d="M421.62,589.39c6.36-2.12,10.82-6.23,10.61-9.57c0.01-0.52-0.05-1.07-0.21-1.65
			c-1.94-7.06-9.53-19.54-17.74-25.18c-4.64-3.19-6.04-3.28-7.2-2.22c-1.3,0.59-2.73,2.25-3.82,6.2c-2.65,9.6,0.71,23.89,3.77,30.55
			c1.22,2.66,3.58,3.29,5.97,3.09C415.5,590.8,418.52,590.42,421.62,589.39z"/>
		<path class="st1" d="M384.96,573.28c6.57-1.31,11.51-4.84,11.72-8.18c0.08-0.51,0.08-1.06,0-1.67
			c-1.05-7.25-7.03-20.58-14.47-27.19c-4.21-3.74-5.58-4.01-6.87-3.1c-1.36,0.43-2.99,1.9-4.56,5.68c-3.82,9.2-2.26,23.8-0.05,30.78
			c0.88,2.8,3.14,3.71,5.54,3.81C378.71,573.92,381.76,573.92,384.96,573.28z"/>
		<path class="st1" d="M436.83,556.11c6.7,0.13,12.28-2.26,13.2-5.48c0.18-0.48,0.31-1.02,0.35-1.63c0.52-7.31-2.46-21.6-8.32-29.66
			c-3.31-4.56-4.6-5.11-6.05-4.5c-1.42,0.12-3.32,1.22-5.67,4.57c-5.7,8.16-7.3,22.76-6.64,30.06c0.27,2.92,2.28,4.3,4.59,4.9
			C430.59,555.4,433.57,556.05,436.83,556.11z"/>
		<path class="st1" d="M487.8,573.04c5.83,3.3,11.88,3.84,14.22,1.45c0.39-0.34,0.76-0.75,1.08-1.26
			c3.94-6.18,8.11-20.18,6.78-30.05c-0.75-5.58-1.61-6.68-3.18-6.83c-1.31-0.57-3.5-0.51-7.16,1.33
			c-8.9,4.47-17.25,16.55-20.13,23.29c-1.15,2.7-0.04,4.86,1.71,6.5C482.65,569.45,484.96,571.43,487.8,573.04z"/>
		<path class="st1" d="M315.86,559.42c5.86-3.25,9.48-8.12,8.66-11.36c-0.08-0.51-0.24-1.04-0.51-1.58
			c-3.21-6.58-12.97-17.45-22.08-21.48c-5.15-2.28-6.54-2.11-7.49-0.86c-1.17,0.82-2.26,2.72-2.61,6.8
			c-0.84,9.92,5.11,23.35,9.34,29.33c1.7,2.39,4.13,2.57,6.43,1.93C310.11,561.94,313.01,561.01,315.86,559.42z"/>
		<path class="st1" d="M353.25,543.88c6.65-0.81,11.84-3.96,12.3-7.27c0.11-0.5,0.16-1.05,0.12-1.66
			c-0.5-7.31-5.46-21.05-12.39-28.2c-3.92-4.05-5.27-4.42-6.62-3.61c-1.39,0.32-3.12,1.67-4.97,5.32
			c-4.51,8.88-4.05,23.56-2.37,30.69c0.67,2.85,2.86,3.94,5.24,4.21C346.97,544.05,350.01,544.28,353.25,543.88z"/>
		<path class="st1" d="M403.73,535.27c6.65-0.81,11.84-3.96,12.3-7.27c0.11-0.5,0.16-1.05,0.12-1.66
			c-0.5-7.31-5.46-21.05-12.39-28.2c-3.92-4.05-5.27-4.42-6.62-3.61c-1.39,0.32-3.12,1.67-4.97,5.32
			c-4.51,8.88-4.05,23.56-2.37,30.69c0.67,2.85,2.86,3.94,5.24,4.21C397.45,535.44,400.49,535.67,403.73,535.27z"/>
		<path class="st1" d="M468.97,538.51c6.37,2.07,12.4,1.41,14.22-1.39c0.32-0.41,0.59-0.89,0.81-1.45
			c2.63-6.84,3.95-21.38,0.69-30.8c-1.84-5.32-2.91-6.23-4.47-6.07c-1.4-0.3-3.53,0.19-6.75,2.72
			c-7.84,6.15-13.62,19.64-15.12,26.81c-0.6,2.87,0.93,4.78,2.97,6.03C463.2,536.01,465.86,537.5,468.97,538.51z"/>
		<path class="st1" d="M535.98,619.31c0.3,6.69,3.03,12.11,6.3,12.83c0.49,0.15,1.04,0.24,1.65,0.25
			c7.33,0.06,21.41-3.82,29.07-10.17c4.34-3.59,4.81-4.91,4.11-6.32c-0.21-1.41-1.42-3.24-4.92-5.37
			c-8.51-5.18-23.18-5.85-30.42-4.73c-2.9,0.45-4.15,2.54-4.6,4.89C536.3,613.04,535.84,616.05,535.98,619.31z"/>
		<path class="st1" d="M551.21,588.62c1.32,6.57,4.85,11.5,8.19,11.71c0.51,0.08,1.06,0.08,1.67,0c7.25-1.06,20.57-7.04,27.18-14.49
			c3.74-4.21,4-5.59,3.1-6.87c-0.43-1.36-1.9-2.98-5.68-4.55c-9.2-3.82-23.8-2.25-30.78-0.03c-2.8,0.89-3.71,3.15-3.8,5.54
			C550.56,582.37,550.57,585.42,551.21,588.62z"/>
		<path class="st1" d="M502.23,529.26c6.24,2.43,12.3,2.11,14.28-0.6c0.34-0.39,0.64-0.85,0.89-1.41
			c3.01-6.68,5.14-21.13,2.41-30.71c-1.54-5.42-2.55-6.38-4.13-6.31c-1.38-0.37-3.54,0-6.89,2.34c-8.17,5.7-14.7,18.85-16.59,25.93
			c-0.76,2.83,0.66,4.82,2.62,6.19C496.61,526.44,499.18,528.08,502.23,529.26z"/>
		<path class="st1" d="M527.6,541.69c5.59,3.7,11.58,4.67,14.08,2.45c0.41-0.31,0.81-0.7,1.17-1.18c4.36-5.89,9.51-19.56,8.88-29.5
			c-0.36-5.62-1.14-6.78-2.69-7.04c-1.27-0.66-3.46-0.76-7.23,0.82c-9.19,3.83-18.37,15.3-21.72,21.81
			c-1.34,2.61-0.38,4.85,1.25,6.6C522.71,537.74,524.88,539.88,527.6,541.69z"/>
		<path class="st1" d="M557.02,553.85c3.44,5.75,8.42,9.22,11.64,8.29c0.51-0.1,1.03-0.28,1.57-0.56
			c6.48-3.42,17.03-13.53,20.76-22.76c2.11-5.22,1.9-6.6,0.62-7.51c-0.86-1.14-2.79-2.18-6.88-2.39
			c-9.95-0.52-23.18,5.85-29.01,10.28c-2.34,1.77-2.44,4.21-1.73,6.49C554.32,548.18,555.34,551.05,557.02,553.85z"/>
		<path class="st1" d="M450.29,509.73c6.69-0.42,12.05-3.26,12.71-6.54c0.14-0.5,0.23-1.04,0.22-1.65
			c-0.07-7.33-4.21-21.33-10.7-28.88c-3.67-4.27-5-4.72-6.39-3.99c-1.41,0.24-3.21,1.48-5.28,5.02c-5.02,8.6-5.43,23.28-4.17,30.5
			c0.5,2.89,2.62,4.1,4.98,4.51C444.01,509.53,447.03,509.94,450.29,509.73z"/>
		<path class="st1" d="M418.16,491.95c6.69-0.42,12.05-3.26,12.71-6.54c0.14-0.5,0.23-1.04,0.22-1.65
			c-0.07-7.33-4.21-21.33-10.7-28.88c-3.67-4.27-5-4.72-6.39-3.99c-1.41,0.24-3.21,1.48-5.28,5.02c-5.02,8.6-5.43,23.28-4.17,30.5
			c0.5,2.89,2.62,4.1,4.98,4.51C411.88,491.75,414.9,492.15,418.16,491.95z"/>
		<path class="st1" d="M375.98,501.76c6.27-2.36,10.57-6.63,10.24-9.96c-0.01-0.52-0.09-1.06-0.27-1.64
			c-2.21-6.99-10.26-19.17-18.68-24.5c-4.76-3.01-6.16-3.05-7.28-1.95c-1.28,0.64-2.64,2.36-3.58,6.34
			c-2.29,9.69,1.61,23.85,4.92,30.39c1.32,2.62,3.7,3.15,6.08,2.86C369.92,503.4,372.92,502.91,375.98,501.76z"/>
		<path class="st1" d="M322.06,517.25c6.27-2.36,10.57-6.63,10.24-9.96c-0.01-0.52-0.09-1.06-0.27-1.64
			c-2.21-6.99-10.26-19.17-18.68-24.5c-4.76-3.01-6.16-3.05-7.28-1.95c-1.28,0.64-2.64,2.36-3.58,6.34
			c-2.29,9.69,1.61,23.85,4.92,30.39c1.32,2.62,3.7,3.15,6.08,2.86C315.99,518.89,319,518.39,322.06,517.25z"/>
		<path class="st1" d="M482.58,492.85c6.54,1.47,12.48,0.25,14.03-2.71c0.28-0.44,0.51-0.94,0.67-1.52
			c1.98-7.05,1.94-21.66-2.18-30.73c-2.33-5.13-3.47-5.93-5.02-5.62c-1.42-0.17-3.5,0.52-6.47,3.34
			c-7.23,6.85-11.73,20.83-12.55,28.11c-0.33,2.91,1.37,4.67,3.51,5.73C476.61,490.9,479.4,492.14,482.58,492.85z"/>
		<path class="st1" d="M448.74,463.02c6.54,1.47,12.48,0.25,14.03-2.71c0.28-0.44,0.51-0.94,0.67-1.52
			c1.98-7.05,1.94-21.66-2.18-30.73c-2.33-5.13-3.47-5.93-5.02-5.62c-1.42-0.17-3.5,0.52-6.47,3.34
			c-7.23,6.85-11.73,20.83-12.55,28.11c-0.33,2.91,1.37,4.67,3.51,5.73C442.77,461.07,445.55,462.31,448.74,463.02z"/>
		<path class="st1" d="M517.2,582.89c4.68,4.79,10.33,7.01,13.24,5.37c0.47-0.22,0.94-0.51,1.39-0.91
			c5.51-4.83,13.42-17.1,14.91-26.95c0.84-5.57,0.32-6.87-1.14-7.45c-1.1-0.91-3.22-1.47-7.24-0.73
			c-9.79,1.8-21.19,11.07-25.84,16.73c-1.86,2.26-1.4,4.66-0.17,6.72C513.25,578,514.91,580.55,517.2,582.89z"/>
		<path class="st1" d="M354.12,586.47c6.06-2.85,10.01-7.46,9.41-10.75c-0.05-0.52-0.17-1.05-0.4-1.62
			c-2.76-6.79-11.77-18.29-20.58-22.92c-4.99-2.62-6.38-2.55-7.41-1.36c-1.22,0.74-2.44,2.56-3.06,6.61
			c-1.5,9.85,3.52,23.64,7.34,29.89c1.53,2.5,3.94,2.85,6.29,2.36C348.21,588.59,351.17,587.86,354.12,586.47z"/>
		<path class="st1" d="M328.58,622.51c0.94-6.63-0.75-12.46-3.83-13.77c-0.46-0.24-0.98-0.43-1.57-0.55
			c-7.19-1.41-21.74-0.19-30.45,4.65c-4.92,2.73-5.63,3.94-5.2,5.45c-0.05,1.43,0.8,3.45,3.85,6.18
			c7.41,6.65,21.7,10.02,29.03,10.25c2.93,0.09,4.54-1.74,5.42-3.96C327.12,628.62,328.12,625.75,328.58,622.51z"/>
		<path class="st1" d="M326.55,595.98c4.53-4.94,6.42-10.7,4.62-13.52c-0.24-0.46-0.56-0.91-0.99-1.34
			c-5.13-5.23-17.83-12.45-27.75-13.38c-5.61-0.53-6.87,0.07-7.37,1.56c-0.85,1.15-1.29,3.3-0.32,7.27
			c2.35,9.68,12.24,20.53,18.15,24.86c2.37,1.73,4.73,1.13,6.72-0.2C321.89,600.19,324.34,598.39,326.55,595.98z"/>
		<path class="st1" d="M314.5,662.14c-0.84-6.65-4-11.82-7.32-12.27c-0.51-0.11-1.05-0.16-1.66-0.12
			c-7.31,0.53-21.03,5.54-28.16,12.49c-4.03,3.93-4.4,5.28-3.59,6.63c0.33,1.39,1.68,3.11,5.34,4.95c8.9,4.47,23.57,3.96,30.7,2.26
			c2.85-0.68,3.93-2.87,4.19-5.25C314.69,668.42,314.91,665.38,314.5,662.14z"/>
		<path class="st1" d="M288.15,644.27c2.74-6.12,2.72-12.18,0.12-14.29c-0.37-0.36-0.82-0.68-1.36-0.96
			c-6.52-3.34-20.85-6.18-30.55-3.94c-5.49,1.27-6.5,2.23-6.51,3.81c-0.44,1.36-0.18,3.53,1.99,7c5.28,8.44,18.09,15.62,25.07,17.87
			c2.79,0.9,4.85-0.42,6.31-2.31C285.06,649.73,286.82,647.25,288.15,644.27z"/>
		<path class="st1" d="M320.22,689.61c-2.88-6.05-7.51-9.97-10.8-9.36c-0.51,0.05-1.05,0.18-1.61,0.41
			c-6.77,2.8-18.23,11.85-22.82,20.69c-2.6,5-2.52,6.39-1.32,7.42c0.75,1.22,2.57,2.43,6.62,3.03c9.85,1.46,23.63-3.63,29.86-7.49
			c2.49-1.54,2.83-3.96,2.33-6.3C322.37,695.51,321.62,692.56,320.22,689.61z"/>
		<path class="st1" d="M453.08,587.67c-6.36-2.12-10.82-6.23-10.61-9.57c-0.01-0.52,0.05-1.07,0.21-1.65
			c1.94-7.06,9.53-19.54,17.74-25.18c4.64-3.19,6.04-3.28,7.2-2.22c1.3,0.59,2.73,2.25,3.82,6.2c2.65,9.6-0.71,23.89-3.77,30.55
			c-1.22,2.66-3.58,3.29-5.97,3.09C459.2,589.08,456.18,588.7,453.08,587.67z"/>
		<path class="st1" d="M365.99,623.22c4.32-5.12,5.98-10.96,4.06-13.7c-0.26-0.45-0.6-0.88-1.04-1.3
			c-5.34-5.01-18.33-11.7-28.27-12.23c-5.62-0.3-6.86,0.35-7.3,1.86c-0.8,1.18-1.15,3.35-0.02,7.28
			c2.75,9.57,13.07,20.01,19.16,24.09c2.43,1.63,4.77,0.94,6.7-0.48C361.51,627.62,363.89,625.72,365.99,623.22z"/>
		<path class="st1" d="M358.3,650.07c-0.01-6.7-2.51-12.23-5.75-13.08c-0.49-0.17-1.03-0.29-1.63-0.32
			c-7.32-0.38-21.55,2.9-29.48,8.92c-4.49,3.4-5.01,4.7-4.38,6.14c0.15,1.42,1.28,3.3,4.68,5.57c8.28,5.54,22.9,6.84,30.19,6.03
			c2.91-0.32,4.25-2.36,4.81-4.69C357.71,656.32,358.3,653.33,358.3,650.07z"/>
		<path class="st1" d="M514.74,648.38c0.01,6.7,2.51,12.23,5.75,13.08c0.49,0.17,1.03,0.29,1.63,0.32
			c7.32,0.38,21.55-2.9,29.48-8.92c4.49-3.4,5.01-4.7,4.38-6.14c-0.15-1.42-1.28-3.3-4.68-5.57c-8.28-5.54-22.9-6.84-30.19-6.03
			c-2.91,0.32-4.25,2.36-4.81,4.69C515.33,642.13,514.74,645.12,514.74,648.38z"/>
		<path class="st1" d="M501.03,623.22c-4.32-5.12-5.98-10.96-4.06-13.7c0.26-0.45,0.6-0.88,1.04-1.3
			c5.34-5.01,18.33-11.7,28.27-12.23c5.62-0.3,6.86,0.35,7.3,1.86c0.8,1.18,1.15,3.35,0.02,7.28c-2.75,9.57-13.07,20.01-19.16,24.09
			c-2.43,1.63-4.77,0.94-6.7-0.48C505.51,627.62,503.13,625.72,501.03,623.22z"/>
		<path class="st1" d="M467.34,694.81c-2.51,6.21-2.28,12.27,0.4,14.28c0.39,0.34,0.84,0.65,1.39,0.91
			c6.64,3.1,21.05,5.43,30.67,2.84c5.44-1.46,6.42-2.46,6.37-4.04c0.39-1.37,0.05-3.54-2.24-6.93
			c-5.58-8.25-18.64-14.96-25.69-16.95c-2.82-0.8-4.83,0.59-6.22,2.54C470.24,689.24,468.57,691.79,467.34,694.81z"/>
	</g>
	<g class="st2">
		<path class="st3" d="M703.43,873.39c4.09,3.31,6.23,7.56,5.15,9.96c-0.13,0.38-0.33,0.77-0.61,1.16
			c-3.38,4.65-12.4,11.73-19.99,13.6c-4.29,1.06-5.34,0.74-5.91-0.35c-0.79-0.79-1.38-2.41-1.09-5.61
			c0.7-7.79,7.12-17.36,11.21-21.41c1.64-1.62,3.54-1.43,5.24-0.62C699.33,870.67,701.44,871.78,703.43,873.39z"/>
		<path class="st3" d="M720.19,905.34c5.21,0.74,9.23,3.3,9.54,5.9c0.08,0.4,0.11,0.83,0.07,1.31c-0.51,5.73-4.62,16.43-10.17,21.93
			c-3.14,3.11-4.2,3.38-5.25,2.73c-1.09-0.28-2.42-1.36-3.82-4.25c-3.39-7.04-2.8-18.55-1.37-24.12c0.57-2.23,2.3-3.04,4.18-3.22
			C715.27,905.11,717.66,904.98,720.19,905.34z"/>
		<path class="st3" d="M752.96,893.85c3.34-4.06,7.6-6.18,9.99-5.09c0.38,0.14,0.77,0.33,1.15,0.62
			c4.63,3.41,11.65,12.47,13.48,20.07c1.03,4.3,0.71,5.35-0.39,5.9c-0.8,0.79-2.42,1.37-5.62,1.06
			c-7.78-0.75-17.31-7.23-21.33-11.34c-1.61-1.65-1.41-3.55-0.59-5.24C750.21,897.94,751.33,895.83,752.96,893.85z"/>
		<path class="st3" d="M751.5,866.42c-0.52-5.23,1.01-9.75,3.47-10.67c0.37-0.17,0.78-0.31,1.25-0.38
			c5.69-0.86,17.06,0.58,23.72,4.66c3.77,2.31,4.28,3.28,3.9,4.45c-0.01,1.12-0.74,2.68-3.22,4.72c-6.03,4.97-17.35,7.13-23.11,7.07
			c-2.3-0.03-3.5-1.51-4.12-3.29C752.44,871.26,751.75,868.97,751.5,866.42z"/>
		<path class="st3" d="M779.92,887.13c-0.52-5.23,1.01-9.75,3.47-10.67c0.37-0.17,0.78-0.31,1.25-0.38
			c5.69-0.86,17.06,0.58,23.72,4.66c3.77,2.31,4.28,3.28,3.9,4.45c-0.01,1.12-0.74,2.68-3.22,4.72c-6.03,4.97-17.35,7.13-23.11,7.07
			c-2.3-0.03-3.5-1.51-4.12-3.29C780.86,891.97,780.17,889.68,779.92,887.13z"/>
		<path class="st3" d="M745.24,925.21c4.85-2.03,9.61-1.91,11.21,0.17c0.27,0.3,0.52,0.65,0.73,1.08c2.5,5.18,4.47,16.47,2.53,24.05
			c-1.1,4.28-1.87,5.06-3.11,5.04c-1.07,0.32-2.78,0.08-5.46-1.69c-6.53-4.3-11.93-14.49-13.56-20c-0.65-2.21,0.42-3.8,1.93-4.91
			C740.89,927.54,742.88,926.2,745.24,925.21z"/>
		<path class="st3" d="M762.39,842.23c-4.88-1.97-8.17-5.41-7.85-8.01c0.02-0.41,0.09-0.83,0.24-1.28
			c1.87-5.44,8.41-14.85,15.12-18.87c3.79-2.27,4.89-2.28,5.75-1.39c0.99,0.53,2.03,1.9,2.69,5.04c1.61,7.65-1.72,18.68-4.44,23.75
			c-1.09,2.03-2.97,2.4-4.82,2.13C767.11,843.63,764.76,843.19,762.39,842.23z"/>
		<path class="st3" d="M691.43,913.9c3.85,3.58,5.7,7.97,4.46,10.29c-0.16,0.37-0.38,0.74-0.69,1.11
			c-3.69,4.41-13.17,10.86-20.87,12.21c-4.35,0.76-5.38,0.38-5.87-0.76c-0.74-0.85-1.21-2.5-0.71-5.67
			c1.23-7.72,8.29-16.83,12.64-20.59c1.74-1.5,3.63-1.18,5.27-0.26C687.52,910.9,689.55,912.16,691.43,913.9z"/>
		<path class="st3" d="M775.8,927.82c4.43-2.83,9.14-3.52,11.08-1.74c0.32,0.25,0.63,0.56,0.9,0.94c3.35,4.68,7.21,15.47,6.59,23.26
			c-0.35,4.41-0.98,5.3-2.2,5.49c-1,0.5-2.72,0.55-5.67-0.74c-7.17-3.13-14.22-12.24-16.77-17.4c-1.02-2.06-0.24-3.81,1.07-5.17
			C771.92,930.86,773.64,929.2,775.8,927.82z"/>
		<path class="st3" d="M767.51,958.14c4.05-3.36,8.64-4.63,10.78-3.11c0.35,0.21,0.69,0.47,1.01,0.83
			c3.9,4.22,9.08,14.45,9.43,22.26c0.2,4.42-0.32,5.39-1.5,5.72c-0.93,0.62-2.63,0.88-5.71-0.03c-7.5-2.21-15.63-10.38-18.8-15.18
			c-1.27-1.92-0.71-3.75,0.42-5.26C764.04,961.64,765.54,959.78,767.51,958.14z"/>
		<path class="st3" d="M803.62,934.99c3.23-4.15,7.45-6.37,9.86-5.34c0.39,0.13,0.78,0.32,1.17,0.59
			c4.72,3.29,11.96,12.18,13.98,19.73c1.14,4.27,0.84,5.33-0.24,5.91c-0.78,0.81-2.38,1.43-5.59,1.2
			c-7.8-0.56-17.49-6.79-21.61-10.8c-1.65-1.6-1.5-3.51-0.72-5.22C800.97,939.15,802.04,937.01,803.62,934.99z"/>
		<path class="st3" d="M818.48,895.54c0.87-5.19,3.52-9.14,6.14-9.39c0.4-0.07,0.83-0.09,1.31-0.04
			c5.71,0.65,16.31,5.03,21.68,10.71c3.03,3.22,3.28,4.29,2.6,5.32c-0.3,1.08-1.42,2.39-4.35,3.71c-7.12,3.22-18.62,2.34-24.15,0.77
			c-2.21-0.63-2.99-2.38-3.12-4.25C818.12,900.46,818.05,898.07,818.48,895.54z"/>
		<path class="st3" d="M741.82,1007.13c4.88-1.96,9.64-1.77,11.21,0.33c0.27,0.3,0.51,0.66,0.71,1.1
			c2.43,5.21,4.23,16.53,2.19,24.08c-1.16,4.27-1.94,5.03-3.18,4.99c-1.08,0.31-2.78,0.04-5.43-1.77
			c-6.47-4.39-11.72-14.65-13.27-20.19c-0.62-2.22,0.47-3.79,2-4.88C737.44,1009.39,739.44,1008.08,741.82,1007.13z"/>
		<path class="st3" d="M769.78,992.01c3.78-3.65,8.26-5.26,10.51-3.91c0.36,0.18,0.72,0.42,1.07,0.75
			c4.21,3.92,10.14,13.73,11.08,21.49c0.53,4.39,0.09,5.39-1.07,5.82c-0.88,0.69-2.56,1.08-5.7,0.4
			c-7.64-1.64-16.37-9.17-19.89-13.72c-1.41-1.82-0.99-3.69,0.02-5.27C766.57,995.75,767.93,993.79,769.78,992.01z"/>
		<path class="st3" d="M799.97,965.47c3.78-3.65,8.26-5.26,10.51-3.91c0.36,0.18,0.72,0.42,1.07,0.75
			c4.21,3.92,10.14,13.73,11.08,21.49c0.53,4.39,0.09,5.39-1.07,5.82c-0.88,0.69-2.56,1.08-5.7,0.4
			c-7.64-1.64-16.37-9.17-19.89-13.72c-1.41-1.82-0.99-3.69,0.02-5.27C796.76,969.22,798.12,967.25,799.97,965.47z"/>
		<path class="st3" d="M830.23,924.09c1.88-4.91,5.27-8.26,7.88-7.98c0.41,0.01,0.83,0.08,1.29,0.22
			c5.47,1.77,14.99,8.16,19.12,14.8c2.34,3.75,2.36,4.85,1.49,5.73c-0.51,1-1.86,2.06-5,2.77c-7.62,1.74-18.71-1.4-23.82-4.03
			c-2.05-1.05-2.45-2.92-2.21-4.79C828.9,928.84,829.31,926.48,830.23,924.09z"/>
		<path class="st3" d="M814.06,843.29c-3.93-3.49-5.88-7.83-4.71-10.18c0.15-0.38,0.36-0.75,0.66-1.13
			c3.58-4.5,12.91-11.17,20.57-12.7c4.34-0.87,5.37-0.51,5.88,0.62c0.76,0.83,1.27,2.47,0.84,5.65
			c-1.05,7.75-7.88,17.03-12.15,20.89c-1.71,1.55-3.6,1.27-5.26,0.39C818.04,846.2,815.98,844.99,814.06,843.29z"/>
		<path class="st3" d="M840.31,849.17c-3.36-4.05-4.62-8.64-3.1-10.78c0.21-0.35,0.47-0.69,0.83-1.01
			c4.23-3.9,14.46-9.07,22.27-9.41c4.42-0.2,5.38,0.32,5.72,1.51c0.62,0.93,0.88,2.63-0.03,5.71c-2.22,7.5-10.39,15.62-15.19,18.79
			c-1.92,1.27-3.75,0.71-5.26-0.42C843.8,852.66,841.94,851.15,840.31,849.17z"/>
		<path class="st3" d="M852.3,908.38c1.61-5.01,4.8-8.54,7.42-8.41c0.41-0.01,0.84,0.03,1.3,0.15c5.56,1.46,15.42,7.31,19.92,13.7
			c2.54,3.62,2.63,4.71,1.81,5.63c-0.45,1.03-1.75,2.16-4.83,3.05c-7.51,2.17-18.76-0.35-24.01-2.69c-2.1-0.94-2.61-2.78-2.48-4.66
			C851.25,913.19,851.52,910.82,852.3,908.38z"/>
		<path class="st3" d="M857.26,886.76c0.51-5.23,2.87-9.37,5.46-9.8c0.39-0.1,0.82-0.15,1.3-0.13c5.75,0.25,16.62,3.87,22.38,9.16
			c3.25,2.99,3.57,4.04,2.96,5.12c-0.23,1.1-1.25,2.48-4.08,4.01c-6.88,3.71-18.41,3.64-24.04,2.47c-2.25-0.47-3.15-2.16-3.41-4.02
			C857.25,891.69,857.02,889.31,857.26,886.76z"/>
		<path class="st3" d="M864.38,862.81c-1.81-4.94-1.46-9.69,0.69-11.2c0.31-0.26,0.68-0.49,1.12-0.68
			c5.29-2.26,16.66-3.7,24.14-1.41c4.23,1.29,4.97,2.1,4.89,3.34c0.27,1.09-0.05,2.78-1.94,5.37c-4.6,6.32-15.02,11.24-20.61,12.62
			c-2.23,0.55-3.77-0.59-4.81-2.16C866.5,867.26,865.26,865.22,864.38,862.81z"/>
		<path class="st3" d="M838.55,949.7c3.56-3.87,7.94-5.74,10.26-4.52c0.37,0.16,0.75,0.38,1.12,0.68
			c4.43,3.66,10.93,13.11,12.33,20.8c0.79,4.35,0.41,5.38-0.72,5.87c-0.84,0.74-2.49,1.23-5.67,0.74
			c-7.73-1.19-16.88-8.19-20.66-12.52c-1.51-1.73-1.2-3.62-0.29-5.27C835.57,953.63,836.81,951.59,838.55,949.7z"/>
		<path class="st3" d="M833.52,978.08c3.56-3.87,7.94-5.74,10.26-4.52c0.37,0.16,0.75,0.38,1.12,0.68
			c4.43,3.66,10.93,13.11,12.33,20.8c0.79,4.35,0.41,5.38-0.72,5.87c-0.84,0.74-2.49,1.23-5.67,0.74
			c-7.73-1.19-16.88-8.19-20.66-12.52c-1.51-1.73-1.2-3.62-0.29-5.27C830.54,982.01,831.78,979.97,833.52,978.08z"/>
		<path class="st3" d="M806.69,998.96c4.54-2.66,9.27-3.17,11.14-1.32c0.31,0.26,0.6,0.58,0.87,0.98c3.17,4.8,6.62,15.73,5.71,23.49
			c-0.52,4.39-1.18,5.26-2.41,5.4c-1.02,0.46-2.74,0.45-5.63-0.95c-7.04-3.39-13.75-12.77-16.1-18.02c-0.94-2.1-0.09-3.82,1.26-5.12
			C802.7,1001.85,804.48,1000.26,806.69,998.96z"/>
		<path class="st3" d="M770.6,1024.19c4.54-2.66,9.27-3.17,11.14-1.32c0.31,0.26,0.6,0.58,0.87,0.98c3.17,4.8,6.62,15.73,5.71,23.49
			c-0.52,4.39-1.18,5.26-2.41,5.4c-1.02,0.46-2.74,0.45-5.63-0.95c-7.04-3.39-13.75-12.77-16.1-18.02c-0.94-2.1-0.09-3.82,1.26-5.12
			C766.61,1027.08,768.39,1025.49,770.6,1024.19z"/>
		<path class="st3" d="M864.8,938.35c2.33-4.71,6.01-7.74,8.59-7.22c0.4,0.05,0.82,0.15,1.26,0.34c5.28,2.28,14.17,9.52,17.66,16.51
			c1.98,3.95,1.9,5.05,0.95,5.84c-0.6,0.95-2.05,1.88-5.23,2.3c-7.75,1.02-18.5-3.13-23.34-6.23c-1.94-1.24-2.17-3.14-1.76-4.97
			C863.04,942.95,863.66,940.65,864.8,938.35z"/>
		<path class="st3" d="M866.27,973.73c2.33-4.71,6.01-7.74,8.59-7.22c0.4,0.05,0.82,0.15,1.26,0.34
			c5.28,2.28,14.17,9.52,17.66,16.51c1.98,3.95,1.9,5.05,0.95,5.84c-0.6,0.95-2.05,1.88-5.23,2.3c-7.75,1.02-18.5-3.13-23.34-6.23
			c-1.94-1.24-2.17-3.14-1.76-4.97C864.51,978.33,865.13,976.03,866.27,973.73z"/>
		<path class="st3" d="M826.99,872.75c-0.61-5.22,0.83-9.76,3.27-10.73c0.36-0.18,0.77-0.32,1.24-0.4
			c5.67-0.97,17.07,0.26,23.81,4.22c3.81,2.24,4.34,3.2,3.98,4.38c0.01,1.12-0.69,2.69-3.14,4.78c-5.94,5.08-17.22,7.45-22.97,7.49
			c-2.3,0.02-3.53-1.45-4.18-3.21C828.03,877.57,827.29,875.29,826.99,872.75z"/>
		<path class="st3" d="M744.23,970.43c4.73-2.29,9.5-2.42,11.21-0.43c0.29,0.28,0.56,0.63,0.79,1.04c2.77,5.04,5.34,16.21,3.8,23.88
			c-0.87,4.34-1.6,5.15-2.83,5.19c-1.06,0.38-2.77,0.22-5.54-1.4c-6.75-3.95-12.68-13.83-14.6-19.25c-0.77-2.17,0.21-3.81,1.67-5
			C740.02,972.99,741.92,971.55,744.23,970.43z"/>
		<path class="st3" d="M709.63,968.2c4.51,2.7,7.23,6.62,6.5,9.14c-0.08,0.4-0.22,0.81-0.44,1.23
			c-2.69,5.08-10.63,13.35-17.88,16.27c-4.1,1.65-5.19,1.49-5.9,0.48c-0.9-0.68-1.7-2.19-1.87-5.4c-0.4-7.81,4.61-18.19,8.09-22.77
			c1.39-1.83,3.3-1.91,5.1-1.35C705.18,966.07,707.43,966.88,709.63,968.2z"/>
		<path class="st3" d="M724.8,982.55c5.25-0.32,9.7,1.37,10.53,3.86c0.16,0.37,0.28,0.79,0.33,1.26c0.65,5.71-1.22,17.02-5.55,23.53
			c-2.45,3.68-3.44,4.16-4.59,3.73c-1.12-0.05-2.65-0.84-4.59-3.4c-4.74-6.22-6.47-17.61-6.19-23.35c0.11-2.3,1.65-3.45,3.44-4
			C719.93,983.31,722.24,982.7,724.8,982.55z"/>
		<path class="st3" d="M678.5,957.2c3.64,3.8,5.23,8.28,3.87,10.53c-0.18,0.36-0.42,0.72-0.75,1.07c-3.93,4.19-13.77,10.09-21.53,11
			c-4.39,0.52-5.39,0.07-5.82-1.09c-0.69-0.89-1.07-2.56-0.38-5.7c1.67-7.64,9.23-16.33,13.79-19.84c1.83-1.4,3.69-0.98,5.27,0.04
			C674.77,953.98,676.73,955.35,678.5,957.2z"/>
		<path class="st3" d="M676.39,982.1c5.08,1.35,8.77,4.36,8.77,6.99c0.03,0.4,0.01,0.84-0.09,1.3c-1.19,5.63-6.53,15.77-12.69,20.58
			c-3.49,2.72-4.57,2.86-5.54,2.09c-1.05-0.4-2.24-1.64-3.29-4.67c-2.54-7.39-0.59-18.75,1.49-24.12c0.83-2.15,2.65-2.75,4.53-2.71
			C671.52,981.29,673.91,981.44,676.39,982.1z"/>
		<path class="st3" d="M664.58,940.14c2.27,4.75,2.37,9.51,0.37,11.21c-0.29,0.29-0.63,0.55-1.05,0.78
			c-5.05,2.75-16.24,5.26-23.89,3.69c-4.33-0.89-5.14-1.62-5.18-2.86c-0.37-1.06-0.21-2.77,1.42-5.53
			c3.98-6.73,13.89-12.61,19.32-14.51c2.17-0.76,3.81,0.23,5,1.69C662.04,935.91,663.47,937.83,664.58,940.14z"/>
		<path class="st3" d="M792.4,909.49c-1.85,4.92-1.54,9.68,0.59,11.2c0.31,0.26,0.67,0.5,1.11,0.69c5.27,2.3,16.63,3.85,24.12,1.63
			c4.24-1.26,4.99-2.06,4.92-3.29c0.28-1.09-0.03-2.78-1.9-5.39c-4.54-6.36-14.92-11.37-20.49-12.8c-2.23-0.57-3.78,0.56-4.83,2.11
			C794.56,905.06,793.3,907.09,792.4,909.49z"/>
		<path class="st3" d="M727.68,945.03c5.26-0.1,9.64,1.77,10.36,4.29c0.14,0.38,0.24,0.8,0.28,1.28c0.41,5.74-1.92,16.96-6.51,23.28
			c-2.6,3.58-3.61,4.01-4.74,3.53c-1.12-0.1-2.61-0.95-4.45-3.59c-4.48-6.41-5.74-17.86-5.23-23.59c0.21-2.29,1.79-3.37,3.6-3.85
			C722.79,945.59,725.12,945.08,727.68,945.03z"/>
		<path class="st3" d="M707.51,936.46c4.08,3.32,6.22,7.57,5.14,9.97c-0.14,0.38-0.33,0.77-0.61,1.15
			c-3.39,4.65-12.41,11.71-20.01,13.58c-4.29,1.05-5.34,0.74-5.91-0.36c-0.79-0.8-1.38-2.41-1.08-5.61
			c0.71-7.79,7.14-17.35,11.24-21.39c1.64-1.62,3.54-1.42,5.24-0.61C703.41,933.73,705.52,934.84,707.51,936.46z"/>
		<path class="st3" d="M785.84,841.88c-4.08-3.32-6.22-7.57-5.14-9.97c0.13-0.38,0.33-0.77,0.61-1.15
			c3.39-4.65,12.41-11.71,20.01-13.58c4.29-1.05,5.34-0.74,5.91,0.36c0.79,0.8,1.38,2.41,1.08,5.61
			c-0.71,7.79-7.14,17.35-11.24,21.39c-1.64,1.62-3.54,1.42-5.24,0.61C789.94,844.61,787.83,843.5,785.84,841.88z"/>
		<path class="st3" d="M794.41,862.68c0.99,5.16,3.73,9.06,6.35,9.25c0.4,0.06,0.83,0.07,1.31,0.01c5.7-0.78,16.19-5.39,21.43-11.2
			c2.96-3.28,3.18-4.36,2.47-5.37c-0.33-1.07-1.47-2.35-4.43-3.61c-7.2-3.06-18.66-1.92-24.16-0.22c-2.2,0.68-2.93,2.45-3.02,4.32
			C793.94,857.77,793.93,860.16,794.41,862.68z"/>
		<path class="st3" d="M734.1,847.84c-5.03-1.54-8.61-4.68-8.52-7.3c-0.02-0.41,0.02-0.84,0.13-1.3
			c1.39-5.58,7.09-15.52,13.42-20.11c3.58-2.59,4.67-2.69,5.61-1.89c1.03,0.44,2.18,1.71,3.12,4.79c2.27,7.48-0.09,18.76-2.36,24.05
			c-0.91,2.11-2.75,2.65-4.62,2.54C738.93,848.83,736.55,848.59,734.1,847.84z"/>
	</g>
	<g class="st2">
		<path class="st3" d="M624.65,424.6c-1.49-5.04-0.85-9.76,1.39-11.13c0.33-0.24,0.71-0.45,1.16-0.61
			c5.42-1.92,16.86-2.65,24.18,0.1c4.14,1.56,4.83,2.41,4.67,3.64c0.2,1.1-0.23,2.77-2.28,5.24c-4.99,6.02-15.7,10.28-21.36,11.3
			c-2.27,0.41-3.73-0.83-4.67-2.45C626.49,429.18,625.37,427.06,624.65,424.6z"/>
		<path class="st3" d="M628.92,388.78c-3.87-3.56-5.74-7.94-4.52-10.27c0.16-0.37,0.38-0.75,0.68-1.12
			c3.67-4.43,13.11-10.92,20.8-12.32c4.35-0.79,5.38-0.41,5.87,0.73c0.74,0.84,1.23,2.49,0.74,5.67
			c-1.19,7.73-8.2,16.88-12.53,20.66c-1.73,1.51-3.62,1.2-5.27,0.29C632.85,391.76,630.81,390.52,628.92,388.78z"/>
		<path class="st3" d="M595.41,379.7c-5.05,1.46-9.77,0.79-11.12-1.46c-0.24-0.33-0.44-0.71-0.6-1.16
			c-1.89-5.43-2.54-16.88,0.26-24.18c1.58-4.13,2.44-4.81,3.67-4.64c1.1-0.2,2.77,0.24,5.23,2.31c5.99,5.03,10.18,15.76,11.16,21.43
			c0.39,2.27-0.85,3.72-2.48,4.65C599.99,377.89,597.87,378.99,595.41,379.7z"/>
		<path class="st3" d="M581.08,403.14c-2.54,4.61-6.35,7.46-8.9,6.83c-0.4-0.06-0.82-0.19-1.25-0.4
			c-5.18-2.51-13.73-10.14-16.91-17.28c-1.8-4.04-1.67-5.13-0.69-5.88c0.64-0.92,2.13-1.78,5.33-2.06
			c7.79-0.68,18.34,3.95,23.05,7.26c1.88,1.32,2.03,3.23,1.53,5.05C583.05,398.61,582.32,400.89,581.08,403.14z"/>
		<path class="st3" d="M569.38,369.97c-2.54,4.61-6.35,7.46-8.9,6.83c-0.4-0.06-0.82-0.19-1.25-0.4
			c-5.18-2.51-13.73-10.14-16.91-17.28c-1.8-4.04-1.67-5.13-0.69-5.88c0.64-0.92,2.13-1.78,5.33-2.06
			c7.79-0.68,18.34,3.95,23.05,7.26c1.88,1.32,2.03,3.23,1.53,5.05C571.34,365.45,570.62,367.73,569.38,369.97z"/>
		<path class="st3" d="M619.53,358.22c-5.15-1.07-9-3.87-9.15-6.49c-0.06-0.4-0.06-0.83,0.01-1.31c0.87-5.68,5.64-16.11,11.53-21.25
			c3.33-2.91,4.41-3.11,5.41-2.39c1.07,0.34,2.33,1.51,3.54,4.48c2.94,7.24,1.63,18.69-0.15,24.16c-0.71,2.19-2.49,2.89-4.37,2.95
			C624.43,358.76,622.04,358.74,619.53,358.22z"/>
		<path class="st3" d="M558.41,416.91c2.91,4.38,3.67,9.08,1.93,11.05c-0.24,0.33-0.55,0.64-0.93,0.92
			c-4.62,3.43-15.34,7.48-23.15,6.99c-4.41-0.27-5.32-0.89-5.53-2.11c-0.52-1-0.6-2.71,0.64-5.68c3-7.22,11.99-14.43,17.11-17.06
			c2.05-1.05,3.81-0.3,5.18,0.98C555.31,413.08,556.99,414.78,558.41,416.91z"/>
		<path class="st3" d="M657.48,398.01c-1.15-5.13-0.18-9.8,2.15-11.01c0.34-0.22,0.74-0.4,1.2-0.53c5.54-1.55,17-1.49,24.11,1.75
			c4.02,1.84,4.65,2.74,4.41,3.95c0.13,1.11-0.41,2.75-2.63,5.07c-5.39,5.67-16.36,9.18-22.08,9.81c-2.29,0.25-3.66-1.08-4.49-2.77
			C659,402.7,658.04,400.51,657.48,398.01z"/>
		<path class="st3" d="M595.81,338.76c-5.26-0.18-9.53-2.28-10.12-4.84c-0.12-0.39-0.2-0.81-0.21-1.29
			c-0.11-5.75,2.81-16.83,7.74-22.91c2.78-3.43,3.81-3.82,4.92-3.28c1.11,0.16,2.55,1.09,4.25,3.82c4.14,6.63,4.79,18.14,3.97,23.83
			c-0.33,2.28-1.96,3.28-3.8,3.65C600.73,338.46,598.38,338.85,595.81,338.76z"/>
		<path class="st3" d="M619.82,318.46c-5.24,0.48-9.74-1.08-10.64-3.54c-0.17-0.37-0.3-0.78-0.37-1.25
			c-0.82-5.69,0.7-17.05,4.83-23.69c2.34-3.75,3.31-4.26,4.48-3.87c1.12,0.02,2.67,0.76,4.7,3.26c4.93,6.07,7.01,17.41,6.9,23.15
			c-0.04,2.3-1.54,3.49-3.32,4.1C624.66,317.55,622.37,318.23,619.82,318.46z"/>
		<path class="st3" d="M576.95,317.11c-5.01,1.59-9.74,1.03-11.15-1.18c-0.25-0.32-0.46-0.7-0.63-1.15
			c-2.02-5.38-2.96-16.81-0.35-24.18c1.48-4.17,2.32-4.87,3.55-4.73c1.1-0.22,2.77,0.17,5.28,2.18c6.11,4.87,10.57,15.5,11.7,21.14
			c0.45,2.26-0.76,3.74-2.37,4.71C581.49,315.18,579.39,316.33,576.95,317.11z"/>
		<path class="st3" d="M542.36,341.21c-3.66,3.78-8.08,5.54-10.37,4.26c-0.37-0.17-0.74-0.4-1.1-0.71
			c-4.34-3.77-10.6-13.38-11.8-21.1c-0.68-4.37-0.27-5.39,0.87-5.85c0.86-0.72,2.52-1.16,5.68-0.6c7.69,1.38,16.67,8.61,20.34,13.04
			c1.47,1.77,1.11,3.65,0.16,5.27C545.44,337.36,544.14,339.37,542.36,341.21z"/>
		<path class="st3" d="M668.73,292.64c-5.13-1.14-8.95-4-9.05-6.62c-0.05-0.4-0.05-0.84,0.03-1.31c0.95-5.67,5.87-16.02,11.83-21.09
			c3.37-2.86,4.45-3.05,5.45-2.31c1.06,0.36,2.31,1.54,3.48,4.53c2.84,7.28,1.36,18.71-0.49,24.16c-0.74,2.18-2.53,2.86-4.41,2.89
			C673.62,293.25,671.23,293.19,668.73,292.64z"/>
		<path class="st3" d="M637.12,289.27c-5.19,0.87-9.79-0.34-10.88-2.73c-0.2-0.35-0.36-0.76-0.46-1.22
			c-1.25-5.61-0.58-17.06,3.04-23.99c2.05-3.92,2.98-4.5,4.18-4.19c1.12-0.07,2.72,0.56,4.93,2.9c5.37,5.68,8.3,16.83,8.62,22.57
			c0.13,2.3-1.27,3.6-3,4.34C641.89,288,639.65,288.85,637.12,289.27z"/>
		<path class="st3" d="M597.21,294.05c-5.19,0.87-9.79-0.34-10.88-2.73c-0.2-0.35-0.36-0.76-0.46-1.22
			c-1.25-5.61-0.58-17.06,3.04-23.99c2.05-3.92,2.98-4.5,4.18-4.19c1.12-0.07,2.72,0.56,4.93,2.9c5.37,5.68,8.3,16.83,8.62,22.57
			c0.13,2.3-1.27,3.6-3,4.34C601.98,292.78,599.74,293.62,597.21,294.05z"/>
		<path class="st3" d="M548.84,311.03c-4.33,2.98-9.02,3.83-11.01,2.12c-0.33-0.24-0.64-0.53-0.94-0.91
			c-3.5-4.56-7.74-15.21-7.38-23.02c0.2-4.42,0.8-5.33,2.01-5.56c0.99-0.53,2.7-0.64,5.69,0.54c7.27,2.88,14.63,11.75,17.35,16.81
			c1.09,2.03,0.37,3.8-0.89,5.2C552.62,307.86,550.95,309.57,548.84,311.03z"/>
		<path class="st3" d="M516.42,386.77c1.27,5.1,0.42,9.79-1.88,11.06c-0.34,0.23-0.73,0.42-1.18,0.55
			c-5.5,1.68-16.96,1.9-24.15-1.18c-4.07-1.74-4.71-2.62-4.5-3.84c-0.15-1.11,0.35-2.75,2.51-5.14c5.25-5.79,16.14-9.57,21.84-10.34
			c2.28-0.31,3.69,0.99,4.56,2.66C514.78,382.12,515.8,384.29,516.42,386.77z"/>
		<path class="st3" d="M498.12,367.07c0.47,5.24-1.08,9.74-3.55,10.64c-0.37,0.17-0.78,0.3-1.25,0.37
			c-5.69,0.82-17.05-0.71-23.69-4.85c-3.75-2.34-4.26-3.31-3.86-4.48c0.02-1.12,0.77-2.67,3.26-4.69
			c6.07-4.92,17.41-6.99,23.16-6.88c2.3,0.04,3.49,1.54,4.1,3.32C497.21,362.22,497.89,364.52,498.12,367.07z"/>
		<path class="st3" d="M521.75,311.47c-4.16,3.22-8.79,4.33-10.88,2.73c-0.34-0.22-0.67-0.5-0.99-0.86
			c-3.75-4.36-8.58-14.76-8.66-22.57c-0.05-4.42,0.5-5.37,1.7-5.67c0.95-0.59,2.66-0.79,5.71,0.22
			c7.42,2.47,15.27,10.91,18.27,15.81c1.2,1.96,0.58,3.77-0.6,5.24C525.34,308.1,523.77,309.91,521.75,311.47z"/>
		<path class="st3" d="M505.42,326.48c-3.38,4.03-7.67,6.09-10.05,4.98c-0.38-0.14-0.76-0.34-1.15-0.63
			c-4.59-3.46-11.51-12.6-13.26-20.22c-0.99-4.31-0.65-5.35,0.46-5.9c0.81-0.78,2.43-1.34,5.63-0.99
			c7.77,0.84,17.23,7.42,21.21,11.58c1.59,1.66,1.37,3.56,0.53,5.25C508.22,322.42,507.07,324.52,505.42,326.48z"/>
		<path class="st3" d="M485.99,342.2c-1.31,5.09-4.28,8.81-6.91,8.84c-0.4,0.04-0.84,0.02-1.31-0.07
			c-5.64-1.13-15.83-6.38-20.69-12.5c-2.75-3.46-2.9-4.55-2.14-5.52c0.39-1.05,1.61-2.26,4.64-3.33c7.37-2.61,18.75-0.76,24.13,1.27
			c2.15,0.81,2.77,2.62,2.75,4.5C486.76,337.33,486.63,339.72,485.99,342.2z"/>
		<path class="st3" d="M556.49,285.2c-5.13,1.17-9.8,0.24-11.02-2.09c-0.22-0.34-0.4-0.73-0.53-1.19
			c-1.58-5.53-1.59-16.99,1.62-24.12c1.81-4.03,2.71-4.66,3.92-4.43c1.11-0.13,2.75,0.4,5.09,2.6c5.7,5.35,9.27,16.31,9.94,22.02
			c0.27,2.29-1.06,3.67-2.74,4.51C561.17,283.65,558.98,284.63,556.49,285.2z"/>
		<path class="st3" d="M576.7,264.66c-5.13,1.17-9.8,0.24-11.02-2.09c-0.22-0.34-0.4-0.73-0.53-1.19
			c-1.58-5.53-1.59-16.99,1.62-24.12c1.81-4.03,2.71-4.66,3.92-4.43c1.11-0.13,2.75,0.4,5.09,2.6c5.7,5.35,9.27,16.31,9.94,22.02
			c0.27,2.29-1.06,3.67-2.74,4.51C581.38,263.11,579.2,264.08,576.7,264.66z"/>
		<path class="st3" d="M610.63,262.64c-5.25-0.37-9.44-2.64-9.93-5.22c-0.11-0.39-0.17-0.82-0.16-1.3c0.11-5.75,3.45-16.72,8.6-22.6
			c2.91-3.33,3.95-3.67,5.04-3.09c1.1,0.2,2.51,1.18,4.11,3.97c3.88,6.79,4.1,18.31,3.07,23.97c-0.41,2.26-2.08,3.2-3.94,3.51
			C615.56,262.52,613.19,262.82,610.63,262.64z"/>
		<path class="st3" d="M654.67,262.27c-5.25-0.37-9.44-2.64-9.93-5.22c-0.11-0.39-0.17-0.82-0.16-1.3c0.11-5.75,3.45-16.72,8.6-22.6
			c2.91-3.33,3.95-3.67,5.04-3.09c1.1,0.2,2.51,1.18,4.11,3.97c3.88,6.79,4.1,18.31,3.07,23.97c-0.41,2.26-2.08,3.2-3.94,3.51
			C659.59,262.16,657.22,262.46,654.67,262.27z"/>
		<path class="st3" d="M528.42,279.7c-4.59,2.56-9.34,2.97-11.16,1.09c-0.31-0.27-0.59-0.59-0.85-1
			c-3.06-4.87-6.29-15.87-5.21-23.61c0.61-4.38,1.29-5.24,2.52-5.35c1.03-0.44,2.75-0.39,5.61,1.07
			c6.97,3.54,13.47,13.06,15.71,18.36c0.9,2.12,0.01,3.82-1.37,5.09C532.47,276.9,530.66,278.45,528.42,279.7z"/>
		<path class="st3" d="M547.24,249.7c-4.59,2.56-9.34,2.97-11.16,1.09c-0.31-0.27-0.59-0.59-0.85-1
			c-3.06-4.87-6.29-15.87-5.21-23.61c0.61-4.38,1.29-5.24,2.52-5.35c1.03-0.44,2.75-0.39,5.61,1.07
			c6.97,3.54,13.47,13.06,15.71,18.36c0.9,2.12,0.01,3.82-1.37,5.09C551.3,246.9,549.48,248.45,547.24,249.7z"/>
		<path class="st3" d="M522.44,355.18c-2.45,4.65-6.21,7.58-8.77,6.99c-0.4-0.06-0.82-0.17-1.25-0.37
			c-5.22-2.41-13.92-9.88-17.23-16.96c-1.87-4-1.77-5.1-0.8-5.86c0.62-0.93,2.09-1.82,5.29-2.16c7.77-0.83,18.41,3.61,23.18,6.83
			c1.91,1.29,2.09,3.19,1.63,5.02C524.31,350.62,523.63,352.91,522.44,355.18z"/>
		<path class="st3" d="M645.96,321.52c-5.2-0.79-9.19-3.39-9.48-6c-0.08-0.4-0.1-0.83-0.06-1.31c0.57-5.72,4.78-16.38,10.38-21.83
			c3.17-3.08,4.24-3.34,5.28-2.68c1.09,0.29,2.41,1.38,3.77,4.29c3.33,7.08,2.62,18.58,1.14,24.13c-0.59,2.22-2.33,3.02-4.21,3.18
			C650.88,321.8,648.5,321.91,645.96,321.52z"/>
		<path class="st3" d="M673.22,342.95c-2.19-4.78-2.21-9.55-0.18-11.21c0.29-0.28,0.64-0.54,1.06-0.76
			c5.1-2.66,16.32-4.99,23.95-3.29c4.32,0.96,5.12,1.71,5.13,2.95c0.36,1.06,0.16,2.77-1.52,5.51c-4.09,6.66-14.1,12.38-19.56,14.18
			c-2.19,0.72-3.81-0.3-4.97-1.77C675.68,347.22,674.28,345.29,673.22,342.95z"/>
		<path class="st3" d="M668.84,322.53c-4.51-2.71-7.22-6.62-6.49-9.15c0.08-0.4,0.22-0.81,0.44-1.23
			c2.7-5.08,10.64-13.34,17.9-16.25c4.1-1.65,5.19-1.48,5.9-0.47c0.9,0.68,1.7,2.19,1.86,5.4c0.39,7.81-4.63,18.18-8.12,22.76
			c-1.39,1.83-3.31,1.91-5.1,1.34C673.28,324.66,671.03,323.86,668.84,322.53z"/>
		<path class="st3" d="M692.65,369.64c-0.85-5.19,0.38-9.79,2.77-10.87c0.36-0.2,0.76-0.36,1.22-0.46
			c5.62-1.23,17.06-0.52,23.98,3.13c3.91,2.06,4.49,3,4.18,4.19c0.06,1.12-0.57,2.72-2.91,4.92c-5.7,5.35-16.86,8.23-22.6,8.54
			c-2.3,0.12-3.59-1.29-4.33-3.02C693.9,374.4,693.07,372.17,692.65,369.64z"/>
		<path class="st3" d="M708.49,350.31c-3.42-3.99-4.76-8.56-3.27-10.73c0.2-0.35,0.46-0.7,0.81-1.03c4.16-3.97,14.31-9.3,22.11-9.78
			c4.41-0.27,5.39,0.23,5.75,1.41c0.64,0.92,0.92,2.62,0.06,5.71c-2.09,7.53-10.13,15.79-14.88,19.03c-1.9,1.3-3.74,0.77-5.26-0.33
			C712.04,353.74,710.16,352.26,708.49,350.31z"/>
		<path class="st3" d="M694.47,391.59c0.82-5.19,3.43-9.18,6.04-9.45c0.4-0.08,0.83-0.1,1.31-0.05c5.72,0.59,16.36,4.86,21.79,10.49
			c3.07,3.18,3.32,4.25,2.65,5.29c-0.29,1.08-1.39,2.4-4.31,3.75c-7.09,3.29-18.59,2.53-24.14,1.02c-2.22-0.6-3.01-2.35-3.16-4.22
			C694.16,396.51,694.07,394.12,694.47,391.59z"/>
		<path class="st3" d="M571.75,344.48c4.31-3.01,6.75-7.1,5.85-9.57c-0.11-0.39-0.27-0.79-0.53-1.2c-3.04-4.88-11.53-12.59-18.96-15
			c-4.21-1.36-5.28-1.12-5.92-0.07c-0.85,0.74-1.55,2.3-1.49,5.52c0.14,7.82,5.86,17.82,9.65,22.15c1.52,1.73,3.43,1.68,5.18,0.99
			C567.46,346.91,569.65,345.95,571.75,344.48z"/>
		<path class="st3" d="M645.22,351.82c-4.39-2.89-6.94-6.92-6.11-9.41c0.1-0.39,0.25-0.8,0.49-1.21
			c2.91-4.96,11.18-12.89,18.55-15.5c4.17-1.48,5.24-1.27,5.91-0.23c0.87,0.71,1.61,2.26,1.64,5.47c0.07,7.82-5.38,17.98-9.05,22.4
			c-1.47,1.77-3.38,1.77-5.15,1.13C649.58,354.13,647.36,353.23,645.22,351.82z"/>
		<path class="st3" d="M657,370.31c-1.49-5.04-0.83-9.76,1.41-11.13c0.33-0.24,0.71-0.45,1.16-0.61c5.42-1.91,16.86-2.62,24.18,0.14
			c4.14,1.56,4.82,2.42,4.66,3.64c0.2,1.1-0.23,2.77-2.28,5.24c-5,6.01-15.71,10.25-21.37,11.27c-2.27,0.41-3.73-0.83-4.66-2.46
			C658.83,374.89,657.72,372.77,657,370.31z"/>
		<path class="st3" d="M538.88,403.92c1.49,5.04,0.83,9.76-1.41,11.13c-0.33,0.24-0.71,0.45-1.16,0.61
			c-5.42,1.91-16.86,2.62-24.18-0.14c-4.14-1.56-4.82-2.42-4.66-3.64c-0.2-1.1,0.23-2.77,2.28-5.24c5-6.01,15.71-10.25,21.37-11.27
			c2.27-0.41,3.73,0.83,4.66,2.46C537.05,399.34,538.16,401.46,538.88,403.92z"/>
		<path class="st3" d="M543.59,381.92c2.11-4.82,2.05-9.58,0-11.22c-0.3-0.28-0.65-0.53-1.07-0.75c-5.14-2.58-16.4-4.72-24-2.9
			c-4.3,1.03-5.09,1.79-5.08,3.03c-0.34,1.07-0.12,2.77,1.61,5.48c4.2,6.59,14.3,12.15,19.79,13.86c2.2,0.69,3.8-0.36,4.94-1.85
			C541.2,386.23,542.56,384.27,543.59,381.92z"/>
		<path class="st3" d="M584.9,428.3c3.28,4.11,4.45,8.73,2.89,10.84c-0.21,0.35-0.49,0.68-0.85,1c-4.3,3.81-14.63,8.78-22.45,8.98
			c-4.42,0.11-5.38-0.42-5.69-1.62c-0.6-0.95-0.83-2.65,0.14-5.71c2.36-7.45,10.69-15.42,15.56-18.49c1.95-1.23,3.76-0.63,5.25,0.52
			C581.48,424.75,583.3,426.29,584.9,428.3z"/>
	</g>
	<g class="st2">
		<path class="st3" d="M373.74,419.76c-3.49-3.93-4.92-8.48-3.47-10.67c0.19-0.36,0.45-0.71,0.79-1.04
			c4.09-4.04,14.14-9.56,21.93-10.18c4.41-0.35,5.39,0.13,5.77,1.31c0.65,0.91,0.97,2.6,0.17,5.71c-1.96,7.57-9.84,15.97-14.53,19.3
			c-1.88,1.33-3.73,0.84-5.27-0.24C377.35,423.12,375.45,421.68,373.74,419.76z"/>
		<path class="st3" d="M362.39,385.52c-5.02-1.58-8.57-4.75-8.45-7.37c-0.02-0.41,0.02-0.84,0.14-1.3
			c1.44-5.57,7.23-15.46,13.6-19.99c3.6-2.56,4.7-2.65,5.62-1.84c1.03,0.45,2.17,1.73,3.07,4.82c2.2,7.5-0.25,18.76-2.57,24.02
			c-0.93,2.11-2.77,2.63-4.64,2.5C367.21,386.55,364.84,386.29,362.39,385.52z"/>
		<path class="st3" d="M328.2,391.54c-3.95,3.47-8.51,4.86-10.69,3.4c-0.36-0.2-0.7-0.45-1.04-0.8c-4.02-4.12-9.47-14.2-10.04-22
			c-0.32-4.41,0.17-5.39,1.35-5.76c0.92-0.65,2.61-0.95,5.71-0.13c7.56,2.01,15.91,9.95,19.21,14.66c1.32,1.89,0.81,3.73-0.27,5.27
			C331.58,387.95,330.12,389.85,328.2,391.54z"/>
		<path class="st3" d="M325.19,418.84c-0.34,5.25-2.58,9.45-5.15,9.96c-0.39,0.11-0.82,0.18-1.3,0.17
			c-5.75-0.07-16.74-3.34-22.65-8.45c-3.35-2.89-3.69-3.93-3.12-5.03c0.19-1.11,1.17-2.52,3.95-4.13
			c6.76-3.93,18.28-4.22,23.95-3.22c2.27,0.4,3.21,2.06,3.53,3.92C325.04,413.91,325.35,416.28,325.19,418.84z"/>
		<path class="st3" d="M300.51,393.79c-0.34,5.25-2.58,9.45-5.15,9.96c-0.39,0.11-0.82,0.18-1.3,0.17
			c-5.75-0.07-16.74-3.34-22.65-8.45c-3.35-2.89-3.69-3.93-3.12-5.03c0.19-1.11,1.17-2.52,3.95-4.13
			c6.76-3.93,18.28-4.22,23.95-3.22c2.27,0.4,3.21,2.06,3.53,3.92C300.36,388.86,300.67,391.23,300.51,393.79z"/>
		<path class="st3" d="M340.91,361.85c-5.12,1.22-9.79,0.32-11.04-1.99c-0.22-0.34-0.41-0.73-0.54-1.19
			c-1.63-5.52-1.73-16.98,1.41-24.14c1.78-4.05,2.67-4.69,3.88-4.46c1.11-0.14,2.75,0.38,5.11,2.56
			c5.74,5.31,9.41,16.23,10.13,21.94c0.29,2.28-1.03,3.68-2.7,4.53C345.57,360.25,343.4,361.25,340.91,361.85z"/>
		<path class="st3" d="M310.51,440.94c4.49,2.73,7.18,6.66,6.44,9.18c-0.08,0.4-0.22,0.81-0.45,1.23
			c-2.73,5.06-10.71,13.29-17.98,16.16c-4.11,1.63-5.19,1.45-5.9,0.44c-0.89-0.68-1.69-2.2-1.83-5.41
			c-0.35-7.81,4.73-18.16,8.23-22.71c1.4-1.82,3.32-1.89,5.11-1.32C306.08,438.79,308.32,439.61,310.51,440.94z"/>
		<path class="st3" d="M392.16,381.74c-3.22-4.16-4.33-8.79-2.73-10.88c0.22-0.34,0.5-0.67,0.86-0.98
			c4.36-3.75,14.76-8.57,22.57-8.66c4.42-0.05,5.37,0.5,5.67,1.7c0.59,0.95,0.79,2.66-0.22,5.71c-2.47,7.42-10.91,15.26-15.82,18.26
			c-1.96,1.2-3.77,0.58-5.24-0.6C395.54,385.34,393.73,383.77,392.16,381.74z"/>
		<path class="st3" d="M311.17,354.31c-4.83,2.07-9.59,1.99-11.22-0.08c-0.28-0.3-0.53-0.65-0.74-1.08
			c-2.54-5.16-4.6-16.43-2.73-24.02c1.06-4.29,1.83-5.07,3.06-5.06c1.07-0.33,2.77-0.1,5.47,1.65c6.56,4.25,12.04,14.39,13.72,19.89
			c0.67,2.2-0.38,3.8-1.89,4.92C315.5,351.94,313.53,353.3,311.17,354.31z"/>
		<path class="st3" d="M324.28,325.73c-4.54,2.66-9.27,3.16-11.14,1.31c-0.31-0.26-0.6-0.58-0.87-0.98
			c-3.16-4.8-6.61-15.74-5.69-23.5c0.52-4.39,1.19-5.26,2.41-5.4c1.02-0.46,2.74-0.44,5.63,0.95c7.04,3.4,13.74,12.78,16.09,18.03
			c0.94,2.1,0.09,3.82-1.26,5.12C328.28,322.85,326.49,324.44,324.28,325.73z"/>
		<path class="st3" d="M284.89,342.72c-3.86,3.57-8.38,5.07-10.6,3.67c-0.36-0.19-0.71-0.44-1.06-0.77
			c-4.12-4.01-9.82-13.96-10.59-21.74c-0.43-4.4,0.03-5.39,1.2-5.79c0.9-0.67,2.58-1.02,5.71-0.27c7.6,1.81,16.16,9.54,19.57,14.17
			c1.37,1.85,0.91,3.71-0.14,5.27C288.18,339.04,286.78,340.98,284.89,342.72z"/>
		<path class="st3" d="M263.82,379.23c-1.7,4.98-4.96,8.45-7.58,8.27c-0.41,0.01-0.84-0.05-1.3-0.18
			c-5.53-1.57-15.28-7.61-19.65-14.09c-2.47-3.67-2.54-4.76-1.7-5.67c0.47-1.02,1.79-2.12,4.89-2.95
			c7.55-2.02,18.75,0.71,23.95,3.16c2.08,0.98,2.56,2.83,2.38,4.7C264.97,374.43,264.65,376.8,263.82,379.23z"/>
		<path class="st3" d="M357.58,281.57c-5.13,1.15-9.8,0.18-11.01-2.15c-0.22-0.34-0.4-0.74-0.53-1.2c-1.55-5.54-1.49-17,1.75-24.11
			c1.83-4.02,2.73-4.65,3.95-4.41c1.11-0.13,2.75,0.41,5.07,2.63c5.67,5.39,9.18,16.36,9.82,22.08c0.25,2.29-1.08,3.66-2.77,4.49
			C362.27,280.05,360.08,281.01,357.58,281.57z"/>
		<path class="st3" d="M327.54,291.95c-4.33,2.99-9.01,3.85-11.01,2.15c-0.33-0.24-0.65-0.53-0.94-0.91
			c-3.52-4.55-7.77-15.19-7.44-23c0.19-4.42,0.79-5.34,2-5.57c0.98-0.54,2.7-0.65,5.69,0.53c7.28,2.86,14.66,11.71,17.4,16.77
			c1.09,2.02,0.38,3.8-0.88,5.2C331.32,288.78,329.65,290.49,327.54,291.95z"/>
		<path class="st3" d="M293.44,313.23c-4.33,2.99-9.01,3.85-11.01,2.15c-0.33-0.24-0.65-0.53-0.94-0.91
			c-3.52-4.55-7.77-15.19-7.44-23c0.19-4.42,0.79-5.34,2-5.57c0.98-0.54,2.7-0.65,5.69,0.53c7.28,2.86,14.66,11.71,17.4,16.77
			c1.09,2.02,0.38,3.8-0.88,5.2C297.22,310.06,295.55,311.77,293.44,313.23z"/>
		<path class="st3" d="M256.87,349.15c-2.66,4.54-6.54,7.3-9.07,6.6c-0.4-0.08-0.81-0.21-1.23-0.43
			c-5.11-2.64-13.47-10.48-16.47-17.7c-1.7-4.08-1.54-5.17-0.54-5.89c0.67-0.9,2.17-1.73,5.38-1.93c7.8-0.48,18.24,4.42,22.85,7.85
			c1.85,1.37,1.95,3.28,1.4,5.08C258.94,344.68,258.16,346.94,256.87,349.15z"/>
		<path class="st3" d="M259.69,431.5c3.32,4.08,4.53,8.69,2.99,10.81c-0.21,0.35-0.48,0.68-0.84,1.01
			c-4.27,3.86-14.55,8.92-22.36,9.2c-4.42,0.15-5.38-0.37-5.71-1.56c-0.61-0.94-0.85-2.64,0.09-5.71
			c2.29-7.47,10.54-15.52,15.38-18.64c1.93-1.25,3.76-0.67,5.25,0.47C256.24,427.98,258.08,429.51,259.69,431.5z"/>
		<path class="st3" d="M234.76,421.44c2.65,4.54,3.16,9.28,1.31,11.14c-0.26,0.31-0.58,0.6-0.98,0.87c-4.8,3.16-15.74,6.6-23.5,5.67
			c-4.39-0.52-5.26-1.19-5.4-2.42c-0.46-1.02-0.44-2.74,0.96-5.63c3.41-7.04,12.79-13.73,18.04-16.07c2.1-0.94,3.82-0.09,5.12,1.27
			C231.88,417.43,233.46,419.22,234.76,421.44z"/>
		<path class="st3" d="M232.53,361.07c-2.4,4.68-6.12,7.65-8.69,7.1c-0.4-0.05-0.82-0.16-1.26-0.36
			c-5.25-2.35-14.03-9.71-17.43-16.75c-1.92-3.98-1.83-5.07-0.87-5.85c0.61-0.94,2.07-1.85,5.26-2.22
			c7.76-0.92,18.45,3.39,23.26,6.55c1.92,1.27,2.13,3.17,1.69,5C234.35,356.49,233.7,358.79,232.53,361.07z"/>
		<path class="st3" d="M224.13,381.59c-1.35,5.08-4.36,8.78-6.98,8.78c-0.4,0.03-0.84,0.01-1.3-0.08
			c-5.63-1.18-15.77-6.51-20.59-12.67c-2.72-3.48-2.86-4.57-2.09-5.53c0.4-1.05,1.63-2.25,4.67-3.29c7.39-2.54,18.75-0.6,24.12,1.47
			c2.15,0.83,2.75,2.65,2.71,4.52C224.94,376.73,224.78,379.11,224.13,381.59z"/>
		<path class="st3" d="M213.22,404.07c0.98,5.17-0.13,9.8-2.5,10.93c-0.35,0.21-0.75,0.37-1.21,0.49
			c-5.59,1.37-17.04,0.95-24.05-2.53c-3.96-1.96-4.56-2.88-4.28-4.09c-0.09-1.12,0.5-2.73,2.79-4.99c5.57-5.49,16.65-8.65,22.38-9.1
			c2.29-0.18,3.63,1.2,4.4,2.91C211.84,399.34,212.74,401.55,213.22,404.07z"/>
		<path class="st3" d="M252.81,322.53c-4.14,3.24-8.77,4.38-10.86,2.79c-0.34-0.22-0.68-0.49-0.99-0.85
			c-3.78-4.34-8.66-14.71-8.78-22.53c-0.07-4.42,0.47-5.37,1.67-5.68c0.95-0.59,2.66-0.81,5.71,0.19
			c7.43,2.43,15.32,10.83,18.35,15.71c1.21,1.96,0.6,3.77-0.57,5.24C256.39,319.13,254.83,320.95,252.81,322.53z"/>
		<path class="st3" d="M262.38,295.34c-4.14,3.24-8.77,4.38-10.86,2.79c-0.34-0.22-0.68-0.49-0.99-0.85
			c-3.78-4.34-8.66-14.71-8.78-22.53c-0.07-4.42,0.47-5.37,1.67-5.68c0.95-0.59,2.66-0.81,5.71,0.19
			c7.43,2.43,15.32,10.83,18.35,15.71c1.21,1.96,0.6,3.77-0.57,5.24C265.96,291.95,264.4,293.76,262.38,295.34z"/>
		<path class="st3" d="M292.24,279.1c-4.91,1.89-9.66,1.62-11.2-0.5c-0.27-0.31-0.5-0.67-0.7-1.11c-2.35-5.25-3.98-16.6-1.82-24.11
			c1.22-4.25,2.02-5,3.25-4.94c1.08-0.29,2.78,0.01,5.41,1.85c6.4,4.49,11.49,14.83,12.96,20.39c0.59,2.23-0.53,3.78-2.07,4.85
			C296.66,276.9,294.64,278.18,292.24,279.1z"/>
		<path class="st3" d="M331.95,260.06c-4.91,1.89-9.66,1.62-11.2-0.5c-0.27-0.31-0.5-0.67-0.7-1.11c-2.35-5.25-3.98-16.6-1.82-24.11
			c1.22-4.25,2.02-5,3.25-4.94c1.08-0.29,2.78,0.01,5.41,1.85c6.4,4.49,11.49,14.83,12.96,20.39c0.59,2.23-0.53,3.78-2.07,4.85
			C336.37,257.86,334.35,259.14,331.95,260.06z"/>
		<path class="st3" d="M225.07,329.47c-3.07,4.27-7.19,6.66-9.64,5.73c-0.39-0.11-0.79-0.28-1.19-0.54
			c-4.84-3.1-12.43-11.69-14.74-19.16c-1.31-4.22-1.05-5.29,0.01-5.92c0.75-0.84,2.32-1.52,5.54-1.42
			c7.81,0.25,17.74,6.1,22.02,9.94c1.71,1.54,1.63,3.45,0.93,5.19C227.55,325.21,226.56,327.39,225.07,329.47z"/>
		<path class="st3" d="M229.36,294.32c-3.07,4.27-7.19,6.66-9.64,5.73c-0.39-0.11-0.79-0.28-1.19-0.54
			c-4.84-3.1-12.43-11.69-14.74-19.16c-1.31-4.22-1.05-5.29,0.01-5.92c0.75-0.84,2.32-1.52,5.54-1.42
			c7.81,0.25,17.74,6.1,22.02,9.94c1.71,1.54,1.63,3.45,0.93,5.19C231.85,290.06,230.86,292.24,229.36,294.32z"/>
		<path class="st3" d="M251.72,400.34c-0.24,5.25-2.4,9.5-4.97,10.06c-0.39,0.12-0.82,0.19-1.29,0.19
			c-5.75,0.04-16.8-3.03-22.8-8.03c-3.4-2.83-3.77-3.86-3.22-4.97c0.17-1.11,1.12-2.54,3.87-4.2c6.69-4.05,18.2-4.56,23.88-3.66
			c2.27,0.36,3.25,2,3.6,3.85C251.48,395.41,251.84,397.78,251.72,400.34z"/>
		<path class="st3" d="M349.24,317.39c-5.04,1.49-9.76,0.84-11.13-1.4c-0.24-0.33-0.45-0.71-0.61-1.16
			c-1.92-5.42-2.63-16.86,0.12-24.18c1.56-4.14,2.42-4.82,3.64-4.66c1.1-0.2,2.77,0.23,5.24,2.28c6.02,4.99,10.26,15.71,11.28,21.37
			c0.41,2.27-0.83,3.73-2.46,4.67C353.82,315.55,351.7,316.66,349.24,317.39z"/>
		<path class="st3" d="M383.03,325.21c-4.01-3.4-6.06-7.7-4.93-10.07c0.14-0.38,0.35-0.76,0.64-1.14
			c3.48-4.58,12.66-11.45,20.29-13.15c4.31-0.96,5.36-0.62,5.9,0.49c0.77,0.81,1.33,2.44,0.97,5.63
			c-0.88,7.77-7.51,17.2-11.68,21.15c-1.67,1.58-3.57,1.35-5.25,0.5C387.07,328.03,384.98,326.87,383.03,325.21z"/>
		<path class="st3" d="M370.38,308.59c-5.23-0.54-9.35-2.93-9.76-5.52c-0.1-0.39-0.14-0.82-0.12-1.3c0.29-5.74,3.97-16.6,9.3-22.32
			c3.01-3.23,4.07-3.54,5.14-2.93c1.1,0.23,2.47,1.26,3.98,4.1c3.67,6.9,3.53,18.43,2.32,24.05c-0.48,2.25-2.18,3.13-4.05,3.38
			C375.31,308.63,372.93,308.85,370.38,308.59z"/>
		<path class="st3" d="M411.95,341.11c-2.98-4.34-3.82-9.02-2.11-11.02c0.24-0.33,0.54-0.64,0.91-0.93
			c4.56-3.5,15.22-7.72,23.03-7.36c4.42,0.2,5.33,0.81,5.56,2.02c0.53,0.99,0.64,2.7-0.55,5.69c-2.89,7.26-11.76,14.62-16.83,17.33
			c-2.03,1.09-3.8,0.36-5.2-0.89C415.11,344.9,413.4,343.23,411.95,341.11z"/>
		<path class="st3" d="M418.08,316.89c-4.79-2.16-7.95-5.73-7.52-8.32c0.03-0.4,0.12-0.83,0.3-1.27c2.08-5.36,9-14.5,15.86-18.24
			c3.88-2.12,4.98-2.08,5.8-1.16c0.97,0.57,1.95,1.98,2.48,5.15c1.3,7.71-2.47,18.6-5.39,23.55c-1.17,1.98-3.06,2.28-4.91,1.93
			C422.75,318.48,420.42,317.94,418.08,316.89z"/>
		<path class="st3" d="M422.92,360.21c-1.47-5.05-0.8-9.77,1.45-11.12c0.33-0.24,0.71-0.44,1.16-0.6
			c5.43-1.89,16.87-2.56,24.18,0.24c4.13,1.58,4.81,2.44,4.65,3.66c0.2,1.1-0.24,2.77-2.3,5.23c-5.02,5.99-15.75,10.19-21.42,11.18
			c-2.27,0.4-3.72-0.85-4.65-2.48C424.74,364.8,423.64,362.67,422.92,360.21z"/>
		<path class="st3" d="M291.82,369.7c2.62-4.56,3.1-9.3,1.23-11.15c-0.26-0.31-0.58-0.6-0.98-0.86c-4.82-3.13-15.78-6.5-23.54-5.52
			c-4.39,0.55-5.25,1.22-5.38,2.45c-0.45,1.03-0.42,2.74,0.99,5.63c3.45,7.01,12.88,13.65,18.14,15.95c2.11,0.92,3.82,0.06,5.11-1.3
			C288.97,373.72,290.54,371.92,291.82,369.7z"/>
		<path class="st3" d="M361.45,345.14c-5.2-0.75-9.22-3.31-9.53-5.92c-0.08-0.4-0.11-0.83-0.07-1.31
			c0.52-5.73,4.65-16.42,10.21-21.92c3.14-3.11,4.21-3.37,5.26-2.72c1.09,0.28,2.42,1.36,3.81,4.26c3.38,7.05,2.77,18.56,1.33,24.12
			c-0.58,2.23-2.31,3.04-4.18,3.21C366.37,345.38,363.98,345.5,361.45,345.14z"/>
		<path class="st3" d="M379.96,356.87c-3.49-3.94-4.9-8.48-3.45-10.67c0.2-0.36,0.45-0.7,0.79-1.04c4.1-4.04,14.15-9.54,21.95-10.15
			c4.41-0.34,5.39,0.14,5.77,1.32c0.65,0.91,0.97,2.6,0.16,5.71c-1.97,7.57-9.87,15.96-14.56,19.28c-1.88,1.33-3.73,0.83-5.27-0.25
			C383.57,360.24,381.66,358.79,379.96,356.87z"/>
		<path class="st3" d="M287.31,437.48c3.49,3.94,4.9,8.48,3.45,10.67c-0.2,0.36-0.45,0.7-0.79,1.04
			c-4.1,4.04-14.15,9.54-21.95,10.15c-4.41,0.34-5.39-0.14-5.77-1.32c-0.65-0.91-0.97-2.6-0.16-5.71
			c1.97-7.57,9.87-15.96,14.56-19.28c1.88-1.33,3.73-0.83,5.27,0.25C283.71,434.11,285.61,435.56,287.31,437.48z"/>
		<path class="st3" d="M282.23,415.56c-0.14-5.26-2.21-9.55-4.76-10.15c-0.39-0.13-0.81-0.21-1.29-0.22
			c-5.75-0.15-16.85,2.69-22.96,7.57c-3.45,2.76-3.84,3.78-3.31,4.9c0.15,1.11,1.07,2.56,3.78,4.28c6.6,4.18,18.11,4.92,23.8,4.14
			c2.28-0.31,3.29-1.94,3.68-3.78C281.9,420.48,282.3,418.13,282.23,415.56z"/>
		<path class="st3" d="M339.33,439.99c4.71,2.33,7.74,6.01,7.22,8.59c-0.05,0.4-0.15,0.82-0.34,1.26
			c-2.27,5.28-9.52,14.17-16.51,17.66c-3.95,1.98-5.05,1.9-5.84,0.95c-0.95-0.6-1.88-2.05-2.3-5.23c-1.03-7.75,3.13-18.5,6.23-23.34
			c1.24-1.94,3.14-2.17,4.97-1.76C334.73,438.24,337.03,438.86,339.33,439.99z"/>
	</g>
	<g class="st2">
		<path class="st3" d="M387.6,800.39c-4.09,3.31-6.23,7.56-5.15,9.96c0.13,0.38,0.33,0.77,0.61,1.16
			c3.38,4.65,12.4,11.73,19.99,13.6c4.29,1.06,5.34,0.74,5.91-0.35c0.79-0.79,1.38-2.41,1.09-5.61c-0.7-7.79-7.12-17.36-11.21-21.41
			c-1.64-1.62-3.54-1.43-5.24-0.62C391.71,797.67,389.59,798.78,387.6,800.39z"/>
		<path class="st3" d="M370.84,832.34c-5.21,0.74-9.23,3.3-9.54,5.9c-0.08,0.4-0.11,0.83-0.07,1.31
			c0.51,5.73,4.62,16.43,10.17,21.93c3.14,3.11,4.2,3.38,5.25,2.73c1.09-0.28,2.42-1.36,3.82-4.25c3.39-7.04,2.8-18.55,1.37-24.12
			c-0.57-2.23-2.3-3.04-4.18-3.22C375.77,832.11,373.38,831.98,370.84,832.34z"/>
		<path class="st3" d="M338.07,820.85c-3.34-4.06-7.6-6.18-9.99-5.09c-0.38,0.14-0.77,0.33-1.15,0.62
			c-4.63,3.41-11.65,12.47-13.48,20.07c-1.03,4.3-0.71,5.35,0.39,5.9c0.8,0.79,2.42,1.37,5.62,1.06
			c7.78-0.75,17.31-7.23,21.33-11.34c1.61-1.65,1.41-3.55,0.59-5.24C340.83,824.94,339.7,822.83,338.07,820.85z"/>
		<path class="st3" d="M339.54,793.42c0.52-5.23-1.01-9.75-3.47-10.67c-0.37-0.17-0.78-0.31-1.25-0.38
			c-5.69-0.86-17.06,0.58-23.72,4.66c-3.77,2.31-4.28,3.28-3.9,4.45c0.01,1.12,0.74,2.68,3.22,4.72c6.03,4.97,17.35,7.13,23.11,7.07
			c2.3-0.03,3.5-1.51,4.12-3.29C338.6,798.26,339.29,795.97,339.54,793.42z"/>
		<path class="st3" d="M311.12,814.13c0.52-5.23-1.01-9.75-3.47-10.67c-0.37-0.17-0.78-0.31-1.25-0.38
			c-5.69-0.86-17.06,0.58-23.72,4.66c-3.77,2.31-4.28,3.28-3.9,4.45c0.01,1.12,0.74,2.68,3.22,4.72c6.03,4.97,17.35,7.13,23.11,7.07
			c2.3-0.03,3.5-1.51,4.12-3.29C310.17,818.97,310.87,816.68,311.12,814.13z"/>
		<path class="st3" d="M345.79,852.21c-4.85-2.03-9.61-1.91-11.21,0.17c-0.27,0.3-0.52,0.65-0.73,1.08
			c-2.5,5.18-4.47,16.47-2.53,24.05c1.1,4.28,1.87,5.06,3.11,5.04c1.07,0.32,2.78,0.08,5.46-1.69c6.53-4.3,11.93-14.49,13.56-20
			c0.65-2.21-0.42-3.8-1.93-4.91C350.14,854.54,348.16,853.2,345.79,852.21z"/>
		<path class="st3" d="M328.65,769.23c4.88-1.97,8.17-5.41,7.85-8.01c-0.02-0.41-0.09-0.83-0.24-1.28
			c-1.87-5.44-8.41-14.85-15.12-18.87c-3.79-2.27-4.89-2.28-5.75-1.39c-0.99,0.53-2.03,1.9-2.69,5.04
			c-1.61,7.65,1.72,18.68,4.44,23.75c1.09,2.03,2.97,2.4,4.82,2.13C323.92,770.63,326.27,770.19,328.65,769.23z"/>
		<path class="st3" d="M399.6,840.9c-3.85,3.58-5.7,7.97-4.46,10.29c0.16,0.37,0.38,0.74,0.69,1.11
			c3.69,4.41,13.17,10.86,20.87,12.21c4.35,0.76,5.38,0.38,5.87-0.76c0.74-0.85,1.21-2.5,0.71-5.67
			c-1.23-7.72-8.29-16.83-12.64-20.59c-1.74-1.5-3.63-1.18-5.27-0.26C403.51,837.9,401.48,839.16,399.6,840.9z"/>
		<path class="st3" d="M315.23,854.82c-4.43-2.83-9.14-3.52-11.08-1.74c-0.32,0.25-0.63,0.56-0.9,0.94
			c-3.35,4.68-7.21,15.47-6.59,23.26c0.35,4.41,0.98,5.3,2.2,5.49c1,0.5,2.72,0.55,5.67-0.74c7.17-3.13,14.22-12.24,16.77-17.4
			c1.02-2.06,0.24-3.81-1.07-5.17C319.12,857.86,317.39,856.2,315.23,854.82z"/>
		<path class="st3" d="M323.52,885.14c-4.05-3.36-8.64-4.63-10.78-3.11c-0.35,0.21-0.69,0.47-1.01,0.83
			c-3.9,4.22-9.08,14.45-9.43,22.26c-0.2,4.42,0.32,5.39,1.5,5.72c0.93,0.62,2.63,0.88,5.71-0.03c7.5-2.21,15.63-10.38,18.8-15.18
			c1.27-1.92,0.71-3.75-0.42-5.26C327,888.64,325.49,886.78,323.52,885.14z"/>
		<path class="st3" d="M287.42,861.99c-3.23-4.15-7.45-6.37-9.86-5.34c-0.39,0.13-0.78,0.32-1.17,0.59
			c-4.72,3.29-11.96,12.18-13.98,19.73c-1.14,4.27-0.84,5.33,0.24,5.91c0.78,0.81,2.38,1.43,5.59,1.2
			c7.8-0.56,17.49-6.79,21.61-10.8c1.65-1.6,1.5-3.51,0.72-5.22C290.07,866.15,289,864.01,287.42,861.99z"/>
		<path class="st3" d="M272.56,822.54c-0.87-5.19-3.52-9.14-6.14-9.39c-0.4-0.07-0.83-0.09-1.31-0.04
			c-5.71,0.65-16.31,5.03-21.68,10.71c-3.03,3.22-3.28,4.29-2.6,5.32c0.3,1.08,1.42,2.39,4.35,3.71c7.12,3.22,18.62,2.34,24.15,0.77
			c2.21-0.63,2.99-2.38,3.12-4.25C272.91,827.46,272.98,825.07,272.56,822.54z"/>
		<path class="st3" d="M349.21,934.13c-4.88-1.96-9.64-1.77-11.21,0.33c-0.27,0.3-0.51,0.66-0.71,1.1
			c-2.43,5.21-4.23,16.53-2.19,24.08c1.16,4.27,1.94,5.03,3.18,4.99c1.08,0.31,2.78,0.04,5.43-1.77
			c6.47-4.39,11.72-14.65,13.27-20.19c0.62-2.22-0.47-3.79-2-4.88C353.59,936.39,351.59,935.08,349.21,934.13z"/>
		<path class="st3" d="M321.26,919.01c-3.78-3.65-8.26-5.26-10.51-3.91c-0.36,0.18-0.72,0.42-1.07,0.75
			c-4.21,3.92-10.14,13.73-11.08,21.49c-0.53,4.39-0.09,5.39,1.07,5.82c0.88,0.69,2.56,1.08,5.7,0.4
			c7.64-1.64,16.37-9.17,19.89-13.72c1.41-1.82,0.99-3.69-0.02-5.27C324.47,922.75,323.1,920.79,321.26,919.01z"/>
		<path class="st3" d="M291.07,892.47c-3.78-3.65-8.26-5.26-10.51-3.91c-0.36,0.18-0.72,0.42-1.07,0.75
			c-4.21,3.92-10.14,13.73-11.08,21.49c-0.53,4.39-0.09,5.39,1.07,5.82c0.88,0.69,2.56,1.08,5.7,0.4
			c7.64-1.64,16.37-9.17,19.89-13.72c1.41-1.82,0.99-3.69-0.02-5.27C294.27,896.22,292.91,894.25,291.07,892.47z"/>
		<path class="st3" d="M260.81,851.09c-1.88-4.91-5.27-8.26-7.88-7.98c-0.41,0.01-0.83,0.08-1.29,0.22
			c-5.47,1.77-14.99,8.16-19.12,14.8c-2.34,3.75-2.36,4.85-1.49,5.73c0.51,1,1.86,2.06,5,2.77c7.62,1.74,18.71-1.4,23.82-4.03
			c2.05-1.05,2.45-2.92,2.21-4.79C262.13,855.84,261.73,853.48,260.81,851.09z"/>
		<path class="st3" d="M276.97,770.29c3.93-3.49,5.88-7.83,4.71-10.18c-0.15-0.38-0.36-0.75-0.66-1.13
			c-3.58-4.5-12.91-11.17-20.57-12.7c-4.33-0.87-5.37-0.51-5.88,0.62c-0.76,0.83-1.27,2.47-0.84,5.65
			c1.05,7.75,7.88,17.03,12.15,20.89c1.71,1.55,3.6,1.27,5.26,0.39C272.99,773.2,275.05,771.99,276.97,770.29z"/>
		<path class="st3" d="M250.73,776.17c3.36-4.05,4.62-8.64,3.1-10.78c-0.21-0.35-0.47-0.69-0.83-1.01
			c-4.23-3.9-14.46-9.07-22.27-9.41c-4.42-0.2-5.38,0.32-5.72,1.51c-0.62,0.93-0.88,2.63,0.03,5.71
			c2.22,7.5,10.39,15.62,15.19,18.79c1.92,1.27,3.75,0.71,5.26-0.42C247.24,779.66,249.09,778.15,250.73,776.17z"/>
		<path class="st3" d="M238.73,835.38c-1.61-5.01-4.8-8.54-7.42-8.41c-0.41-0.01-0.84,0.03-1.3,0.15
			c-5.56,1.46-15.42,7.31-19.92,13.7c-2.54,3.62-2.63,4.71-1.81,5.63c0.45,1.03,1.75,2.16,4.83,3.05
			c7.51,2.17,18.76-0.35,24.01-2.69c2.1-0.94,2.61-2.78,2.48-4.66C239.79,840.19,239.51,837.82,238.73,835.38z"/>
		<path class="st3" d="M233.77,813.76c-0.51-5.23-2.87-9.37-5.46-9.8c-0.39-0.1-0.82-0.15-1.3-0.13
			c-5.75,0.25-16.62,3.87-22.38,9.16c-3.25,2.99-3.57,4.04-2.96,5.12c0.23,1.1,1.25,2.48,4.08,4.01c6.88,3.71,18.41,3.64,24.04,2.47
			c2.25-0.47,3.15-2.16,3.41-4.02C233.78,818.69,234.02,816.31,233.77,813.76z"/>
		<path class="st3" d="M226.66,789.81c1.81-4.94,1.46-9.69-0.69-11.2c-0.31-0.26-0.68-0.49-1.12-0.68
			c-5.29-2.26-16.66-3.7-24.14-1.41c-4.23,1.29-4.97,2.1-4.89,3.34c-0.27,1.09,0.05,2.78,1.94,5.37
			c4.6,6.32,15.02,11.24,20.61,12.62c2.23,0.55,3.77-0.59,4.81-2.16C224.53,794.26,225.78,792.22,226.66,789.81z"/>
		<path class="st3" d="M252.49,876.7c-3.56-3.87-7.94-5.74-10.26-4.52c-0.37,0.16-0.75,0.38-1.12,0.68
			c-4.43,3.66-10.93,13.11-12.33,20.8c-0.79,4.35-0.41,5.38,0.72,5.87c0.84,0.74,2.49,1.23,5.67,0.74
			c7.73-1.19,16.88-8.19,20.66-12.52c1.51-1.73,1.2-3.62,0.29-5.27C255.47,880.63,254.22,878.59,252.49,876.7z"/>
		<path class="st3" d="M257.52,905.08c-3.56-3.87-7.94-5.74-10.26-4.52c-0.37,0.16-0.75,0.38-1.12,0.68
			c-4.43,3.66-10.93,13.11-12.33,20.8c-0.79,4.35-0.41,5.38,0.72,5.87c0.84,0.74,2.49,1.23,5.67,0.74
			c7.73-1.19,16.88-8.19,20.66-12.52c1.51-1.73,1.2-3.62,0.29-5.27C260.5,909.01,259.25,906.97,257.52,905.08z"/>
		<path class="st3" d="M284.34,925.96c-4.54-2.66-9.27-3.17-11.14-1.32c-0.31,0.26-0.6,0.58-0.87,0.98
			c-3.17,4.8-6.62,15.73-5.71,23.49c0.52,4.39,1.18,5.26,2.41,5.4c1.02,0.46,2.74,0.45,5.63-0.95c7.04-3.39,13.75-12.77,16.1-18.02
			c0.94-2.1,0.09-3.82-1.26-5.12C288.34,928.85,286.55,927.26,284.34,925.96z"/>
		<path class="st3" d="M320.43,951.19c-4.54-2.66-9.27-3.17-11.14-1.32c-0.31,0.26-0.6,0.58-0.87,0.98
			c-3.17,4.8-6.62,15.73-5.71,23.49c0.52,4.39,1.18,5.26,2.41,5.4c1.02,0.46,2.74,0.45,5.63-0.95c7.04-3.39,13.75-12.77,16.1-18.02
			c0.94-2.1,0.09-3.82-1.26-5.12C324.43,954.08,322.64,952.49,320.43,951.19z"/>
		<path class="st3" d="M226.23,865.35c-2.33-4.71-6.01-7.74-8.59-7.22c-0.4,0.05-0.82,0.15-1.26,0.34
			c-5.28,2.28-14.17,9.52-17.66,16.51c-1.98,3.95-1.9,5.05-0.95,5.84c0.6,0.95,2.05,1.88,5.23,2.3c7.75,1.02,18.5-3.13,23.34-6.23
			c1.94-1.24,2.17-3.14,1.76-4.97C227.99,869.95,227.37,867.65,226.23,865.35z"/>
		<path class="st3" d="M224.77,900.73c-2.33-4.71-6.01-7.74-8.59-7.22c-0.4,0.05-0.82,0.15-1.26,0.34
			c-5.28,2.28-14.17,9.52-17.66,16.51c-1.98,3.95-1.9,5.05-0.95,5.84c0.6,0.95,2.05,1.88,5.23,2.3c7.75,1.02,18.5-3.13,23.34-6.23
			c1.94-1.24,2.17-3.14,1.76-4.97C226.53,905.33,225.9,903.03,224.77,900.73z"/>
		<path class="st3" d="M264.04,799.75c0.61-5.22-0.83-9.76-3.27-10.73c-0.36-0.18-0.77-0.32-1.24-0.4
			c-5.67-0.97-17.07,0.26-23.81,4.22c-3.81,2.24-4.34,3.2-3.98,4.38c-0.01,1.12,0.69,2.69,3.14,4.78
			c5.94,5.08,17.22,7.45,22.97,7.49c2.3,0.02,3.53-1.45,4.18-3.21C263.01,804.57,263.74,802.29,264.04,799.75z"/>
		<path class="st3" d="M346.8,897.43c-4.73-2.29-9.5-2.42-11.21-0.43c-0.29,0.28-0.56,0.63-0.79,1.04
			c-2.77,5.04-5.34,16.21-3.8,23.88c0.87,4.34,1.6,5.15,2.83,5.19c1.06,0.38,2.77,0.22,5.54-1.4c6.75-3.95,12.68-13.83,14.6-19.25
			c0.77-2.17-0.21-3.81-1.67-5C351.02,899.99,349.11,898.55,346.8,897.43z"/>
		<path class="st3" d="M381.41,895.2c-4.51,2.7-7.23,6.62-6.5,9.14c0.08,0.4,0.22,0.81,0.44,1.23c2.69,5.08,10.63,13.35,17.88,16.27
			c4.1,1.65,5.19,1.49,5.9,0.48c0.9-0.68,1.7-2.19,1.87-5.4c0.4-7.81-4.61-18.19-8.09-22.77c-1.39-1.83-3.3-1.91-5.1-1.35
			C385.86,893.07,383.6,893.88,381.41,895.2z"/>
		<path class="st3" d="M366.23,909.55c-5.25-0.32-9.7,1.37-10.53,3.86c-0.16,0.37-0.28,0.79-0.33,1.26
			c-0.65,5.71,1.22,17.02,5.55,23.53c2.45,3.68,3.44,4.16,4.59,3.73c1.12-0.05,2.65-0.84,4.59-3.4c4.74-6.22,6.47-17.61,6.19-23.35
			c-0.11-2.3-1.65-3.45-3.44-4C371.1,910.31,368.79,909.7,366.23,909.55z"/>
		<path class="st3" d="M412.53,884.2c-3.64,3.8-5.23,8.28-3.87,10.53c0.18,0.36,0.42,0.72,0.75,1.07c3.93,4.19,13.77,10.09,21.53,11
			c4.39,0.52,5.39,0.07,5.82-1.09c0.69-0.89,1.07-2.56,0.38-5.7c-1.67-7.64-9.23-16.33-13.79-19.84c-1.83-1.4-3.69-0.98-5.27,0.04
			C416.26,880.98,414.31,882.35,412.53,884.2z"/>
		<path class="st3" d="M414.65,909.1c-5.08,1.35-8.77,4.36-8.77,6.99c-0.03,0.4-0.01,0.84,0.09,1.3
			c1.19,5.63,6.53,15.77,12.69,20.58c3.49,2.72,4.57,2.86,5.54,2.09c1.05-0.4,2.24-1.64,3.29-4.67c2.54-7.39,0.59-18.75-1.49-24.12
			c-0.83-2.15-2.65-2.75-4.53-2.71C419.51,908.29,417.13,908.44,414.65,909.1z"/>
		<path class="st3" d="M426.46,867.14c-2.27,4.75-2.37,9.51-0.37,11.21c0.29,0.29,0.63,0.55,1.05,0.78
			c5.05,2.75,16.24,5.26,23.89,3.69c4.33-0.89,5.14-1.62,5.18-2.86c0.37-1.06,0.21-2.77-1.43-5.53
			c-3.98-6.73-13.89-12.61-19.32-14.51c-2.17-0.76-3.81,0.23-5,1.69C428.99,862.91,427.56,864.83,426.46,867.14z"/>
		<path class="st3" d="M298.64,836.49c1.85,4.92,1.54,9.68-0.59,11.2c-0.31,0.26-0.67,0.5-1.11,0.69
			c-5.27,2.3-16.63,3.85-24.12,1.63c-4.24-1.26-4.99-2.06-4.92-3.29c-0.28-1.09,0.03-2.78,1.9-5.39
			c4.54-6.36,14.92-11.37,20.49-12.8c2.23-0.57,3.78,0.56,4.83,2.11C296.47,832.06,297.74,834.09,298.64,836.49z"/>
		<path class="st3" d="M363.35,872.03c-5.26-0.1-9.64,1.77-10.36,4.29c-0.14,0.38-0.24,0.8-0.28,1.28
			c-0.41,5.74,1.92,16.96,6.51,23.28c2.6,3.58,3.61,4.01,4.74,3.53c1.12-0.1,2.61-0.95,4.45-3.59c4.48-6.41,5.74-17.86,5.23-23.59
			c-0.21-2.29-1.79-3.37-3.6-3.85C368.25,872.59,365.91,872.08,363.35,872.03z"/>
		<path class="st3" d="M383.53,863.46c-4.08,3.32-6.22,7.57-5.14,9.97c0.13,0.38,0.33,0.77,0.61,1.15
			c3.39,4.65,12.41,11.71,20.01,13.58c4.29,1.05,5.34,0.74,5.91-0.36c0.79-0.8,1.38-2.41,1.08-5.61
			c-0.71-7.79-7.14-17.35-11.24-21.39c-1.64-1.62-3.54-1.42-5.24-0.61C387.63,860.73,385.51,861.84,383.53,863.46z"/>
		<path class="st3" d="M305.2,768.88c4.08-3.32,6.22-7.57,5.14-9.97c-0.13-0.38-0.33-0.77-0.61-1.15
			c-3.39-4.65-12.41-11.71-20.01-13.58c-4.29-1.05-5.34-0.74-5.91,0.36c-0.79,0.8-1.38,2.41-1.08,5.61
			c0.71,7.79,7.14,17.35,11.24,21.39c1.64,1.62,3.54,1.42,5.24,0.61C301.09,771.61,303.21,770.5,305.2,768.88z"/>
		<path class="st3" d="M296.62,789.68c-0.99,5.16-3.73,9.06-6.35,9.25c-0.4,0.06-0.83,0.07-1.31,0.01
			c-5.7-0.78-16.19-5.39-21.43-11.2c-2.96-3.28-3.18-4.36-2.47-5.37c0.33-1.07,1.47-2.35,4.43-3.61c7.2-3.06,18.66-1.92,24.16-0.22
			c2.2,0.68,2.93,2.45,3.02,4.32C297.09,784.77,297.11,787.16,296.62,789.68z"/>
		<path class="st3" d="M356.93,774.84c5.03-1.54,8.61-4.68,8.52-7.3c0.02-0.41-0.02-0.84-0.13-1.3
			c-1.39-5.58-7.09-15.52-13.42-20.11c-3.58-2.59-4.67-2.69-5.61-1.89c-1.03,0.44-2.18,1.71-3.12,4.79
			c-2.27,7.48,0.09,18.76,2.36,24.05c0.91,2.11,2.75,2.65,4.62,2.54C352.1,775.83,354.48,775.59,356.93,774.84z"/>
	</g>
	<g>
		<path class="st1" d="M664.61,686.49c5.03-4.43,10.83-6.21,13.61-4.35c0.45,0.25,0.9,0.58,1.32,1.01
			c5.12,5.24,12.09,18.07,12.83,28.01c0.42,5.62-0.2,6.87-1.7,7.34c-1.17,0.83-3.32,1.22-7.28,0.18
			c-9.63-2.54-20.29-12.64-24.5-18.64c-1.69-2.4-1.04-4.75,0.34-6.71C660.31,691.06,662.16,688.64,664.61,686.49z"/>
		<path class="st1" d="M708.31,672.25c2.05-6.38,6.11-10.89,9.45-10.72c0.52-0.02,1.07,0.04,1.65,0.19
			c7.08,1.87,19.65,9.31,25.38,17.46c3.24,4.61,3.35,6,2.3,7.18c-0.58,1.31-2.22,2.75-6.16,3.89c-9.57,2.76-23.9-0.44-30.59-3.43
			c-2.68-1.19-3.33-3.54-3.15-5.93C706.96,678.38,707.31,675.36,708.31,672.25z"/>
		<path class="st1" d="M700.86,628.64c-4.39-5.06-6.14-10.87-4.26-13.64c0.25-0.45,0.58-0.89,1.02-1.32
			c5.27-5.09,18.15-11.97,28.09-12.65c5.62-0.38,6.87,0.25,7.33,1.75c0.82,1.17,1.2,3.33,0.13,7.28
			c-2.6,9.61-12.77,20.21-18.8,24.38c-2.41,1.67-4.76,1.01-6.71-0.38C705.41,632.97,703.01,631.11,700.86,628.64z"/>
		<path class="st1" d="M666.1,624.63c-6.68-0.47-12.03-3.34-12.66-6.63c-0.14-0.5-0.22-1.04-0.21-1.65
			c0.13-7.33,4.37-21.3,10.92-28.8c3.7-4.24,5.03-4.68,6.42-3.95c1.41,0.25,3.2,1.51,5.24,5.06c4.96,8.64,5.26,23.32,3.95,30.53
			c-0.52,2.89-2.65,4.08-5.01,4.48C672.38,624.48,669.36,624.86,666.1,624.63z"/>
		<path class="st1" d="M698.17,593.35c-6.68-0.47-12.03-3.34-12.66-6.63c-0.14-0.5-0.22-1.04-0.21-1.65
			c0.13-7.33,4.37-21.3,10.92-28.8c3.7-4.24,5.03-4.68,6.42-3.95c1.41,0.25,3.2,1.51,5.24,5.06c4.96,8.64,5.26,23.32,3.95,30.53
			c-0.52,2.89-2.65,4.08-5.01,4.48C704.45,593.2,701.43,593.58,698.17,593.35z"/>
		<path class="st1" d="M738.61,645.03c-1.52-6.53-0.35-12.48,2.61-14.05c0.43-0.28,0.93-0.52,1.52-0.68
			c7.04-2.04,21.64-2.1,30.74,1.95c5.15,2.29,5.96,3.43,5.66,4.98c0.18,1.42-0.5,3.5-3.29,6.49c-6.8,7.28-20.74,11.89-28.01,12.76
			c-2.91,0.35-4.68-1.33-5.75-3.47C740.6,650.98,739.35,648.21,738.61,645.03z"/>
		<path class="st1" d="M638.03,605.79c-3.51,5.71-8.53,9.11-11.74,8.15c-0.51-0.11-1.03-0.29-1.56-0.58
			c-6.43-3.5-16.86-13.73-20.47-23.01c-2.05-5.25-1.82-6.63-0.52-7.52c0.87-1.13,2.82-2.14,6.91-2.3
			c9.95-0.39,23.1,6.14,28.89,10.64c2.31,1.8,2.39,4.24,1.65,6.51C640.8,600.16,639.74,603.01,638.03,605.79z"/>
		<path class="st1" d="M712.93,710.2c5.32-4.07,11.23-5.45,13.88-3.41c0.43,0.28,0.85,0.64,1.25,1.1
			c4.75,5.57,10.83,18.86,10.88,28.82c0.03,5.63-0.67,6.84-2.2,7.21c-1.22,0.74-3.4,0.99-7.27-0.32c-9.43-3.19-19.38-14-23.17-20.27
			c-1.52-2.51-0.71-4.81,0.79-6.67C708.33,714.47,710.34,712.19,712.93,710.2z"/>
		<path class="st1" d="M748.41,607.2c-2.61-6.17-2.47-12.24,0.17-14.29c0.38-0.35,0.83-0.67,1.38-0.93
			c6.59-3.21,20.97-5.76,30.62-3.32c5.46,1.38,6.45,2.36,6.43,3.94c0.42,1.37,0.11,3.54-2.13,6.96
			c-5.45,8.33-18.41,15.25-25.43,17.35c-2.81,0.84-4.84-0.51-6.26-2.44C751.39,612.72,749.68,610.2,748.41,607.2z"/>
		<path class="st1" d="M784.72,624.07c-3.36-5.8-3.97-11.84-1.6-14.2c0.33-0.4,0.74-0.77,1.25-1.1c6.14-4,20.09-8.32,29.97-7.1
			c5.59,0.69,6.7,1.54,6.87,3.11c0.58,1.31,0.55,3.49-1.25,7.17c-4.38,8.95-16.37,17.42-23.07,20.38c-2.68,1.18-4.86,0.09-6.51-1.64
			C788.37,629.19,786.36,626.9,784.72,624.07z"/>
		<path class="st1" d="M763.34,573.79c-4.52-4.95-6.41-10.71-4.61-13.53c0.24-0.46,0.56-0.91,0.99-1.34
			c5.14-5.22,17.84-12.43,27.76-13.35c5.61-0.52,6.87,0.08,7.37,1.57c0.85,1.15,1.28,3.3,0.31,7.27
			c-2.36,9.68-12.26,20.52-18.18,24.84c-2.37,1.73-4.73,1.13-6.72-0.21C768,578.01,765.55,576.2,763.34,573.79z"/>
		<path class="st1" d="M716.96,546.71c-6.33-2.2-10.73-6.38-10.48-9.71c0-0.52,0.06-1.06,0.23-1.65
			c2.04-7.04,9.79-19.42,18.08-24.94c4.69-3.13,6.08-3.2,7.23-2.13c1.29,0.61,2.7,2.29,3.73,6.25c2.52,9.63-1.03,23.88-4.18,30.5
			c-1.26,2.65-3.63,3.24-6.01,3.01C723.06,548.2,720.05,547.78,716.96,546.71z"/>
		<path class="st1" d="M840.77,666.79c-1.43-6.55-0.17-12.48,2.81-14.01c0.44-0.27,0.94-0.5,1.53-0.66
			c7.07-1.94,21.67-1.79,30.71,2.39c5.11,2.36,5.91,3.51,5.59,5.06c0.16,1.42-0.55,3.5-3.38,6.45c-6.9,7.18-20.91,11.59-28.19,12.36
			c-2.92,0.31-4.66-1.4-5.7-3.55C842.68,672.77,841.46,669.98,840.77,666.79z"/>
		<path class="st1" d="M827.74,628.46c-3.78-5.53-4.85-11.5-2.67-14.04c0.3-0.42,0.68-0.82,1.17-1.19
			c5.82-4.45,19.41-9.81,29.36-9.33c5.63,0.27,6.79,1.04,7.08,2.58c0.68,1.26,0.81,3.44-0.71,7.25
			c-3.69,9.25-15.01,18.6-21.48,22.05c-2.59,1.38-4.84,0.46-6.62-1.15C831.76,633.28,829.58,631.15,827.74,628.46z"/>
		<path class="st1" d="M800.85,584.87c-3.78-5.53-4.85-11.5-2.67-14.04c0.3-0.42,0.68-0.82,1.17-1.19
			c5.82-4.45,19.41-9.81,29.36-9.33c5.63,0.27,6.79,1.04,7.08,2.58c0.68,1.26,0.81,3.44-0.71,7.25
			c-3.69,9.25-15.01,18.6-21.48,22.05c-2.59,1.38-4.84,0.46-6.62-1.15C804.87,589.7,802.69,587.57,800.85,584.87z"/>
		<path class="st1" d="M755.32,538.04c-5.77-3.41-9.25-8.38-8.35-11.6c0.1-0.51,0.27-1.03,0.55-1.57
			c3.39-6.49,13.45-17.09,22.66-20.86c5.21-2.13,6.6-1.93,7.51-0.65c1.15,0.85,2.19,2.78,2.42,6.87c0.56,9.94-5.75,23.2-10.14,29.06
			c-1.76,2.35-4.2,2.46-6.49,1.76C761.01,540.72,758.13,539.71,755.32,538.04z"/>
		<path class="st1" d="M650.39,541.11c-5.22,4.2-11.09,5.72-13.79,3.74c-0.44-0.27-0.87-0.62-1.28-1.07
			c-4.89-5.46-11.27-18.59-11.57-28.55c-0.17-5.63,0.51-6.85,2.03-7.26c1.2-0.77,3.37-1.07,7.28,0.15
			c9.51,2.97,19.7,13.53,23.64,19.71c1.58,2.47,0.83,4.79-0.63,6.69C654.89,536.73,652.94,539.07,650.39,541.11z"/>
		<path class="st1" d="M663.38,509.41c-5.8,3.35-11.84,3.96-14.2,1.59c-0.39-0.33-0.76-0.74-1.1-1.25c-4-6.14-8.3-20.1-7.08-29.98
			c0.69-5.59,1.55-6.7,3.11-6.86c1.31-0.58,3.5-0.54,7.17,1.26c8.94,4.38,17.41,16.38,20.36,23.09c1.18,2.68,0.09,4.86-1.65,6.51
			C668.49,505.76,666.2,507.77,663.38,509.41z"/>
		<path class="st1" d="M740.3,506.96c-5.95-3.08-9.71-7.85-8.99-11.11c0.07-0.51,0.21-1.04,0.47-1.6
			c3.03-6.67,12.47-17.81,21.46-22.1c5.08-2.42,6.48-2.3,7.46-1.07c1.19,0.79,2.34,2.65,2.8,6.72c1.12,9.9-4.44,23.49-8.5,29.58
			c-1.63,2.44-4.05,2.69-6.38,2.12C746.12,509.31,743.2,508.46,740.3,506.96z"/>
		<path class="st1" d="M714.21,496.12c-6.47-1.75-11.15-5.61-11.14-8.95c-0.04-0.52-0.01-1.07,0.12-1.66
			c1.54-7.16,8.4-20.06,16.28-26.15c4.45-3.45,5.84-3.62,7.06-2.63c1.33,0.52,2.85,2.1,4.16,5.97c3.19,9.43,0.65,23.9-2.03,30.72
			c-1.07,2.73-3.39,3.49-5.78,3.42C720.4,497.18,717.36,496.98,714.21,496.12z"/>
		<path class="st1" d="M685.64,482.08c-6.59,1.22-12.48-0.23-13.91-3.26c-0.26-0.45-0.47-0.96-0.61-1.55
			c-1.71-7.12-1.09-21.72,3.37-30.62c2.53-5.03,3.7-5.79,5.23-5.43c1.43-0.11,3.48,0.66,6.34,3.59
			c6.96,7.13,10.92,21.27,11.45,28.57c0.21,2.92-1.55,4.61-3.73,5.59C691.68,480.36,688.85,481.48,685.64,482.08z"/>
		<path class="st1" d="M789.27,533.05c-4.1-5.3-5.52-11.2-3.49-13.86c0.28-0.44,0.63-0.86,1.09-1.26
			c5.55-4.79,18.8-10.93,28.75-11.05c5.63-0.06,6.84,0.63,7.22,2.16c0.75,1.22,1.01,3.39-0.28,7.27
			c-3.14,9.45-13.89,19.45-20.14,23.28c-2.5,1.53-4.81,0.74-6.68-0.76C793.57,537.63,791.27,535.63,789.27,533.05z"/>
		<path class="st1" d="M823.84,545.42c-4.1-5.3-5.52-11.2-3.49-13.86c0.28-0.44,0.63-0.86,1.09-1.26
			c5.55-4.79,18.8-10.93,28.75-11.05c5.63-0.06,6.84,0.63,7.22,2.16c0.75,1.22,1.01,3.39-0.28,7.27
			c-3.14,9.45-13.89,19.45-20.14,23.28c-2.5,1.53-4.81,0.74-6.68-0.76C828.14,550,825.84,548,823.84,545.42z"/>
		<path class="st1" d="M844.35,583.57c-2.38-6.26-2-12.32,0.71-14.27c0.39-0.34,0.86-0.64,1.41-0.88c6.7-2.96,21.17-4.96,30.73-2.16
			c5.41,1.58,6.36,2.61,6.27,4.18c0.36,1.38-0.02,3.54-2.39,6.88c-5.77,8.12-18.97,14.55-26.06,16.38c-2.84,0.73-4.81-0.7-6.16-2.67
			C847.12,589.2,845.5,586.62,844.35,583.57z"/>
		<path class="st1" d="M868.34,634.28c-2.38-6.26-2-12.32,0.71-14.27c0.39-0.34,0.86-0.64,1.41-0.88c6.7-2.96,21.17-4.96,30.73-2.16
			c5.41,1.58,6.36,2.61,6.27,4.18c0.36,1.38-0.02,3.54-2.39,6.88c-5.77,8.12-18.97,14.55-26.06,16.38c-2.84,0.73-4.81-0.7-6.16-2.67
			C871.11,639.92,869.5,637.33,868.34,634.28z"/>
		<path class="st1" d="M780.61,497.66c-5.42-3.94-8.43-9.2-7.23-12.32c0.15-0.5,0.37-1,0.7-1.51c3.98-6.15,14.98-15.76,24.51-18.66
			c5.39-1.64,6.75-1.31,7.54,0.05c1.06,0.96,1.92,2.97,1.77,7.06c-0.37,9.95-7.88,22.57-12.81,27.99c-1.97,2.17-4.41,2.06-6.62,1.14
			C786.02,500.85,783.25,499.57,780.61,497.66z"/>
		<path class="st1" d="M825.36,503.36c-5.42-3.94-8.43-9.2-7.23-12.32c0.15-0.5,0.37-1,0.7-1.51c3.98-6.15,14.98-15.76,24.51-18.66
			c5.39-1.64,6.75-1.31,7.54,0.05c1.06,0.96,1.92,2.97,1.77,7.06c-0.37,9.95-7.88,22.57-12.81,27.99c-1.97,2.17-4.41,2.06-6.62,1.14
			C830.77,506.55,828,505.28,825.36,503.36z"/>
		<path class="st1" d="M690.15,531.15c-6.69-0.35-12.09-3.12-12.78-6.39c-0.15-0.5-0.24-1.04-0.24-1.65
			c-0.01-7.33,3.97-21.38,10.38-29c3.63-4.31,4.94-4.77,6.35-4.06c1.41,0.22,3.23,1.45,5.33,4.96c5.12,8.55,5.69,23.22,4.51,30.45
			c-0.47,2.89-2.57,4.13-4.93,4.57C696.42,530.88,693.41,531.32,690.15,531.15z"/>
		<path class="st1" d="M795.19,655.94c-1.86-6.44-1.01-12.44,1.86-14.17c0.42-0.3,0.9-0.56,1.48-0.76c6.92-2.41,21.5-3.25,30.8,0.31
			c5.26,2.01,6.13,3.11,5.92,4.67c0.25,1.41-0.31,3.52-2.94,6.66c-6.4,7.63-20.08,12.98-27.29,14.23c-2.89,0.5-4.74-1.08-5.93-3.16
			C797.5,661.78,796.1,659.07,795.19,655.94z"/>
		<path class="st1" d="M785,698.92c4.36-5.09,9.85-7.67,12.87-6.22c0.48,0.18,0.97,0.45,1.45,0.82c5.81,4.47,14.5,16.2,16.63,25.93
			c1.2,5.5,0.76,6.83-0.66,7.51c-1.04,0.98-3.12,1.67-7.18,1.19c-9.89-1.17-21.86-9.68-26.87-15.02c-2.01-2.14-1.7-4.56-0.61-6.69
			C781.39,704.06,782.88,701.4,785,698.92z"/>
		<path class="st1" d="M806.26,682.93c0.72-6.66,3.79-11.89,7.1-12.4c0.5-0.12,1.05-0.18,1.66-0.15c7.32,0.4,21.12,5.16,28.37,11.99
			c4.1,3.86,4.49,5.2,3.7,6.57c-0.3,1.4-1.62,3.14-5.25,5.05c-8.82,4.63-23.5,4.38-30.65,2.8c-2.86-0.63-3.98-2.8-4.28-5.18
			C806.18,689.21,805.91,686.17,806.26,682.93z"/>
		<path class="st1" d="M764.56,735.67c5.54-3.76,11.52-4.81,14.05-2.61c0.42,0.31,0.82,0.69,1.18,1.17
			c4.43,5.84,9.73,19.44,9.22,29.39c-0.29,5.63-1.06,6.79-2.61,7.07c-1.26,0.67-3.45,0.8-7.24-0.74
			c-9.24-3.73-18.55-15.08-21.97-21.56c-1.37-2.59-0.44-4.84,1.17-6.62C759.72,739.68,761.86,737.51,764.56,735.67z"/>
		<path class="st1" d="M795.38,743.64c2.78-6.09,7.35-10.09,10.65-9.53c0.52,0.04,1.05,0.16,1.62,0.39
			c6.82,2.69,18.41,11.56,23.14,20.33c2.67,4.96,2.62,6.35,1.44,7.4c-0.73,1.23-2.53,2.47-6.57,3.13
			c-9.83,1.61-23.68-3.26-29.97-7.02c-2.52-1.5-2.89-3.91-2.43-6.26C793.32,749.58,794.02,746.61,795.38,743.64z"/>
		<path class="st1" d="M740.16,749.53c6.44-1.83,12.45-0.95,14.16,1.92c0.3,0.42,0.56,0.91,0.76,1.48
			c2.37,6.93,3.15,21.52-0.46,30.8c-2.04,5.25-3.14,6.11-4.7,5.9c-1.41,0.24-3.52-0.33-6.65-2.97c-7.6-6.43-12.88-20.14-14.11-27.36
			c-0.49-2.89,1.1-4.74,3.19-5.91C734.31,751.81,737.02,750.42,740.16,749.53z"/>
		<path class="st1" d="M728.92,582.44c5.79,3.37,11.82,4,14.19,1.64c0.4-0.33,0.77-0.74,1.1-1.25c4.02-6.13,8.38-20.07,7.19-29.95
			c-0.67-5.59-1.52-6.7-3.09-6.88c-1.3-0.59-3.49-0.56-7.18,1.23c-8.96,4.35-17.47,16.32-20.44,23.01c-1.19,2.68-0.1,4.86,1.62,6.52
			C723.81,578.78,726.09,580.8,728.92,582.44z"/>
		<path class="st1" d="M759.76,671.31c0.99-6.63,4.28-11.73,7.6-12.1c0.51-0.1,1.06-0.14,1.66-0.08c7.29,0.7,20.89,6.03,27.86,13.15
			c3.94,4.03,4.27,5.38,3.43,6.71c-0.36,1.38-1.75,3.07-5.45,4.82c-9,4.26-23.66,3.41-30.74,1.53c-2.84-0.75-3.86-2.96-4.07-5.35
			C759.42,677.58,759.28,674.54,759.76,671.31z"/>
		<path class="st1" d="M744.69,694.82c5.04-4.42,10.84-6.19,13.62-4.33c0.45,0.25,0.89,0.58,1.32,1.02
			c5.12,5.24,12.06,18.09,12.78,28.02c0.41,5.62-0.21,6.87-1.72,7.34c-1.17,0.82-3.32,1.22-7.28,0.16
			c-9.63-2.56-20.27-12.67-24.47-18.68c-1.68-2.4-1.03-4.75,0.35-6.71C740.38,699.39,742.23,696.97,744.69,694.82z"/>
		<path class="st1" d="M642.6,576.26c-5.04,4.42-10.84,6.19-13.62,4.33c-0.45-0.25-0.89-0.58-1.32-1.02
			c-5.12-5.24-12.06-18.09-12.78-28.02c-0.41-5.62,0.21-6.87,1.72-7.34c1.17-0.82,3.32-1.22,7.28-0.16
			c9.63,2.56,20.27,12.67,24.47,18.68c1.68,2.4,1.03,4.75-0.35,6.71C646.91,571.69,645.05,574.11,642.6,576.26z"/>
		<path class="st1" d="M670.55,569.93c6.7-0.14,12.17-2.75,12.97-6c0.16-0.49,0.27-1.03,0.29-1.64c0.23-7.32-3.32-21.49-9.5-29.3
			c-3.49-4.42-4.8-4.92-6.22-4.25c-1.42,0.18-3.27,1.35-5.48,4.79c-5.37,8.39-6.39,23.04-5.43,30.3c0.38,2.91,2.45,4.2,4.79,4.71
			C664.29,569.47,667.29,570,670.55,569.93z"/>
		<path class="st1" d="M639.06,642.52c-3,5.99-7.71,9.82-10.98,9.14c-0.51-0.06-1.05-0.2-1.61-0.44
			c-6.71-2.93-17.99-12.22-22.4-21.15c-2.49-5.05-2.39-6.44-1.17-7.45c0.77-1.2,2.62-2.38,6.68-2.89c9.88-1.26,23.55,4.11,29.7,8.09
			c2.46,1.59,2.75,4.01,2.21,6.35C641.33,636.66,640.52,639.6,639.06,642.52z"/>
	</g>
	<path class="st4" d="M383.98,1333.09c11.87-19.87,24.4-40.45,43.86-52.99c7.75-5,16.46-8.6,23.42-14.65
		c6.53-5.68,11.14-13.2,15.59-20.61c7.43-12.39,14.72-24.86,21.86-37.42c8.83-15.54,17.65-145.92,18.47-163.77
		c1.12-24.32-12.78-47.15-13.48-71.48c-0.9-30.99,19.61-61.52,11.35-91.4c-4.21-15.23-15.28-27.41-24.73-40.08
		c-13.03-17.49-23.38-36.78-33.69-56c-5.96-11.11-12.06-22.68-12.81-35.27c-0.62-10.36,2.44-20.67,1.89-31.03
		c-0.96-18.1-12.74-36.59-5.46-53.2c5.78-1.01,11.54,2.87,14.54,7.92s3.85,11.04,4.62,16.86c3.45,26.02,7.25,53.58,23.84,73.92
		c10.15,12.45,24.25,21.04,35.37,32.63c8.14,8.48,14.7,18.6,24.1,25.65c9.41,7.05,23.19,10.31,32.76,3.48
		c5.88-4.19,8.92-11.21,11.7-17.87c5.99-14.37,12.01-28.88,14.84-44.19c2.07-11.2,2.41-22.76,5.76-33.65
		c5.5-17.87,18.54-32.27,31.2-46.03c8.89-9.66,17.77-19.32,26.66-28.98c3.67-3.99,7.68-8.18,12.97-9.37
		c5.29-1.18,11.93,2.35,11.76,7.77c-0.08,2.63-1.67,4.95-3.2,7.09c-12.89,18.18-25.34,36.95-33.25,57.79
		c-19.98,52.65-8.89,111.56-16.19,167.39c-6.05,46.29-24.63,94.51-7.49,137.94c3.8,9.63,9.27,18.62,12.01,28.61
		c2.91,10.65,2.56,135.88,3.56,146.88c1.56,17.22,6.52,34.13,14.51,49.46c14.87,28.53,40.41,52.68,45.05,84.51L383.98,1333.09z"/>
	<path class="st4" d="M446.65,780.58c-8.18-7.35-26.68-18.96-37.65-18.2c-11.79,0.81-42.32,22.55-51.9,29.47
		c-2.47,1.78-5.24,4.68-3.86,7.39c1.68,3.3,6.61,1.54,9.93-0.1c10.09-5,45.27-16.71,54.83-10.75c5.2,3.24,14.89,12.17,19.02,16.7
		c24.18,26.47,48.94,52.41,74.26,77.79c1.35-12.59-2.63-25.08-6.55-37.12c-2.88-8.81-5.9-17.89-12-24.87
		c-7.22-8.26-17.2-9.44-25.34-15.55C458.92,798.97,454.75,787.85,446.65,780.58z"/>
	<path class="st4" d="M707.87,845.55c-11.79-13.76-31.6-20.09-49.19-15.71c-17.58,4.38-32.11,19.27-36.05,36.96
		c-2.52-18.19,1.98-36.5,4.33-54.7c1.98-15.35,2.42-30.9,1.33-46.35c6.99-0.74,10.57,8.01,16.07,12.39
		c5.96,4.75,14.39,4.19,21.86,5.71c16.95,3.44,29.41,18.01,37.63,33.22s13.69,32,23.93,45.94c6.51,8.85,3.23,20.86-5.51,10.99
		C715.9,866.82,714.77,853.61,707.87,845.55z"/>
	<path class="st4" d="M612.05,489.25c0.51-15.58,1.02-31.15,1.53-46.73c0.44-13.44,0.77-27.45-4.91-39.63
		c-0.42-0.9-0.92-1.84-1.79-2.3c-2.43-1.31-4.81,1.86-5.63,4.49c-7.03,22.41-0.74,46.92-4.82,70.05c-0.9,5.1-2.3,10.11-3.22,15.21
		c-2.21,12.31-1.54,25.13,1.96,37.15c3.59,1.62,6.64-3.07,7.82-6.83C606.36,509.92,611.67,500.71,612.05,489.25z"/>
	<path class="st4" d="M346.47,409.08c-2.37-1.68-5.47-3.31-8-1.9c-1.47,0.81-2.3,2.49-2.54,4.16c-0.73,5,2.92,9.47,6.33,13.21
		c11.7,12.83,27.79,38.82,43.28,45.57C389.6,447.64,362.58,420.51,346.47,409.08z"/>
	<path class="st4" d="M620.42,720.12c-14.34-39.56-23.34-81.04-26.69-122.99c-22.98,91.48-1.38,190-26.21,281
		c5.32,0.06,8.87-5.31,11.28-10.06c17.46-34.42,30.74-70.95,39.45-108.54"/>
	<path class="st3" d="M901.95,1791.63H215.02c-41.72,0-75.53-33.82-75.53-75.53v-304.93c0-41.72,33.82-75.53,75.53-75.53h686.93
		c41.72,0,75.53,33.82,75.53,75.53v304.93C977.48,1757.82,943.67,1791.63,901.95,1791.63z"/>
	<path class="st3" d="M901.95,1791.63H215.02c-41.72,0-75.53-33.82-75.53-75.53v-304.93c0-41.72,33.82-75.53,75.53-75.53h686.93
		c41.72,0,75.53,33.82,75.53,75.53v304.93C977.48,1757.82,943.67,1791.63,901.95,1791.63z"/>
	<path class="st3" d="M897.95,1791.63H211.02c-41.72,0-75.53-33.82-75.53-75.53v-304.93c0-41.72,33.82-75.53,75.53-75.53h686.93
		c41.72,0,75.53,33.82,75.53,75.53v304.93C973.48,1757.82,939.67,1791.63,897.95,1791.63z"/>
	<rect x="8.5" y="84.38" class="st5" width="1076" height="83.62"/>
	<text transform="matrix(1 0 0 1 348.0527 142.4839)" class="st6 st7 st8 st9">Dein Erfolg</text>
	<g>
		<rect x="133" y="1682" class="st5" width="838" height="95"/>
		<text transform="matrix(1 0 0 1 222.7266 1731.7993)" class="st1 st7 st10 st9">Challenges geschafft!</text>
		<rect x="133" y="1381.38" class="st5" width="840" height="149.62"/>
		<text transform="matrix(1 0 0 1 320.5342 1431.1841)" class="st1 st7 st10 st9">Du hast bereits</text>
		
			<rect x="133.08" y="1496.28" transform="matrix(1 -1.803884e-03 1.803884e-03 1 -2.8371 1.0001)" class="st5" width="839.88" height="154.02"/>
		<text transform="matrix(1 -1.800000e-03 1.800000e-03 1 333.5601 1618.9644)" class="st11 st7 st12 st13">3.625</text>
	</g>
</g>
</svg>
