<?xml version="1.0" encoding="utf-8"?>
<!-- Generator: Adobe Illustrator 24.1.0, SVG Export Plug-In . SVG Version: 6.00 Build 0)  -->
<svg version="1.1" xmlns="http://www.w3.org/2000/svg" xmlns:xlink="http://www.w3.org/1999/xlink" x="0px" y="0px"
	 viewBox="0 0 1080 1920" style="enable-background:new 0 0 1080 1920;" xml:space="preserve">
<style type="text/css">
	.st0{fill:#EFE7CE;}
	.st1{fill:#637454;}
	.st2{opacity:0.5;}
	.st3{fill:#FFFFFF;}
	.st4{fill:#F0C820;}
	.st5{opacity:0.5;fill:#FFFFFF;}
	.st6{fill:#93A583;}
	.st7{fill:none;}
	.st8{font-family:'Futura-Bold';}
	.st9{font-size:60px;}
	.st10{letter-spacing:-1;}
	.st11{font-size:147.3433px;}
	.st12{letter-spacing:-2;}
	.st13{fill:#3C3C3B;}
	.st14{font-size:70px;}
</style>
<g id="Ebene_2">
</g>
<g id="Ebene_1">
	<rect x="2.5" class="st0" width="1079" height="1919"/>
	<path class="st3" d="M898.47,1791.5H211.53c-41.72,0-75.53-33.82-75.53-75.53v-304.93c0-41.72,33.82-75.53,75.53-75.53h686.93
		c41.72,0,75.53,33.82,75.53,75.53v304.93C974,1757.68,940.18,1791.5,898.47,1791.5z"/>
	<path class="st4" d="M466,1169c-15.47-49.85,15.8-227.85,18-280c2.4-56.77-12.08-103.82-44.68-150.36
		c-32.6-46.54-66.27-98.32-62.04-154.98c8.95,1.77,10.57,13.6,11.1,22.72c3.33,57.67,49.07,110.22,105.73,121.48
		c9.87,1.96,20.21,2.77,29.92,0.14c27.06-7.32,40.03-37.01,52.87-61.92c25.08-48.64,62.91-90.63,108.69-120.62
		c8.21-5.38,20.95-9.59,26.34-1.38c-42.62,75.36-126.04,128.49-144.28,213.12c-9.38,43.52,0.44,88.55,8.06,132.42
		c9.71,55.89,15.85,222.72,18.38,279.38"/>
	<g>
		<path class="st5" d="M353.36,618.81c0-9.32-3.47-17.02-7.97-18.22c-0.68-0.24-1.43-0.4-2.27-0.45
			c-10.18-0.54-29.99,3.99-41.04,12.35c-6.25,4.73-6.99,6.53-6.1,8.53c0.21,1.98,1.78,4.59,6.51,7.76
			c11.51,7.72,31.86,9.57,41.99,8.45c4.06-0.45,5.92-3.28,6.7-6.52C352.53,627.51,353.36,623.36,353.36,618.81z"/>
		<path class="st1" d="M328.06,560.08c4.78-8,5.75-16.39,2.51-19.72c-0.46-0.56-1.02-1.08-1.72-1.55
			c-8.46-5.69-27.79-11.97-41.56-10.46c-7.79,0.85-9.35,2.02-9.62,4.19c-0.84,1.81-0.83,4.85,1.6,10
			c5.91,12.53,22.43,24.56,31.7,28.8c3.71,1.7,6.76,0.22,9.1-2.16C322.89,567.12,325.73,563.98,328.06,560.08z"/>
		<path class="st5" d="M380.46,527.77c9.32-0.06,17-3.58,18.17-8.08c0.24-0.68,0.39-1.43,0.43-2.28
			c0.47-10.18-4.18-29.97-12.61-40.97c-4.77-6.22-6.57-6.95-8.57-6.05c-1.98,0.22-4.58,1.81-7.72,6.56
			c-7.65,11.56-9.37,31.92-8.19,42.04c0.47,4.05,3.32,5.9,6.56,6.66C371.75,526.99,375.91,527.79,380.46,527.77z"/>
		<path class="st5" d="M416.6,560.4c6.63,6.55,14.55,9.49,18.56,7.13c0.65-0.31,1.29-0.73,1.92-1.3
			c7.54-6.87,18.24-24.14,20.05-37.88c1.03-7.77,0.26-9.56-1.78-10.34c-1.55-1.24-4.51-1.96-10.1-0.82
			c-13.58,2.76-29.19,15.95-35.52,23.94c-2.53,3.2-1.82,6.52-0.07,9.35C410.99,553.69,413.37,557.2,416.6,560.4z"/>
		<path class="st5" d="M419.8,498.14c6.63,6.55,14.55,9.49,18.56,7.13c0.65-0.31,1.29-0.73,1.92-1.3
			c7.54-6.87,18.24-24.14,20.05-37.88c1.03-7.77,0.26-9.56-1.78-10.34c-1.55-1.24-4.52-1.96-10.1-0.82
			c-13.58,2.76-29.19,15.95-35.52,23.94c-2.53,3.2-1.82,6.52-0.07,9.35C414.18,491.43,416.56,494.94,419.8,498.14z"/>
		<path class="st5" d="M328.65,503.4c8.21-4.41,13.35-11.11,12.28-15.64c-0.11-0.71-0.32-1.45-0.68-2.22
			c-4.34-9.22-17.7-24.54-30.3-30.32c-7.12-3.27-9.06-3.07-10.4-1.34c-1.64,1.12-3.2,3.74-3.76,9.41
			c-1.36,13.79,6.64,32.59,12.42,40.99c2.31,3.36,5.69,3.66,8.91,2.82C320.59,506.79,324.64,505.55,328.65,503.4z"/>
		<path class="st5" d="M462.08,572.4c-2.73,8.91-1.67,17.29,2.28,19.75c0.58,0.43,1.25,0.8,2.04,1.1c9.58,3.5,29.84,4.98,42.86,0.23
			c7.36-2.69,8.59-4.19,8.34-6.37c0.38-1.95-0.35-4.91-3.94-9.33c-8.74-10.76-27.65-18.49-37.67-20.39
			c-4.01-0.76-6.62,1.4-8.32,4.27C465.42,564.32,463.41,568.05,462.08,572.4z"/>
		<path class="st5" d="M284.17,590.13c-0.64-9.3-4.62-16.74-9.19-17.63c-0.69-0.2-1.45-0.31-2.3-0.29
			c-10.19,0.16-29.65,6.02-40.11,15.12c-5.91,5.14-6.53,6.99-5.51,8.93c0.34,1.96,2.09,4.46,7.02,7.3
			c12.01,6.92,32.44,7.37,42.47,5.57c4.02-0.72,5.68-3.68,6.24-6.96C283.94,598.87,284.48,594.67,284.17,590.13z"/>
		<path class="st5" d="M359.16,458.39c8.84-2.95,15.05-8.67,14.77-13.32c0.02-0.72-0.07-1.48-0.29-2.3
			c-2.71-9.83-13.26-27.2-24.68-35.04c-6.46-4.44-8.4-4.57-10.02-3.09c-1.81,0.82-3.79,3.14-5.31,8.63
			c-3.69,13.36,0.99,33.25,5.25,42.51c1.7,3.71,4.98,4.58,8.3,4.3C350.64,460.35,354.85,459.82,359.16,458.39z"/>
		<path class="st5" d="M308.14,435.97c9.14-1.82,16.01-6.73,16.31-11.38c0.11-0.71,0.12-1.48,0-2.32
			c-1.46-10.09-9.78-28.63-20.14-37.84c-5.86-5.2-7.77-5.58-9.56-4.32c-1.9,0.59-4.15,2.64-6.34,7.9
			c-5.32,12.8-3.15,33.11-0.07,42.83c1.23,3.89,4.38,5.16,7.71,5.3C299.45,436.86,303.69,436.86,308.14,435.97z"/>
		<path class="st5" d="M380.32,412.08c9.32,0.18,17.08-3.15,18.36-7.62c0.26-0.67,0.43-1.42,0.49-2.26
			c0.73-10.17-3.42-30.06-11.57-41.27c-4.61-6.34-6.4-7.11-8.41-6.26c-1.98,0.17-4.62,1.69-7.88,6.36
			c-7.94,11.36-10.16,31.67-9.24,41.82c0.37,4.06,3.17,5.98,6.39,6.82C371.64,411.09,375.78,411.99,380.32,412.08z"/>
		<path class="st5" d="M451.25,435.64c8.12,4.59,16.53,5.35,19.78,2.02c0.54-0.47,1.05-1.04,1.51-1.76
			c5.48-8.6,11.28-28.07,9.44-41.81c-1.04-7.77-2.25-9.3-4.43-9.51c-1.83-0.79-4.87-0.71-9.96,1.85c-12.38,6.22-24,23.03-28.01,32.4
			c-1.61,3.75-0.06,6.77,2.38,9.04C444.08,430.64,447.29,433.4,451.25,435.64z"/>
		<path class="st5" d="M212,416.69c8.15-4.53,13.19-11.3,12.06-15.81c-0.12-0.71-0.34-1.44-0.71-2.21
			c-4.47-9.16-18.05-24.28-30.73-29.88c-7.17-3.17-9.1-2.94-10.42-1.19c-1.63,1.14-3.15,3.78-3.63,9.46
			c-1.16,13.81,7.11,32.49,13,40.81c2.36,3.33,5.74,3.58,8.95,2.69C203.99,420.19,208.03,418.89,212,416.69z"/>
		<path class="st5" d="M264.02,395.06c9.25-1.13,16.47-5.51,17.12-10.12c0.16-0.7,0.23-1.47,0.17-2.31
			c-0.7-10.17-7.6-29.29-17.24-39.24c-5.45-5.63-7.33-6.14-9.21-5.02c-1.94,0.45-4.34,2.32-6.92,7.4
			c-6.27,12.36-5.63,32.78-3.3,42.71c0.93,3.97,3.97,5.48,7.29,5.86C255.29,395.3,259.51,395.61,264.02,395.06z"/>
		<path class="st5" d="M334.27,383.09c9.25-1.13,16.47-5.51,17.12-10.12c0.16-0.7,0.23-1.47,0.17-2.31
			c-0.7-10.17-7.6-29.29-17.24-39.24c-5.45-5.63-7.33-6.14-9.21-5.02c-1.94,0.45-4.34,2.32-6.92,7.4
			c-6.27,12.36-5.63,32.78-3.3,42.71c0.93,3.97,3.97,5.48,7.29,5.86C325.53,383.32,329.76,383.64,334.27,383.09z"/>
		<path class="st5" d="M425.04,387.59c8.86,2.89,17.26,1.97,19.79-1.94c0.44-0.57,0.83-1.23,1.13-2.02
			c3.66-9.51,5.49-29.75,0.96-42.85c-2.56-7.41-4.04-8.67-6.22-8.44c-1.95-0.41-4.91,0.27-9.4,3.78
			c-10.9,8.55-18.96,27.33-21.03,37.31c-0.83,3.99,1.29,6.64,4.13,8.39C417.02,384.12,420.71,386.19,425.04,387.59z"/>
		<path class="st5" d="M518.28,500.03c0.41,9.31,4.22,16.85,8.77,17.85c0.69,0.21,1.44,0.34,2.29,0.35
			c10.19,0.09,29.79-5.31,40.46-14.16c6.03-5,6.69-6.83,5.72-8.79c-0.3-1.97-1.98-4.51-6.85-7.47c-11.84-7.2-32.25-8.14-42.32-6.58
			c-4.03,0.62-5.77,3.54-6.4,6.81C518.72,491.3,518.08,495.49,518.28,500.03z"/>
		<path class="st5" d="M539.47,457.32c1.83,9.14,6.74,16.01,11.39,16.3c0.71,0.1,1.48,0.12,2.32-0.01
			c10.09-1.47,28.63-9.8,37.82-20.17c5.2-5.86,5.57-7.77,4.31-9.56c-0.59-1.9-2.64-4.15-7.9-6.34c-12.8-5.31-33.11-3.13-42.83-0.04
			c-3.89,1.23-5.16,4.38-5.29,7.71C538.57,448.62,538.58,452.86,539.47,457.32z"/>
		<path class="st5" d="M471.32,374.72c8.69,3.38,17.12,2.93,19.87-0.83c0.47-0.54,0.89-1.18,1.24-1.96
			c4.19-9.29,7.15-29.4,3.36-42.73c-2.14-7.54-3.55-8.88-5.74-8.78c-1.92-0.52-4.92-0.01-9.59,3.25
			c-11.37,7.93-20.46,26.23-23.09,36.08c-1.05,3.94,0.91,6.71,3.65,8.61C463.51,370.8,467.08,373.07,471.32,374.72z"/>
		<path class="st5" d="M506.62,392.01c7.77,5.14,16.11,6.5,19.59,3.41c0.58-0.43,1.12-0.97,1.63-1.65
			c6.07-8.19,13.23-27.21,12.35-41.04c-0.49-7.82-1.59-9.43-3.75-9.8c-1.77-0.92-4.81-1.05-10.07,1.14
			c-12.79,5.34-25.56,21.29-30.22,30.35c-1.87,3.63-0.53,6.75,1.74,9.19C499.82,386.52,502.83,389.5,506.62,392.01z"/>
		<path class="st5" d="M547.55,408.94c4.79,8,11.72,12.82,16.19,11.54c0.71-0.14,1.43-0.39,2.18-0.78
			c9.01-4.77,23.69-18.82,28.88-31.67c2.94-7.27,2.65-9.19,0.86-10.45c-1.2-1.59-3.88-3.03-9.57-3.32
			c-13.84-0.72-32.25,8.15-40.37,14.3c-3.25,2.46-3.4,5.85-2.4,9.04C543.8,401.05,545.22,405.04,547.55,408.94z"/>
		<path class="st5" d="M399.04,347.55c9.3-0.58,16.77-4.53,17.68-9.09c0.2-0.69,0.31-1.45,0.31-2.3
			c-0.1-10.19-5.86-29.68-14.89-40.19c-5.11-5.94-6.95-6.57-8.9-5.56c-1.96,0.33-4.47,2.06-7.34,6.98
			c-6.99,11.97-7.55,32.39-5.81,42.44c0.7,4.02,3.65,5.7,6.93,6.28C390.31,347.27,394.51,347.83,399.04,347.55z"/>
		<path class="st5" d="M354.34,322.8c9.3-0.58,16.77-4.53,17.68-9.09c0.2-0.69,0.31-1.45,0.31-2.3
			c-0.1-10.19-5.86-29.68-14.89-40.19c-5.11-5.94-6.95-6.57-8.9-5.56c-1.96,0.33-4.47,2.06-7.34,6.98
			c-6.99,11.97-7.55,32.39-5.81,42.44c0.7,4.02,3.65,5.7,6.93,6.28C345.61,322.52,349.81,323.09,354.34,322.8z"/>
		<path class="st5" d="M295.65,336.45c8.73-3.28,14.71-9.23,14.25-13.86c-0.01-0.72-0.12-1.48-0.38-2.29
			c-3.08-9.72-14.28-26.68-25.99-34.08c-6.62-4.19-8.57-4.25-10.13-2.71c-1.78,0.89-3.67,3.28-4.98,8.82
			c-3.18,13.49,2.24,33.19,6.85,42.28c1.84,3.64,5.15,4.39,8.46,3.98C287.21,338.74,291.39,338.05,295.65,336.45z"/>
		<path class="st5" d="M220.62,358c8.73-3.28,14.71-9.23,14.25-13.86c-0.01-0.72-0.12-1.48-0.38-2.29
			c-3.08-9.72-14.28-26.68-25.99-34.08c-6.62-4.19-8.57-4.25-10.13-2.71c-1.78,0.89-3.67,3.28-4.98,8.82
			c-3.18,13.49,2.24,33.19,6.85,42.28c1.84,3.64,5.15,4.39,8.46,3.98C212.18,360.29,216.36,359.6,220.62,358z"/>
		<path class="st5" d="M443.98,324.06c9.1,2.05,17.37,0.35,19.52-3.77c0.39-0.61,0.71-1.3,0.94-2.12c2.76-9.81,2.7-30.14-3.03-42.75
			c-3.24-7.14-4.83-8.25-6.98-7.83c-1.98-0.23-4.87,0.73-9,4.64c-10.06,9.53-16.33,28.98-17.47,39.11c-0.46,4.05,1.9,6.5,4.89,7.97
			C435.68,321.34,439.55,323.06,443.98,324.06z"/>
		<path class="st5" d="M396.89,282.55c9.1,2.05,17.37,0.35,19.52-3.77c0.39-0.61,0.71-1.3,0.94-2.12c2.76-9.81,2.7-30.14-3.03-42.75
			c-3.24-7.14-4.83-8.25-6.98-7.83c-1.98-0.23-4.87,0.73-9,4.64c-10.06,9.53-16.33,28.98-17.47,39.11c-0.46,4.05,1.9,6.5,4.89,7.97
			C388.58,279.84,392.45,281.56,396.89,282.55z"/>
		<path class="st5" d="M492.15,449.35c6.51,6.67,14.37,9.76,18.43,7.47c0.65-0.3,1.3-0.71,1.94-1.27
			c7.66-6.73,18.68-23.8,20.75-37.5c1.17-7.75,0.44-9.55-1.59-10.37c-1.53-1.27-4.48-2.04-10.08-1.01
			c-13.63,2.51-29.48,15.4-35.96,23.28c-2.59,3.15-1.95,6.48-0.24,9.35C486.66,442.54,488.97,446.09,492.15,449.35z"/>
		<path class="st5" d="M265.23,454.32c8.44-3.97,13.92-10.38,13.09-14.96c-0.07-0.72-0.24-1.46-0.56-2.25
			c-3.85-9.44-16.37-25.44-28.64-31.89c-6.94-3.64-8.88-3.55-10.32-1.89c-1.7,1.03-3.4,3.56-4.26,9.19
			c-2.09,13.7,4.9,32.9,10.22,41.6c2.13,3.48,5.49,3.96,8.75,3.29C257.01,457.28,261.12,456.25,265.23,454.32z"/>
		<path class="st5" d="M229.69,504.48c1.31-9.23-1.05-17.34-5.33-19.15c-0.64-0.34-1.36-0.6-2.19-0.76
			c-10-1.96-30.25-0.26-42.37,6.47c-6.85,3.81-7.83,5.48-7.24,7.59c-0.07,1.99,1.12,4.79,5.35,8.6
			c10.31,9.26,30.2,13.94,40.39,14.26c4.08,0.13,6.32-2.42,7.55-5.52C227.66,512.98,229.06,508.98,229.69,504.48z"/>
		<path class="st5" d="M226.86,467.56c6.3-6.87,8.94-14.89,6.43-18.82c-0.34-0.64-0.78-1.26-1.37-1.87
			c-7.14-7.27-24.81-17.32-38.61-18.62c-7.8-0.73-9.56,0.09-10.26,2.17c-1.18,1.6-1.79,4.59-0.45,10.12
			c3.27,13.47,17.03,28.57,25.25,34.6c3.29,2.41,6.58,1.58,9.34-0.28C220.38,473.42,223.79,470.92,226.86,467.56z"/>
		<path class="st5" d="M210.1,559.62c-1.17-9.25-5.57-16.45-10.18-17.08c-0.7-0.16-1.47-0.22-2.31-0.16
			c-10.17,0.74-29.26,7.7-39.18,17.38c-5.61,5.47-6.12,7.35-4.99,9.23c0.46,1.94,2.34,4.33,7.43,6.89
			c12.38,6.22,32.8,5.51,42.72,3.14c3.97-0.95,5.46-3.99,5.83-7.31C210.37,568.35,210.67,564.13,210.1,559.62z"/>
		<path class="st5" d="M173.44,534.75c3.81-8.51,3.78-16.95,0.16-19.88c-0.52-0.5-1.14-0.95-1.89-1.34
			c-9.07-4.65-29.01-8.61-42.51-5.49c-7.64,1.76-9.04,3.11-9.05,5.3c-0.62,1.89-0.25,4.92,2.77,9.74
			c7.35,11.75,25.17,21.74,34.88,24.86c3.88,1.25,6.74-0.58,8.78-3.22C169.14,542.35,171.59,538.9,173.44,534.75z"/>
		<path class="st5" d="M218.06,597.84c-4.01-8.42-10.45-13.87-15.02-13.02c-0.72,0.07-1.46,0.25-2.25,0.57
			c-9.42,3.89-25.37,16.49-31.75,28.79c-3.61,6.96-3.5,8.9-1.84,10.33c1.04,1.7,3.58,3.38,9.21,4.21
			c13.71,2.03,32.88-5.06,41.55-10.42c3.47-2.15,3.93-5.51,3.25-8.77C221.06,606.05,220.01,601.94,218.06,597.84z"/>
		<path class="st5" d="M402.93,455.99c-8.84-2.95-15.05-8.67-14.77-13.32c-0.02-0.72,0.07-1.48,0.29-2.3
			c2.71-9.83,13.26-27.2,24.68-35.04c6.46-4.44,8.4-4.57,10.02-3.09c1.81,0.82,3.79,3.14,5.31,8.63
			c3.69,13.36-0.99,33.25-5.25,42.51c-1.7,3.71-4.98,4.58-8.3,4.3C411.45,457.96,407.24,457.43,402.93,455.99z"/>
		<path class="st5" d="M281.75,505.46c6.01-7.13,8.31-15.25,5.65-19.06c-0.36-0.62-0.83-1.23-1.45-1.81
			c-7.44-6.97-25.5-16.28-39.34-17.01c-7.83-0.41-9.55,0.49-10.16,2.59c-1.11,1.65-1.6,4.66-0.03,10.13
			c3.82,13.32,18.19,27.85,26.66,33.53c3.39,2.27,6.64,1.31,9.32-0.67C275.51,511.58,278.82,508.93,281.75,505.46z"/>
		<path class="st5" d="M271.04,542.82c-0.01-9.32-3.5-17.01-8-18.21c-0.68-0.24-1.43-0.4-2.27-0.45
			c-10.18-0.52-29.99,4.03-41.03,12.41c-6.24,4.74-6.98,6.54-6.09,8.54c0.21,1.98,1.78,4.59,6.52,7.75
			c11.52,7.71,31.87,9.52,42,8.39c4.06-0.45,5.91-3.29,6.69-6.53C270.23,551.52,271.05,547.36,271.04,542.82z"/>
		<path class="st5" d="M488.73,540.48c0.01,9.32,3.5,17.01,7.99,18.21c0.68,0.24,1.43,0.4,2.27,0.45
			c10.18,0.52,29.99-4.03,41.03-12.41c6.24-4.74,6.98-6.54,6.09-8.54c-0.21-1.98-1.78-4.59-6.52-7.75
			c-11.52-7.71-31.87-9.52-42-8.39c-4.06,0.45-5.91,3.29-6.69,6.53C489.55,531.78,488.73,535.93,488.73,540.48z"/>
		<path class="st5" d="M469.65,505.46c-6.01-7.13-8.31-15.25-5.65-19.06c0.36-0.62,0.83-1.23,1.45-1.81
			c7.44-6.97,25.5-16.28,39.34-17.01c7.83-0.41,9.55,0.49,10.16,2.59c1.11,1.65,1.6,4.66,0.03,10.13
			c-3.82,13.32-18.19,27.85-26.66,33.53c-3.39,2.27-6.64,1.31-9.33-0.67C475.89,511.58,472.58,508.93,469.65,505.46z"/>
		<path class="st1" d="M422.78,605.08c-3.5,8.64-3.17,17.08,0.55,19.88c0.54,0.48,1.17,0.91,1.94,1.27
			c9.23,4.32,29.3,7.56,42.68,3.96c7.57-2.04,8.93-3.43,8.86-5.62c0.55-1.91,0.07-4.92-3.12-9.64
			c-7.77-11.48-25.94-20.82-35.75-23.59c-3.93-1.11-6.72,0.82-8.66,3.53C426.81,597.33,424.48,600.87,422.78,605.08z"/>
	</g>
	<g>
		<path class="st5" d="M697.26,593.5c7-6.16,15.07-8.64,18.94-6.05c0.63,0.35,1.25,0.8,1.84,1.41c7.13,7.29,16.82,25.15,17.85,38.97
			c0.58,7.82-0.28,9.56-2.37,10.22c-1.62,1.15-4.62,1.7-10.13,0.24c-13.4-3.54-28.23-17.59-34.09-25.94
			c-2.35-3.34-1.45-6.61,0.47-9.34C691.28,599.86,693.85,596.5,697.26,593.5z"/>
		<path class="st1" d="M758.07,573.68c2.85-8.88,8.5-15.15,13.15-14.91c0.72-0.02,1.48,0.05,2.3,0.27
			c9.86,2.6,27.34,12.95,35.31,24.29c4.51,6.41,4.66,8.35,3.21,9.99c-0.8,1.82-3.09,3.83-8.57,5.41
			c-13.32,3.84-33.26-0.62-42.57-4.77c-3.73-1.66-4.64-4.93-4.39-8.25C756.2,582.22,756.68,578.01,758.07,573.68z"/>
		<path class="st5" d="M747.71,513.01c-6.11-7.04-8.54-15.12-5.93-18.98c0.35-0.63,0.81-1.24,1.42-1.83
			c7.33-7.08,25.26-16.66,39.08-17.6c7.82-0.53,9.56,0.34,10.2,2.44c1.14,1.63,1.67,4.63,0.18,10.13
			c-3.62,13.38-17.77,28.12-26.15,33.92c-3.35,2.32-6.62,1.41-9.33-0.53C754.04,519.03,750.69,516.44,747.71,513.01z"/>
		<path class="st5" d="M699.34,507.43c-9.3-0.65-16.73-4.65-17.61-9.22c-0.19-0.69-0.3-1.45-0.29-2.3
			c0.18-10.19,6.08-29.64,15.19-40.08c5.15-5.9,7-6.51,8.94-5.49c1.96,0.35,4.45,2.09,7.29,7.03c6.9,12.02,7.31,32.45,5.49,42.48
			c-0.73,4.01-3.69,5.68-6.97,6.23C708.08,507.21,703.87,507.75,699.34,507.43z"/>
		<path class="st5" d="M743.97,463.9c-9.3-0.65-16.73-4.65-17.61-9.22c-0.19-0.69-0.3-1.45-0.29-2.3
			c0.18-10.19,6.08-29.64,15.19-40.08c5.15-5.9,7-6.51,8.94-5.49c1.96,0.35,4.45,2.09,7.29,7.03c6.9,12.02,7.31,32.45,5.49,42.48
			c-0.73,4.01-3.69,5.68-6.97,6.23C752.71,463.69,748.5,464.22,743.97,463.9z"/>
		<path class="st5" d="M800.23,535.81c-2.11-9.08-0.48-17.36,3.63-19.55c0.61-0.39,1.3-0.72,2.11-0.95
			c9.79-2.83,30.11-2.92,42.78,2.72c7.16,3.19,8.29,4.77,7.88,6.92c0.24,1.97-0.69,4.87-4.58,9.04
			c-9.46,10.13-28.86,16.54-38.98,17.76c-4.05,0.49-6.51-1.85-8-4.83C803.01,544.09,801.27,540.23,800.23,535.81z"/>
		<path class="st5" d="M660.29,481.21c-4.89,7.94-11.87,12.68-16.33,11.34c-0.7-0.15-1.43-0.4-2.17-0.81
			c-8.95-4.88-23.46-19.11-28.49-32.02c-2.85-7.3-2.53-9.22-0.73-10.46c1.21-1.57,3.92-2.98,9.61-3.2
			c13.85-0.55,32.15,8.54,40.19,14.8c3.22,2.5,3.32,5.9,2.29,9.06C664.14,473.37,662.67,477.34,660.29,481.21z"/>
		<path class="st5" d="M764.5,626.49c7.4-5.67,15.62-7.59,19.31-4.75c0.6,0.39,1.19,0.89,1.74,1.53
			c6.62,7.76,15.07,26.24,15.14,40.1c0.04,7.84-0.94,9.52-3.06,10.03c-1.7,1.04-4.73,1.38-10.12-0.45
			c-13.13-4.44-26.96-19.48-32.24-28.2c-2.11-3.49-0.99-6.69,1.1-9.28C758.1,632.44,760.89,629.26,764.5,626.49z"/>
		<path class="st5" d="M813.87,483.16c-3.63-8.59-3.43-17.03,0.24-19.88c0.53-0.49,1.16-0.93,1.92-1.3
			c9.17-4.46,29.18-8.01,42.61-4.62c7.6,1.92,8.98,3.29,8.94,5.48c0.58,1.9,0.15,4.92-2.97,9.69c-7.59,11.6-25.61,21.22-35.38,24.14
			c-3.91,1.17-6.73-0.72-8.71-3.39C818.02,490.86,815.64,487.35,813.87,483.16z"/>
		<path class="st5" d="M864.4,506.65c-4.67-8.07-5.52-16.47-2.23-19.76c0.47-0.55,1.03-1.06,1.74-1.53
			c8.54-5.57,27.95-11.58,41.71-9.88c7.78,0.96,9.32,2.15,9.56,4.33c0.81,1.82,0.76,4.86-1.74,9.98
			c-6.09,12.45-22.78,24.24-32.11,28.35c-3.73,1.65-6.77,0.13-9.07-2.29C869.48,513.77,866.68,510.58,864.4,506.65z"/>
		<path class="st5" d="M834.65,436.68c-6.29-6.88-8.92-14.9-6.41-18.82c0.34-0.64,0.78-1.26,1.38-1.87
			c7.15-7.26,24.83-17.29,38.63-18.58c7.8-0.73,9.56,0.1,10.26,2.18c1.18,1.6,1.78,4.59,0.43,10.12
			c-3.29,13.46-17.06,28.55-25.29,34.57c-3.29,2.41-6.58,1.57-9.34-0.29C841.13,442.55,837.72,440.04,834.65,436.68z"/>
		<path class="st5" d="M770.11,399c-8.8-3.06-14.93-8.87-14.59-13.51c-0.01-0.72,0.09-1.48,0.32-2.29
			c2.84-9.79,13.62-27.02,25.15-34.71c6.52-4.35,8.46-4.45,10.06-2.96c1.8,0.85,3.75,3.19,5.19,8.7
			c3.51,13.41-1.44,33.23-5.82,42.44c-1.75,3.68-5.04,4.51-8.36,4.18C778.6,401.08,774.4,400.49,770.11,399z"/>
		<path class="st5" d="M942.39,566.09c-1.98-9.11-0.23-17.37,3.91-19.5c0.61-0.38,1.31-0.7,2.13-0.92
			c9.83-2.69,30.15-2.49,42.73,3.32c7.11,3.29,8.22,4.89,7.78,7.04c0.22,1.98-0.76,4.86-4.7,8.97c-9.6,10-29.09,16.13-39.23,17.2
			c-4.06,0.43-6.48-1.95-7.94-4.94C945.05,574.41,943.36,570.53,942.39,566.09z"/>
		<path class="st5" d="M924.26,512.75c-5.26-7.69-6.75-16.01-3.71-19.53c0.42-0.58,0.95-1.14,1.62-1.65
			c8.1-6.19,27-13.64,40.85-12.98c7.83,0.37,9.45,1.44,9.85,3.59c0.94,1.75,1.12,4.79-0.99,10.08
			c-5.14,12.87-20.89,25.88-29.88,30.69c-3.6,1.92-6.74,0.63-9.21-1.6C929.85,519.46,926.82,516.5,924.26,512.75z"/>
		<path class="st5" d="M886.84,452.11c-5.26-7.69-6.75-16.01-3.71-19.53c0.42-0.58,0.95-1.14,1.62-1.65
			c8.1-6.19,27-13.64,40.85-12.98c7.83,0.37,9.45,1.44,9.85,3.59c0.94,1.75,1.12,4.79-0.99,10.08
			c-5.14,12.87-20.89,25.88-29.88,30.69c-3.6,1.92-6.74,0.63-9.21-1.6C892.43,458.82,889.41,455.86,886.84,452.11z"/>
		<path class="st5" d="M823.49,386.94c-8.02-4.75-12.88-11.66-11.62-16.14c0.14-0.71,0.38-1.43,0.77-2.19
			c4.72-9.03,18.71-23.78,31.53-29.03c7.25-2.97,9.18-2.69,10.45-0.91c1.6,1.19,3.04,3.87,3.37,9.55
			c0.78,13.84-7.99,32.29-14.11,40.44c-2.45,3.26-5.84,3.42-9.02,2.44C831.4,390.66,827.4,389.25,823.49,386.94z"/>
		<path class="st5" d="M677.49,391.21c-7.27,5.84-15.44,7.96-19.19,5.21c-0.61-0.38-1.21-0.86-1.77-1.49
			c-6.8-7.6-15.69-25.87-16.1-39.72c-0.23-7.83,0.71-9.54,2.82-10.1c1.67-1.08,4.69-1.49,10.13,0.21
			c13.23,4.13,27.42,18.83,32.9,27.42c2.19,3.44,1.15,6.67-0.88,9.31C683.75,385.12,681.03,388.36,677.49,391.21z"/>
		<path class="st5" d="M695.55,347.09c-8.07,4.66-16.47,5.51-19.76,2.22c-0.55-0.47-1.06-1.03-1.53-1.74
			c-5.56-8.55-11.56-27.96-9.85-41.72c0.97-7.78,2.16-9.32,4.33-9.55c1.82-0.81,4.86-0.76,9.98,1.75
			c12.44,6.1,24.22,22.8,28.33,32.13c1.64,3.73,0.12,6.77-2.29,9.06C702.67,342.02,699.49,344.82,695.55,347.09z"/>
		<path class="st5" d="M802.59,343.69c-8.28-4.29-13.51-10.92-12.5-15.46c0.1-0.71,0.3-1.45,0.65-2.22
			c4.21-9.28,17.35-24.79,29.86-30.75c7.08-3.37,9.01-3.2,10.38-1.49c1.66,1.1,3.26,3.69,3.9,9.35
			c1.56,13.77-6.18,32.68-11.83,41.17c-2.26,3.4-5.64,3.74-8.87,2.95C810.69,346.96,806.62,345.78,802.59,343.69z"/>
		<path class="st5" d="M766.28,328.61c-9-2.44-15.52-7.8-15.5-12.45c-0.06-0.72-0.02-1.48,0.16-2.31
			c2.14-9.97,11.69-27.91,22.65-36.39c6.2-4.8,8.13-5.04,9.83-3.66c1.85,0.72,3.97,2.92,5.79,8.31c4.44,13.13,0.9,33.25-2.82,42.74
			c-1.49,3.8-4.71,4.86-8.05,4.76C774.89,330.09,770.67,329.8,766.28,328.61z"/>
		<path class="st5" d="M726.53,309.07c-9.17,1.69-17.37-0.32-19.36-4.53c-0.36-0.62-0.66-1.33-0.85-2.15
			c-2.38-9.91-1.52-30.22,4.69-42.6c3.52-7,5.15-8.06,7.28-7.55c1.98-0.15,4.84,0.91,8.82,4.99c9.68,9.92,15.19,29.59,15.93,39.76
			c0.3,4.07-2.15,6.42-5.2,7.77C734.93,306.67,731,308.24,726.53,309.07z"/>
		<path class="st5" d="M870.73,380c-5.71-7.37-7.68-15.58-4.85-19.28c0.39-0.61,0.88-1.19,1.52-1.75
			c7.72-6.66,26.15-15.21,40.01-15.37c7.84-0.09,9.52,0.88,10.05,3.01c1.05,1.69,1.41,4.72-0.39,10.12
			c-4.37,13.15-19.33,27.07-28.02,32.39c-3.48,2.13-6.69,1.03-9.29-1.05C876.71,386.37,873.51,383.59,870.73,380z"/>
		<path class="st5" d="M918.84,397.21c-5.71-7.37-7.68-15.58-4.85-19.28c0.39-0.61,0.88-1.19,1.52-1.75
			c7.72-6.66,26.15-15.21,40.01-15.37c7.84-0.09,9.52,0.88,10.05,3.01c1.05,1.69,1.41,4.72-0.39,10.12
			c-4.37,13.15-19.33,27.07-28.02,32.39c-3.48,2.13-6.69,1.03-9.29-1.05C924.82,403.58,921.62,400.8,918.84,397.21z"/>
		<path class="st5" d="M947.36,450.29c-3.31-8.72-2.79-17.14,0.99-19.86c0.55-0.47,1.19-0.88,1.97-1.23
			c9.33-4.11,29.46-6.91,42.76-3.01c7.52,2.21,8.85,3.63,8.73,5.81c0.51,1.92-0.03,4.92-3.33,9.57
			c-8.02,11.3-26.39,20.24-36.26,22.79c-3.95,1.02-6.7-0.97-8.58-3.72C951.22,458.13,948.98,454.54,947.36,450.29z"/>
		<path class="st5" d="M980.75,520.85c-3.31-8.72-2.79-17.14,0.99-19.86c0.55-0.47,1.19-0.88,1.97-1.23
			c9.33-4.11,29.46-6.91,42.76-3.01c7.52,2.21,8.85,3.63,8.73,5.81c0.51,1.92-0.03,4.92-3.33,9.57
			c-8.02,11.3-26.39,20.24-36.26,22.79c-3.95,1.02-6.7-0.97-8.58-3.72C984.61,528.69,982.36,525.1,980.75,520.85z"/>
		<path class="st5" d="M858.67,330.74c-7.54-5.48-11.74-12.81-10.06-17.15c0.2-0.69,0.51-1.39,0.97-2.1
			c5.54-8.56,20.84-21.93,34.1-25.97c7.5-2.28,9.39-1.82,10.49,0.07c1.48,1.33,2.67,4.13,2.46,9.83
			c-0.51,13.85-10.97,31.4-17.82,38.95c-2.74,3.02-6.13,2.86-9.21,1.59C866.2,335.19,862.35,333.41,858.67,330.74z"/>
		<path class="st5" d="M920.95,338.68c-7.54-5.48-11.74-12.81-10.06-17.15c0.2-0.69,0.51-1.39,0.97-2.1
			c5.54-8.55,20.84-21.93,34.1-25.97c7.5-2.28,9.39-1.82,10.49,0.07c1.48,1.33,2.67,4.13,2.46,9.83
			c-0.51,13.85-10.97,31.4-17.82,38.95c-2.74,3.02-6.13,2.86-9.21,1.59C928.47,343.12,924.62,341.35,920.95,338.68z"/>
		<path class="st5" d="M732.8,377.35c-9.31-0.48-16.82-4.34-17.78-8.9c-0.21-0.69-0.33-1.45-0.33-2.29
			c-0.01-10.19,5.53-29.75,14.45-40.35c5.04-6,6.88-6.64,8.83-5.65c1.96,0.31,4.49,2.01,7.42,6.9c7.12,11.89,7.91,32.31,6.28,42.37
			c-0.65,4.03-3.58,5.74-6.86,6.36C741.53,376.98,737.34,377.59,732.8,377.35z"/>
		<path class="st5" d="M878.97,550.99c-2.59-8.95-1.4-17.31,2.58-19.72c0.58-0.42,1.26-0.79,2.06-1.06
			c9.63-3.35,29.92-4.52,42.86,0.44c7.32,2.8,8.53,4.33,8.24,6.49c0.35,1.96-0.43,4.9-4.09,9.27c-8.9,10.62-27.93,18.06-37.98,19.81
			c-4.02,0.7-6.6-1.5-8.25-4.4C882.18,559.11,880.23,555.35,878.97,550.99z"/>
		<path class="st5" d="M864.79,610.8c6.07-7.08,13.71-10.67,17.9-8.65c0.67,0.26,1.35,0.62,2.02,1.14
			c8.08,6.22,20.18,22.54,23.13,36.08c1.67,7.66,1.06,9.5-0.92,10.45c-1.45,1.37-4.34,2.33-9.99,1.66
			c-13.76-1.62-30.42-13.46-37.39-20.9c-2.79-2.98-2.36-6.34-0.85-9.31C859.76,617.95,861.84,614.25,864.79,610.8z"/>
		<path class="st5" d="M894.38,588.54c1-9.27,5.28-16.55,9.88-17.26c0.7-0.17,1.46-0.25,2.31-0.2c10.18,0.56,29.39,7.18,39.48,16.68
			c5.71,5.37,6.25,7.24,5.15,9.14c-0.42,1.94-2.26,4.37-7.3,7.02c-12.27,6.44-32.7,6.09-42.65,3.9c-3.98-0.88-5.53-3.9-5.96-7.2
			C894.26,597.28,893.89,593.06,894.38,588.54z"/>
		<path class="st5" d="M836.34,661.94c7.71-5.24,16.03-6.69,19.55-3.64c0.58,0.42,1.14,0.95,1.65,1.63
			c6.16,8.12,13.55,27.05,12.83,40.9c-0.4,7.83-1.48,9.45-3.63,9.84c-1.75,0.94-4.8,1.11-10.08-1.02
			c-12.85-5.18-25.81-20.99-30.58-30c-1.91-3.61-0.61-6.74,1.63-9.21C829.61,667.51,832.58,664.49,836.34,661.94z"/>
		<path class="st5" d="M879.23,673.03c3.87-8.48,10.23-14.04,14.82-13.26c0.72,0.06,1.47,0.23,2.25,0.54
			c9.48,3.74,25.62,16.09,32.2,28.29c3.72,6.9,3.64,8.84,2.01,10.29c-1.01,1.71-3.52,3.44-9.15,4.36
			c-13.68,2.24-32.95-4.54-41.71-9.76c-3.5-2.09-4.02-5.44-3.38-8.72C876.37,681.28,877.34,677.16,879.23,673.03z"/>
		<path class="st5" d="M802.39,681.21c8.97-2.55,17.32-1.32,19.7,2.68c0.42,0.59,0.78,1.26,1.05,2.06
			c3.3,9.64,4.38,29.94-0.64,42.86c-2.84,7.31-4.37,8.51-6.53,8.2c-1.96,0.34-4.9-0.45-9.25-4.13
			c-10.58-8.95-17.92-28.02-19.63-38.07c-0.68-4.02,1.53-6.59,4.44-8.23C794.25,684.39,798.02,682.46,802.39,681.21z"/>
		<path class="st5" d="M786.75,448.72c8.05,4.69,16.45,5.57,19.75,2.29c0.55-0.46,1.07-1.03,1.53-1.74
			c5.59-8.52,11.66-27.92,10-41.68c-0.94-7.78-2.12-9.32-4.3-9.57c-1.81-0.81-4.86-0.78-9.98,1.71
			c-12.47,6.05-24.31,22.71-28.45,32.02c-1.66,3.73-0.15,6.77,2.26,9.07C779.65,443.63,782.82,446.43,786.75,448.72z"/>
		<path class="st5" d="M829.67,572.37c1.38-9.22,5.96-16.32,10.58-16.83c0.71-0.14,1.47-0.19,2.32-0.11
			c10.15,0.98,29.07,8.39,38.76,18.3c5.48,5.6,5.94,7.49,4.77,9.34c-0.5,1.92-2.44,4.28-7.59,6.71
			c-12.53,5.93-32.92,4.74-42.78,2.14c-3.94-1.04-5.37-4.12-5.66-7.44C829.19,581.1,828.99,576.87,829.67,572.37z"/>
		<path class="st5" d="M808.7,605.09c7.01-6.15,15.08-8.62,18.95-6.02c0.63,0.35,1.25,0.81,1.84,1.41
			c7.12,7.3,16.78,25.17,17.79,38.99c0.57,7.82-0.3,9.56-2.39,10.21c-1.62,1.15-4.62,1.69-10.13,0.23
			c-13.39-3.56-28.2-17.64-34.05-25.99c-2.34-3.34-1.44-6.61,0.48-9.34C802.7,611.45,805.28,608.08,808.7,605.09z"/>
		<path class="st5" d="M666.64,440.12c-7.01,6.15-15.08,8.62-18.95,6.02c-0.63-0.35-1.25-0.81-1.84-1.41
			c-7.12-7.3-16.78-25.17-17.79-38.99c-0.57-7.82,0.3-9.56,2.39-10.21c1.62-1.15,4.62-1.69,10.13-0.23
			c13.39,3.56,28.2,17.64,34.05,25.99c2.34,3.34,1.44,6.61-0.48,9.34C672.64,433.76,670.06,437.12,666.64,440.12z"/>
		<path class="st5" d="M705.54,431.31c9.32-0.2,16.94-3.83,18.04-8.35c0.23-0.68,0.37-1.44,0.4-2.28
			c0.32-10.19-4.62-29.9-13.22-40.77c-4.86-6.15-6.68-6.85-8.66-5.92c-1.97,0.25-4.55,1.87-7.62,6.67
			c-7.48,11.67-8.89,32.05-7.56,42.16c0.53,4.05,3.41,5.85,6.66,6.56C696.82,430.67,700.99,431.41,705.54,431.31z"/>
		<path class="st1" d="M661.71,532.31c-4.18,8.33-10.73,13.66-15.28,12.72c-0.71-0.09-1.46-0.28-2.23-0.62
			c-9.34-4.08-25.03-17-31.16-29.43c-3.47-7.03-3.32-8.97-1.63-10.36c1.07-1.67,3.65-3.31,9.3-4.03
			c13.75-1.75,32.77,5.72,41.33,11.25c3.43,2.22,3.82,5.58,3.07,8.83C664.87,524.16,663.75,528.25,661.71,532.31z"/>
	</g>
	<rect x="312.23" y="1612.38" class="st7" width="452.77" height="142.62"/>
	<text transform="matrix(1 0 0 1 369.8384 1662.1841)"><tspan x="0" y="0" class="st1 st8 st9 st10">Challenges</tspan><tspan x="17.28" y="72" class="st1 st8 st9 st10">geschafft!</tspan></text>
	
		<rect x="369.16" y="1406.31" transform="matrix(1 -1.803724e-03 1.803724e-03 1 -2.6746 0.9764)" class="st7" width="341.68" height="154.02"/>
	<text transform="matrix(1 -1.800000e-03 1.800000e-03 1 441.3498 1528.8207)" class="st6 st8 st11 st12">10</text>
	<path class="st3" d="M894.47,1791.5H207.53c-41.72,0-75.53-33.82-75.53-75.53v-304.93c0-41.72,33.82-75.53,75.53-75.53h686.93
		c41.72,0,75.53,33.82,75.53,75.53v304.93C970,1757.68,936.18,1791.5,894.47,1791.5z"/>
	<path class="st6" d="M392.73,1125c29.87,0,262.09,0,262.09,0l-43.68,206.42H458.26L392.73,1125z"/>
	<rect x="4.5" y="84.38" class="st7" width="1076" height="83.62"/>
	<text transform="matrix(1 0 0 1 344.0527 142.4839)" class="st13 st8 st14 st10">Dein Erfolg</text>
	<g>
		<rect x="133" y="1682" class="st7" width="838" height="95"/>
		<text transform="matrix(1 0 0 1 222.7266 1731.7993)" class="st1 st8 st9 st10">Challenges geschafft!</text>
		<rect x="133" y="1381.38" class="st7" width="840" height="149.62"/>
		<text transform="matrix(1 0 0 1 320.5342 1431.1841)" class="st1 st8 st9 st10">Du hast bereits</text>
		
			<rect x="369.16" y="1496.31" transform="matrix(1 -1.803724e-03 1.803724e-03 1 -2.837 0.9766)" class="st7" width="341.68" height="154.02"/>
		<text transform="matrix(1 -1.800000e-03 1.800000e-03 1 441.3498 1618.8207)" class="st6 st8 st11 st12">47</text>
	</g>
</g>
</svg>
