<svg width="102" height="173" viewBox="0 0 102 173" fill="none" xmlns="http://www.w3.org/2000/svg">
  <path d="M81.076 136.739C81.076 136.739 77.9246 153.693 74.3739 160.658C70.8233 167.623 75.6345 169.64 73.2394 171.919C70.8443 174.199 66.0226 168.253 65.7705 165.343C65.5184 162.433 69.4367 159.65 71.4641 154.586C73.4915 149.523 77.5359 136.728 77.5359 136.728L81.076 136.739Z" fill="#93A583"/>
  <path d="M50.486 133.261L51.5365 134.312C51.5365 134.312 50.2759 148.861 48.1225 155.826C45.969 162.79 45.7169 163.799 46.8619 167.087C48.0069 170.375 44.9605 172.654 43.3218 171.005C41.6831 169.356 37.8803 165.438 38.8888 162.024C39.8972 158.61 43.9521 155.195 45.8534 147.474C47.7548 139.753 48.8893 131.654 48.8893 131.654" fill="#93A583"/>
  <path d="M95.7721 132.841C98.4298 137.568 94.7216 145.51 93.6711 148.126C92.6206 150.741 91.4231 154.271 94.522 155.322C97.6209 156.372 100.94 153.746 101.875 143.63C102.81 133.514 98.3562 128.272 92.8097 123.671C90.7613 121.979 85.2463 119.469 85.2463 119.469L84.4269 122.074C84.4269 122.074 89.7003 122.053 95.7721 132.841Z" fill="#93A583"/>
  <path d="M46.8198 117.494C46.8198 117.494 39.3299 118.912 33.3947 111.454C27.4595 103.995 24.0559 93.5955 23.2786 90.0029C22.5012 86.4102 22.1651 83.1958 20.6419 84.4143C19.1187 85.6329 17.7531 83.6895 16.9127 81.7881C16.0723 79.8868 13.5932 75.8319 10.5363 80.0443C7.47939 84.2568 9.2337 89.7087 10.8094 93.5955C12.3851 97.4823 31.2937 117.242 35.8213 118.902C43.1746 121.591 45.9689 120.792 49.3935 120.341C52.8181 119.889 46.8198 117.494 46.8198 117.494Z" fill="#93A583"/>
  <path d="M85.635 115.95C85.635 115.95 85.5195 117 85.3094 118.733C84.6791 123.807 83.2084 134.238 81.8007 136.508C79.8889 139.543 77.1891 139.092 67.3041 138.083C57.4191 137.075 46.2946 137.863 45.9479 133.02C45.6013 128.177 46.5152 113.239 46.5152 113.239L85.635 115.95Z" fill="#637454"/>
  <path d="M87.4418 67.3335C81.9163 61.2933 71.1069 53.8139 54.0156 57.8792C36.9243 61.9446 32.5438 78.7522 32.5438 84.9185C32.5438 98.9424 36.7457 107.189 44.4247 114.227C51.1478 120.425 64.3838 126.665 69.9093 126.833C75.4349 127.001 80.5507 125.782 87.4418 113.04C94.333 100.298 99.1336 80.1493 87.4418 67.3335Z" fill="#93A583"/>
  <path d="M65.3818 66.6297C61.327 66.6297 57.7343 69.5501 58.4171 77.5337C59.0999 85.5173 58.5327 100.581 57.5137 102.157C56.4947 103.733 53.0176 104.626 52.6815 109.804C52.3453 114.983 55.3813 115.204 57.1776 114.637C58.9739 114.069 61.3795 115.54 61.1169 118.838C60.8542 122.137 62.1673 126.927 66.8525 127.158C71.5376 127.389 74.0483 123.786 74.8361 120.53C75.624 117.273 76.4118 115.277 78.4287 117.042C80.4456 118.807 84.9522 115.466 84.5005 112.546C84.0488 109.626 79.7839 107.829 78.3132 104.899C76.8425 101.968 77.7459 94.2153 76.853 86.5783C75.9601 78.9413 74.4895 66.6297 65.3818 66.6297Z" fill="#F0E8CE"/>
  <path d="M85.1308 0.796234C85.5405 1.77318 86.0343 7.39323 88.4294 15.0302C90.8245 22.6672 93.23 32.1215 89.4798 46.9543C85.7296 61.787 83.3345 66.7348 78.3868 64.0455C73.439 61.3563 78.5338 55.7993 80.036 50.7045C81.5382 45.6096 87.8306 35.1154 86.0342 24.7786C84.2379 14.4419 82.4416 6.79446 82.8828 3.64303C83.324 0.491594 84.364 -1.05261 85.1308 0.796234Z" fill="#637454"/>
  <path d="M56.5788 51.7549C56.3057 55.5891 56.978 62.1756 52.6605 62.9215C48.343 63.6673 47.9648 58.7196 48.9418 53.1835C49.9187 47.6475 52.5344 26.5014 54.1102 23.1294C55.6859 19.7573 62.9552 9.93537 64.7515 7.84491C66.5478 5.75446 69.3946 1.0273 70.7497 2.00425C72.1048 2.98119 70.4136 8.37015 68.9639 10.7022C67.5142 13.0343 61.1484 21.6482 60.2555 27.5624C59.3626 33.4766 56.7153 49.801 56.5788 51.7549Z" fill="#637454"/>
  <path d="M91.4231 73.6994C91.2642 72.9888 91.3836 72.2443 91.7568 71.619C92.13 70.9938 92.7286 70.5353 93.4296 70.3379C96.0137 69.4975 99.2702 69.8862 99.953 72.8695C100.636 75.8529 100.174 79.6661 97.1377 79.9498C94.1019 80.2334 92.274 78.4791 92.4736 77.5337C92.5438 77.2258 92.6909 76.9407 92.9011 76.705C93.1113 76.4693 93.3777 76.2906 93.6756 76.1858C93.9735 76.0809 94.2931 76.0531 94.6046 76.1051C94.9161 76.1571 95.2094 76.2872 95.457 76.4832C96.7491 77.6072 98.3983 75.1806 97.705 73.7834C97.5454 73.5201 97.3262 73.2979 97.0649 73.1349C96.8036 72.9718 96.5077 72.8725 96.201 72.8449C95.8943 72.8173 95.5854 72.8622 95.2992 72.9759C95.013 73.0897 94.7576 73.2692 94.5535 73.4998C93.8812 74.5608 91.4336 74.8864 91.4231 73.6994Z" fill="#637454"/>
  <path d="M37.0819 72.1552C37.3339 71.9072 37.5219 71.6018 37.6298 71.2651C37.7378 70.9285 37.7624 70.5706 37.7017 70.2223C37.5899 69.6464 37.308 69.1173 36.8922 68.7034C36.4764 68.2895 35.946 68.0099 35.3696 67.9008C33.1636 67.3335 29.8966 68.0163 28.8461 70.3694C27.7957 72.7225 27.6801 75.6953 30.1907 77.3026C32.7014 78.9098 35.7688 78.6472 36.1469 77.3026C36.5251 75.958 34.6448 76.5882 33.7518 76.063C32.8589 75.5378 31.3883 75.3067 31.3147 73.0586C31.2412 70.8106 32.5543 69.9912 34.3506 70.4009C36.1469 70.8106 35.4011 72.0817 36.168 72.4178C36.3285 72.4762 36.5034 72.4822 36.6676 72.435C36.8318 72.3878 36.9768 72.2899 37.0819 72.1552V72.1552Z" fill="#637454"/>
  <path d="M88.713 87.1981C88.713 87.1981 88.0407 92.3664 84.511 92.3664C80.9814 92.3664 79.8679 87.1981 79.8679 87.1981" stroke="#F0EFEB" stroke-width="1.28" stroke-miterlimit="10" stroke-linecap="round"/>
  <path d="M55.2762 89.0994C55.2762 89.0994 54.4043 95.6964 49.8873 95.6964C45.3702 95.6964 43.9205 89.152 43.9205 89.152" stroke="#F0EFEB" stroke-width="1.28" stroke-miterlimit="10" stroke-linecap="round"/>
  <path d="M41.4624 64.4972C41.4624 64.4972 55.9485 68.1424 68.4702 67.5016C80.9919 66.8608 84.8682 64.5392 85.6351 64.1821C86.4019 63.8249 90.2887 68.7202 90.1731 69.5185C90.0575 70.3169 76.3698 75.2541 67.7559 75.3382C59.142 75.4222 37.7437 70.7476 37.7332 69.1508C37.7227 67.5541 40.8531 64.3502 41.4624 64.4972Z" fill="#E2B90F"/>
  <path d="M86.9691 73.6364C88.4713 75.1176 92.3161 78.9623 90.7193 81.2103C89.1226 83.4584 86.9691 73.6364 86.9691 73.6364Z" fill="#A2D6DA"/>
  <path d="M42.3554 77.3026C42.8596 79.3405 44.1412 84.6559 41.5885 85.7064C39.0359 86.7569 42.3554 77.3026 42.3554 77.3026Z" fill="#A2D6DA"/>
  <path d="M39.9919 73.6364C39.9919 73.6364 36.2416 77.6282 36.5673 80.6746C36.8929 83.721 39.7187 83.6684 39.9919 82.4919C40.265 81.3154 39.2985 74.5188 39.9919 73.6364Z" fill="#A2D6DA"/>
  <path d="M3.83424 92.2298L20.1587 79.8762C20.1587 79.8762 19.1922 76.9348 20.1587 76.2205C21.1251 75.5062 21.3773 75.065 22.0811 75.6533C22.7849 76.2415 27.6381 81.4519 27.1864 82.4078C26.7347 83.3638 23.121 83.0486 23.121 83.0486L6.82811 95.9695C6.82811 95.9695 7.55296 98.6797 5.70412 99.4466C3.85528 100.213 0 92.5975 0 92.5975C0 92.5975 0.55676 90.9902 1.68077 91.1478C2.48002 91.3164 3.22195 91.6891 3.83424 92.2298V92.2298Z" fill="#A2D6DA"/>
</svg>
