<svg width="111" height="196" viewBox="0 0 111 196" fill="none" xmlns="http://www.w3.org/2000/svg">
  <path d="M95.7155 130.849C100.722 126.797 103.709 119.005 104.252 115.681C104.794 112.356 95.9808 105.606 107.251 105.606C110.573 105.606 112.026 110.083 107.135 121.546C102.244 133.01 95.3925 136.95 87.9291 139.603C85.1722 140.577 78.8739 141.036 78.8739 141.036L79.6122 137.834C79.6122 137.834 84.284 140.096 95.7155 130.849Z" fill="#E2B90F"/>
  <path d="M48.1898 155.443C48.1898 155.443 51.6504 173.511 55.5494 180.933C59.4483 188.355 54.1651 190.504 56.7952 192.933C59.4253 195.362 64.72 189.026 64.9968 185.925C65.2737 182.825 60.971 179.858 58.7446 174.462C56.5183 169.067 52.0772 155.432 52.0772 155.432L48.1898 155.443Z" fill="#E2B90F"/>
  <path d="M64.1317 154.861L62.9781 155.98C62.9781 155.98 64.3624 171.485 66.7271 178.907C69.0919 186.328 69.3687 187.403 68.1114 190.907C66.854 194.411 70.1993 196.84 71.9988 195.082C73.7983 193.325 77.9741 189.149 76.8667 185.511C75.7593 181.873 71.3067 178.235 69.2188 170.007C67.1309 161.779 65.885 153.148 65.885 153.148" fill="#E2B90F"/>
  <path d="M21.9124 146.241C15.8794 147.159 8.76215 140.51 6.35126 138.484C3.94037 136.457 11.2538 134.006 3.75581 132.08C0.295209 131.162 -2.33486 143.7 8.13922 148.346C18.6133 152.991 25.8575 150.484 32.7902 146.611C35.3511 145.178 40.1152 140.588 40.1152 140.588L37.6005 138.808C37.6005 138.808 35.6741 144.137 21.9124 146.241Z" fill="#E2B90F"/>
  <path d="M36.7123 134.969C36.7123 134.969 36.8392 136.088 37.0699 137.935C37.762 143.342 39.3769 154.458 40.9227 156.876C43.0221 160.111 45.9867 159.63 56.8414 158.555C67.6962 157.48 79.9121 158.32 80.2928 153.159C80.6734 147.999 79.6699 132.08 79.6699 132.08L36.7123 134.969Z" fill="#A2D6DA"/>
  <path d="M34.7282 83.2169C40.7958 76.7801 52.6656 68.8097 71.4336 73.1419C90.2016 77.4741 95.0119 95.3851 95.0119 101.956C95.0119 116.901 90.3977 125.688 81.9654 133.189C74.5828 139.793 60.0483 146.443 53.9807 146.622C47.9131 146.801 42.2954 145.502 34.7282 131.924C27.161 118.345 21.8894 96.818 34.7282 83.2169Z" fill="#E2B90F"/>
  <path d="M58.9524 82.4109C63.405 82.4109 67.3501 85.5229 66.6003 94.0306C65.8505 102.538 66.4734 118.591 67.5923 120.27C68.7113 121.949 72.5295 122.901 72.8986 128.42C73.2677 133.939 69.934 134.174 67.9615 133.569C65.9889 132.965 63.3473 134.532 63.6357 138.047C63.9241 141.562 62.4822 146.667 57.3374 146.913C52.1926 147.159 49.4357 143.32 48.5706 139.849C47.7054 136.379 46.8403 134.252 44.6255 136.133C42.4107 138.013 37.462 134.454 37.958 131.342C38.4541 128.229 43.1374 126.315 44.7524 123.192C46.3673 120.069 45.3753 111.807 46.3558 103.669C47.3363 95.5307 48.9512 82.4109 58.9524 82.4109Z" fill="#F0E8CE"/>
  <path d="M37.2659 12.2557C36.816 13.2967 36.2738 19.2857 33.6438 27.424C31.0137 35.5624 28.3721 45.6373 32.4903 61.4438C36.6084 77.2502 39.2384 82.5228 44.6716 79.6571C50.1047 76.7913 44.5101 70.8694 42.8605 65.4402C41.211 60.0109 34.3013 48.8277 36.2738 37.8124C38.2464 26.7972 40.2189 18.6477 39.7344 15.2893C39.25 11.931 38.1195 10.2854 37.2659 12.2557Z" fill="#F0EFEB"/>
  <path d="M68.6189 66.5596C68.9188 70.6456 68.1805 77.6645 72.9216 78.4593C77.6626 79.2541 78.0779 73.9815 77.0051 68.0821C75.9323 62.1826 73.06 39.6483 71.3297 36.0549C69.5994 32.4615 61.6169 21.9948 59.6444 19.7671C57.6718 17.5394 54.5458 12.5019 53.0577 13.543C51.5696 14.5841 53.4269 20.3268 55.0187 22.8119C56.6106 25.2971 63.601 34.4765 64.5815 40.7789C65.562 47.0814 68.4689 64.4775 68.6189 66.5596Z" fill="#F0EFEB"/>
  <path d="M30.3564 89.9335C30.5309 89.1762 30.3998 88.3829 29.99 87.7166C29.5802 87.0502 28.9228 86.5616 28.1531 86.3513C25.3154 85.4557 21.7395 85.8699 20.9897 89.0491C20.2399 92.2283 20.7475 96.2919 24.0812 96.5942C27.4149 96.8964 29.422 95.0269 29.2029 94.0194C29.1258 93.6913 28.9642 93.3875 28.7334 93.1363C28.5026 92.8852 28.21 92.6948 27.8829 92.583C27.5558 92.4713 27.2049 92.4417 26.8628 92.4972C26.5208 92.5526 26.1988 92.6912 25.9268 92.9C24.508 94.0978 22.6969 91.5119 23.4582 90.023C23.6335 89.7424 23.8743 89.5056 24.1611 89.3319C24.448 89.1581 24.773 89.0523 25.1098 89.0229C25.4466 88.9934 25.7859 89.0413 26.1001 89.1625C26.4143 89.2838 26.6948 89.475 26.9189 89.7208C27.6571 90.8514 30.3449 91.2097 30.3564 89.9335Z" fill="#F0EFEB"/>
  <path d="M90.0287 88.2991C89.752 88.0349 89.5455 87.7093 89.427 87.3506C89.3084 86.9918 89.2814 86.6105 89.3481 86.2394C89.4708 85.6256 89.7804 85.0617 90.237 84.6207C90.6936 84.1796 91.276 83.8817 91.9089 83.7654C94.3314 83.1609 97.9189 83.8885 99.0724 86.3961C100.226 88.9036 100.353 92.0716 97.5959 93.7844C94.8389 95.4971 91.4706 95.2173 91.0553 93.7844C90.6401 92.3515 92.7049 93.0232 93.6854 92.4635C94.6659 91.9037 96.2808 91.6574 96.3616 89.2618C96.4423 86.8662 95.0004 85.9931 93.0279 86.4297C91.0553 86.8662 91.8744 88.2208 91.0323 88.579C90.856 88.6412 90.6639 88.6475 90.4836 88.5973C90.3034 88.547 90.1441 88.4426 90.0287 88.2991V88.2991Z" fill="#F0EFEB"/>
  <path d="M43.0222 109.837C43.0222 109.837 42.284 104.329 38.4081 104.329C34.5322 104.329 33.3094 109.837 33.3094 109.837" stroke="#F0EFEB" stroke-width="1.28" stroke-miterlimit="10" stroke-linecap="round"/>
  <path d="M70.0492 106.356C70.0492 106.356 70.9951 113.33 75.9668 113.33C80.9386 113.33 82.5189 106.356 82.5189 106.356" stroke="#F0EFEB" stroke-width="1.28" stroke-miterlimit="10" stroke-linecap="round"/>
  <path d="M25.6152 28.0845L41.0033 14.752L35.2357 0.098526L31.8443 6.44574L18.7978 3.64714L20.6204 14.0915L14.0798 16.8901L25.6152 28.0845Z" fill="#E2B90F"/>
  <path d="M37.2775 139.435C37.2775 139.435 34.8204 137.073 33.3093 138.192C31.7982 139.312 32.1558 140.297 32.1558 140.297C32.1558 140.297 30.933 138.965 29.7795 139.95C28.626 140.935 28.4875 145.738 28.4875 145.738L35.6279 143.185L37.2775 139.435Z" fill="#E2B90F"/>
  <path d="M92.6358 133.11C92.6358 133.11 90.1787 130.748 88.6676 131.868C87.1565 132.987 87.5141 133.972 87.5141 133.972C87.5141 133.972 86.2913 132.64 85.1378 133.625C83.9842 134.61 83.8458 139.413 83.8458 139.413L90.9862 136.86L92.6358 133.11Z" fill="#E2B90F"/>
</svg>
