<svg width="87" height="195" viewBox="0 0 87 195" fill="none" xmlns="http://www.w3.org/2000/svg">
  <path d="M28.8359 151.788C28.8359 151.788 32.6124 172.105 36.8671 180.451C41.1219 188.796 35.3566 191.213 38.2267 193.945C41.0967 196.677 46.8747 189.552 47.1768 186.065C47.4789 182.578 42.7835 179.242 40.354 173.175C37.9245 167.107 33.0781 151.775 33.0781 151.775L28.8359 151.788Z" fill="#93A583"/>
  <path d="M53.0052 149.925C53.0052 149.925 49.5686 170.305 50.6764 179.595C51.7841 188.885 45.5404 189.174 47.3154 192.737C49.0903 196.299 56.9453 191.591 58.4307 188.419C59.916 185.247 56.6557 180.501 56.4669 173.968C56.2781 167.435 56.9956 151.385 56.9956 151.385L53.0052 149.925Z" fill="#93A583"/>
  <path d="M23.5742 154.141C23.8008 160.637 23.1085 169.36 24.0022 172.633C24.896 175.906 25.8527 180.249 22.0133 181.08C18.174 181.911 17.0914 177.492 17.3935 165.332C17.6956 153.172 18.967 155.023 18.4761 145.028C18.325 141.856 18.4761 136.946 18.4761 136.946L21.6357 137.311C21.6357 137.311 23.4232 149.912 23.5742 154.141Z" fill="#93A583"/>
  <path d="M63.5414 146.941C64.5736 153.348 66.7765 161.808 66.638 165.118C66.4995 168.429 66.5121 172.822 69.8858 173.15C73.2594 173.477 73.3349 169.008 70.8173 157.112C68.2996 145.217 67.5318 147.193 66.059 137.349C65.5932 134.215 64.5106 129.431 64.5106 129.431L61.9175 130.186C61.9175 130.186 62.8364 142.774 63.5414 146.941Z" fill="#93A583"/>
  <path d="M17.595 128.978C17.595 128.978 17.7334 130.237 17.9852 132.314C18.7405 138.394 20.5028 150.894 22.1896 153.613C24.4806 157.251 27.7158 156.709 39.5612 155.501C51.4066 154.292 64.7373 155.237 65.1527 149.433C65.5681 143.63 64.473 125.73 64.473 125.73L17.595 128.978Z" fill="#637454"/>
  <path d="M15.4298 70.7707C22.0511 63.5326 35.0042 54.5698 55.485 59.4414C75.9658 64.313 81.1647 84.4413 81.1647 91.8054C81.1647 108.61 76.1295 118.492 66.9276 126.926C58.8712 134.353 43.0102 141.83 36.3889 142.032C29.7676 142.233 23.6372 140.773 15.3794 125.504C7.12164 110.234 1.41925 86.0778 15.4298 70.7707Z" fill="#93A583"/>
  <path d="M41.8647 69.8769C46.7237 69.8769 51.0288 73.3764 50.2106 82.9433C49.3924 92.5103 50.0721 110.562 51.2931 112.45C52.5142 114.338 56.6808 115.408 57.0837 121.614C57.4865 127.82 53.8485 128.084 51.696 127.404C49.5434 126.725 46.6607 128.487 46.9754 132.44C47.2901 136.392 45.7166 142.132 40.1024 142.409C34.4881 142.686 31.4795 138.369 30.5354 134.466C29.5913 130.564 28.6472 128.172 26.2303 130.287C23.8134 132.402 18.4131 128.399 18.9544 124.899C19.4957 121.4 24.6064 119.247 26.3688 115.735C28.1311 112.223 27.0485 102.933 28.1185 93.7817C29.1885 84.6301 30.9508 69.8769 41.8647 69.8769Z" fill="#F0E8CE"/>
  <path d="M29.201 17.9638C28.3324 17.0448 17.129 -1.11977 14.2464 8.04435C11.3637 17.2085 8.4936 28.5252 12.9875 46.2995C17.4815 64.0739 20.3516 70.0029 26.2805 66.7803C32.2095 63.5578 26.1043 56.8987 24.3042 50.7935C22.5041 44.6883 14.9639 32.1127 17.1164 19.7261C19.269 7.33942 30.4472 29.3308 33.1788 26.6747C33.7327 26.146 32.7634 21.7402 29.201 17.9638Z" fill="#637454"/>
  <path d="M52.4137 52.0523C52.7409 56.647 51.9353 64.5397 57.109 65.4334C62.2827 66.3272 62.7359 60.3982 61.5652 53.7643C60.3945 47.1304 55.8502 27.7825 54.0123 23.7417C52.1745 19.7009 49.3044 10.7383 47.026 7.16324C45.2385 4.36869 41.462 -1.00644 39.8382 0.164255C38.2143 1.33495 35.2687 15.2699 36.9933 18.0771C38.7178 20.8842 40.241 -1.64842 48.033 23.0494C50.173 29.8847 52.2122 49.7109 52.4137 52.0523Z" fill="#637454"/>
  <path d="M10.6715 78.3488C10.862 77.4972 10.7189 76.6051 10.2717 75.8558C9.82446 75.1065 9.10712 74.5571 8.26722 74.3206C5.17055 73.3135 1.26826 73.7793 0.450032 77.3543C-0.368192 80.9293 0.185673 85.4988 3.82363 85.8387C7.46158 86.1785 9.65191 84.0763 9.41273 82.9434C9.32858 82.5744 9.15233 82.2328 8.90046 81.9504C8.64859 81.6679 8.32929 81.4539 7.97234 81.3282C7.61538 81.2025 7.23243 81.1693 6.85916 81.2316C6.48589 81.2939 6.13448 81.4497 5.83773 81.6846C4.28939 83.0315 2.31305 80.1237 3.14386 78.4495C3.33508 78.1339 3.59784 77.8676 3.91091 77.6722C4.22398 77.4768 4.57863 77.3578 4.94617 77.3247C5.31372 77.2917 5.68388 77.3455 6.02681 77.4818C6.36973 77.6181 6.67578 77.8332 6.92028 78.1096C7.71333 79.3684 10.6715 79.7712 10.6715 78.3488Z" fill="#637454"/>
  <path d="M75.7897 76.4982C75.4878 76.201 75.2625 75.835 75.1331 75.4316C75.0037 75.0281 74.9742 74.5993 75.047 74.182C75.1809 73.4918 75.5188 72.8578 76.017 72.3618C76.5153 71.8658 77.1508 71.5308 77.8416 71.4C80.485 70.7203 84.4 71.5385 85.6588 74.3582C86.9176 77.178 87.0561 80.7404 84.0475 82.6663C81.039 84.5923 77.3632 84.2776 76.91 82.6663C76.4569 81.0551 78.7101 81.8104 79.7801 81.181C80.8501 80.5515 82.6125 80.2746 82.7006 77.5808C82.7887 74.8869 81.2152 73.9051 79.0626 74.396C76.91 74.8869 77.8038 76.4101 76.8849 76.8129C76.6925 76.8828 76.4829 76.89 76.2862 76.8335C76.0894 76.7769 75.9157 76.6596 75.7897 76.4982V76.4982Z" fill="#637454"/>
  <path d="M13.9067 94.5244C13.9067 94.5244 14.7124 100.718 18.942 100.718C23.1716 100.718 24.5059 94.5244 24.5059 94.5244" stroke="#F0EFEB" stroke-width="1.28" stroke-miterlimit="10" stroke-linecap="round"/>
  <path d="M53.9744 96.8406C53.9744 96.8406 55.0066 104.683 60.4321 104.683C65.8575 104.683 67.5821 96.8406 67.5821 96.8406" stroke="#F0EFEB" stroke-width="1.28" stroke-miterlimit="10" stroke-linecap="round"/>
  <path d="M70.0244 103.009C71.3839 105.124 74.8834 110.65 72.4161 112.853C69.9489 115.056 70.0244 103.009 70.0244 103.009Z" fill="#A2D6DA"/>
  <path d="M66.3991 107.603C65.5179 110.562 63.2772 118.228 67.0788 118.656C70.8804 119.084 66.3991 107.603 66.3991 107.603Z" fill="#A2D6DA"/>
</svg>
