<svg width="568" height="163" viewBox="0 0 568 163" fill="none" xmlns="http://www.w3.org/2000/svg">
  <path d="M187.176 157.996L201.52 156.339L196.093 120.004L216.323 117.607L216.605 153.203L229.327 151.828L234.684 45.3585L224.076 46.4863L218.331 106.893L197.538 109.748L194.26 46.5568L179.317 48.6714L187.176 157.996Z" fill="#637454"/>
  <path d="M315.568 142.383L337.842 40.2478L351.305 81.2357L368.433 37.1465L389.191 142.312L374.53 141.748L365.014 83.1389L351.551 105.695L341.401 83.4208L333.613 144.885L315.568 142.383Z" fill="#637454"/>
  <path d="M398.319 43.455L404.663 144.779L449.528 144.039L447.484 130.33L415.06 131.739L413.262 106.576L445.087 104.919L443.149 90.5047L413.368 91.7383L411.359 55.9311L444.84 54.5214L444.488 38.0276L398.319 43.455Z" fill="#637454"/>
  <path d="M470.955 61.0067C459.783 60.6542 458.938 73.2361 458.938 73.2361L462.849 74.963C462.849 74.963 464.294 66.6103 470.603 67.9143C476.912 69.2183 475.325 80.7076 475.325 80.7076C471.658 80.4544 467.978 80.9459 464.506 82.1526C459.501 84.1262 458.092 94.2763 465.563 97.9416C473.035 101.607 482.621 96.4613 482.621 96.4613C482.621 96.4613 482.127 61.4296 470.955 61.0067ZM464.964 89.2013C465.669 84.091 475.995 85.9237 475.995 85.9237L477.37 93.3952C471.449 96.8843 464.259 94.3468 464.999 89.2013H464.964Z" fill="#637454"/>
  <path d="M504.225 115.034C498.868 115.034 498.727 121.096 498.727 121.096L500.63 121.837C500.63 121.837 501.159 117.819 504.154 118.312C507.15 118.806 506.657 124.339 506.657 124.339C504.897 124.294 503.147 124.606 501.511 125.255C500.878 125.7 500.375 126.307 500.056 127.012C499.736 127.717 499.611 128.495 499.694 129.265C499.776 130.035 500.064 130.768 500.526 131.39C500.988 132.011 501.608 132.497 502.322 132.797C503.673 133.188 505.09 133.296 506.485 133.114C507.88 132.932 509.222 132.464 510.428 131.74C510.428 131.74 509.582 114.999 504.225 115.034ZM501.934 128.603C502.181 126.136 507.15 126.806 507.15 126.806L507.961 130.33C505.177 132.128 501.687 131.07 501.934 128.603Z" fill="#637454"/>
  <path d="M485.052 50.2219L489.986 96.7782L494.639 96.2495L489.105 49.5875L485.052 50.2219Z" fill="#637454"/>
  <path d="M512.824 103.333L513.071 132.021L515.961 131.986L515.327 103.192L512.824 103.333Z" fill="#637454"/>
  <path d="M518.322 103.052L518.604 131.74L521.458 131.705L520.824 102.911L518.322 103.052Z" fill="#637454"/>
  <path d="M507.925 64.2133C507.925 64.2133 498.304 66.046 499.502 81.1653C500.701 96.2847 510.428 101.183 516.772 98.7869C523.115 96.3904 529.353 64.0019 507.925 64.2133ZM514.692 90.4695C510.71 91.9144 504.577 88.8131 503.802 79.2974C503.027 69.7817 509.089 68.7244 509.089 68.7244C522.622 68.513 518.78 89.2007 514.727 90.5047L514.692 90.4695Z" fill="#637454"/>
  <path d="M525.617 63.9318L527.908 97.3424H532.913C532.913 97.3424 525.864 70.769 536.789 69.5355C547.715 68.302 539.785 97.7301 539.785 97.7301L543.31 98.012C543.31 98.012 551.274 76.0554 544.543 69.2182C542.724 67.3488 540.279 66.2176 537.677 66.042C535.074 65.8663 532.499 66.6586 530.446 68.2667V64.7424L525.617 63.9318Z" fill="#637454"/>
  <path d="M564.914 89.4473C564.985 90.0741 564.916 90.7088 564.71 91.3051C564.504 91.9014 564.168 92.4442 563.725 92.8936C563.282 93.343 562.745 93.6877 562.152 93.9024C561.559 94.1172 560.925 94.1965 560.297 94.1346C555.328 93.9232 555.046 85.641 554.729 83.9846C554.6 82.1849 554.671 80.3764 554.94 78.5924C554.94 78.5924 563.293 81.0594 566.077 77.2531C568.861 73.4468 565.866 62.3805 560.121 62.8739C554.376 63.3673 549.548 74.4337 551.416 83.8084C553.284 93.1831 556.35 97.9057 561.46 98.1171C566.57 98.3286 567.945 90.0817 567.945 90.0817L564.914 89.4473ZM560.438 66.9268C562.94 66.7506 563.962 74.2927 562.517 75.068C561.072 75.8434 556.138 74.469 556.138 74.469C555.962 70.8389 557.936 67.1031 560.438 66.9268Z" fill="#637454"/>
  <path d="M534.463 112.708L535.979 129.589H538.516C538.516 129.589 534.675 116.232 540.173 115.492C545.671 114.752 542.005 129.589 542.005 129.589H543.768C543.768 129.589 547.539 118.382 544.085 114.999C543.155 114.087 541.922 113.55 540.621 113.492C539.32 113.433 538.044 113.857 537.036 114.681V112.884L534.463 112.708Z" fill="#637454"/>
  <path d="M532.313 126.03C532.371 126.343 532.358 126.665 532.276 126.972C532.194 127.28 532.045 127.565 531.839 127.808C531.634 128.051 531.376 128.245 531.087 128.376C530.797 128.507 530.482 128.573 530.163 128.568C527.626 128.568 527.168 124.479 526.956 123.669C526.857 122.767 526.857 121.857 526.956 120.955C526.956 120.955 531.256 121.871 532.525 119.863C533.794 117.854 531.855 112.356 529.001 112.814C526.146 113.272 524.172 119.052 525.476 123.739C526.78 128.427 528.507 130.788 531.115 130.577C533.723 130.365 534.076 126.277 534.076 126.277L532.313 126.03ZM529.177 114.823C530.446 114.647 531.186 118.347 530.551 118.841C529.917 119.334 527.309 118.841 527.309 118.841C527.062 116.973 527.908 115.034 529.142 114.823H529.177Z" fill="#637454"/>
  <path d="M473.74 108.373C473.74 108.373 459.643 106.047 460.03 120.85C460.418 135.652 479.379 133.008 479.379 133.008L479.132 128.533C479.132 128.533 465.528 131.881 464.753 121.202C464.502 119.981 464.58 118.715 464.978 117.534C465.376 116.352 466.08 115.297 467.019 114.477C467.957 113.656 469.097 113.1 470.321 112.863C471.545 112.627 472.81 112.719 473.986 113.131L473.74 108.373Z" fill="#637454"/>
  <path d="M479.661 106.118L481.07 133.008L484.982 132.797C484.982 132.797 480.507 120.426 488.295 120.003C496.084 119.581 491.573 132.48 491.573 132.48L494.851 133.925C494.851 133.925 497.071 122.682 495.309 119.616C494.525 118.139 493.271 116.966 491.745 116.283C490.219 115.6 488.509 115.446 486.886 115.845C486.11 115.941 485.366 116.21 484.708 116.631C484.049 117.051 483.493 117.614 483.079 118.277L483.573 105.906L479.661 106.118Z" fill="#637454"/>
  <path d="M560.685 112.496H557.795V113.377C557.795 113.377 547.222 110.17 548.103 121.448C548.984 132.726 559.698 126.311 559.698 126.311C559.698 126.311 561.143 136.497 556.491 136.321C555.402 136.398 554.327 136.041 553.501 135.328C552.676 134.614 552.166 133.603 552.085 132.514L549.618 132.268C549.618 132.268 549.9 137.942 553.424 139.07C554.377 139.395 555.389 139.513 556.391 139.415C557.393 139.317 558.363 139.005 559.234 138.501C560.106 137.997 560.859 137.312 561.444 136.492C562.028 135.672 562.43 134.736 562.623 133.748C562.422 126.63 561.774 119.532 560.685 112.496ZM555.151 125.113C551.204 125.748 550.957 121.871 550.781 120.073C550.686 119.144 550.929 118.212 551.467 117.448C552.004 116.683 552.799 116.139 553.706 115.915C554.376 115.7 555.083 115.63 555.782 115.709C556.481 115.788 557.155 116.014 557.759 116.373L558.852 123.668C558.852 123.668 559.099 124.444 555.151 125.113Z" fill="#637454"/>
  <path d="M270.316 38.697C270.316 38.697 241.487 41.7632 241.451 86.6983C241.416 131.633 268.941 148.374 288.184 143.087C307.427 137.801 333.436 43.1729 270.316 38.697ZM284.061 117.818C272.078 120.919 254.456 110.346 254.456 82.1519C254.456 53.9573 272.642 51.9132 272.642 51.9132C312.572 54.8384 296.149 114.54 284.061 117.818Z" fill="#637454"/>
  <path d="M138.33 45.358V157.995L37.8865 163L19.3838 49.5873H0L76.6541 0L153.308 45.358H138.33Z" fill="#637454"/>
  <path d="M98.6104 103.299C100.549 107.175 97.8351 113.66 97.0597 115.81C96.2844 117.96 95.4032 120.85 97.6941 121.696C99.9849 122.541 102.417 120.427 103.051 112.145C103.432 109.087 103.02 105.983 101.853 103.131C100.687 100.279 98.8053 97.7758 96.3901 95.8623C94.6559 94.5228 92.8039 93.3432 90.8569 92.338L90.2576 94.4525C90.2576 94.4525 94.1345 94.4173 98.6104 103.299Z" fill="#E2B90F"/>
  <path d="M65.5527 110.1C66.743 116.784 68.5844 123.335 71.0507 129.66C73.9406 135.334 70.0284 136.99 71.9668 138.858C73.9052 140.726 77.8526 135.863 78.064 133.466C78.2755 131.07 75.0683 128.814 73.4119 124.691C71.7555 120.567 68.4425 110.1 68.4425 110.1H65.5527Z" fill="#E2B90F"/>
  <path d="M89.0593 106.611L89.9404 107.28C90.9202 113.11 91.5323 118.995 91.7731 124.902C91.7731 130.787 91.7731 131.598 93.0771 134.065C94.3811 136.532 92.9009 138.788 91.4911 137.589C90.0814 136.391 86.8743 134.065 86.8743 131.14C86.8743 128.215 88.8832 124.902 88.6717 118.488C88.4602 112.073 87.6848 105.448 87.6848 105.448" fill="#E2B90F"/>
  <path d="M50.0448 85.6769C46.5409 81.8718 44.3537 77.0405 43.8067 71.8968C43.8067 68.9011 43.419 64.8481 40.2824 64.8481C37.1457 64.8481 36.758 73.1655 39.6127 78.9454C42.9932 85.0786 47.9594 90.1909 53.992 93.7476C56.2476 95.2983 61.675 98.5055 61.675 98.5055L61.393 95.5803C61.393 95.5803 59.3138 94.9106 50.0448 85.6769Z" fill="#E2B90F"/>
  <path d="M59.7371 91.3859C59.7371 91.3859 59.7371 92.2669 60.0191 93.6767C60.4313 98.6073 61.3887 103.477 62.8738 108.197C64.4245 110.664 66.6447 110.312 74.7154 109.466C82.7861 108.62 91.8789 109.289 92.3371 105.342C92.7952 101.395 91.8789 89.1655 91.8789 89.1655L59.7371 91.3859Z" fill="#F0EFEB"/>
  <path d="M58.2574 51.7019C61.6285 47.9831 65.9755 45.2851 70.804 43.9144C75.6325 42.5438 80.7488 42.5555 85.5709 43.9484C90.4958 45.2435 94.8711 48.0936 98.0461 52.075C101.221 56.0564 103.026 60.9563 103.193 66.0459C103.51 70.515 102.802 74.9977 101.123 79.1513C99.4428 83.305 96.8358 87.0196 93.5006 90.0114C88.0027 95.0864 77.2181 100.161 72.6718 100.302C68.1254 100.443 63.9667 99.4566 58.3277 89.0246C52.6888 78.5926 48.7065 62.1339 58.2574 51.7019Z" fill="#E2B90F"/>
  <path d="M76.301 55.2258C78.5918 55.2258 80.6006 56.8823 80.213 61.3582C79.8176 65.9663 79.9833 70.6054 80.7064 75.1735C81.2703 76.0546 83.2438 76.548 83.42 79.4732C83.5962 82.3984 81.9047 82.5042 80.8826 82.187C79.8605 81.8698 78.5565 82.6804 78.6623 84.5131C78.768 86.3457 78.0985 89.0594 75.4552 89.1651C74.3821 89.1947 73.335 88.8314 72.5108 88.1435C71.6866 87.4556 71.142 86.4904 70.9793 85.4293C70.5211 83.5967 70.0982 82.4689 68.9704 83.491C67.8426 84.513 65.446 82.6099 65.446 80.9535C65.446 79.297 68.0893 78.3102 68.9704 76.6538C69.5121 73.2503 69.7831 69.8091 69.7809 66.3627C70.38 62.0983 71.1908 55.2258 76.301 55.2258Z" fill="#F0E8CE"/>
  <path d="M53.3232 70.2399C53.3051 69.6413 53.0568 69.0729 52.6301 68.6527C52.2034 68.2326 51.6313 67.9932 51.0325 67.9844C48.8122 67.9844 46.3099 68.8301 46.3804 71.3324C46.4508 73.8347 47.6139 76.7599 49.9047 76.3722C52.1955 75.9845 53.4289 74.2223 53.1117 73.5175C52.998 73.2844 52.8265 73.0844 52.6133 72.9367C52.4002 72.7889 52.1526 72.6984 51.8944 72.6736C51.6363 72.6489 51.3761 72.6908 51.1388 72.7954C50.9014 72.8999 50.695 73.0637 50.539 73.2709C49.7637 74.4339 47.9309 72.8479 48.2129 71.6144C48.2782 71.3647 48.4037 71.1347 48.5781 70.9444C48.7525 70.7541 48.9707 70.6093 49.2138 70.5224C49.4569 70.4356 49.7176 70.4094 49.9731 70.4462C50.2286 70.4829 50.4712 70.5815 50.6799 70.7333C51.561 71.5792 53.5699 71.1562 53.3232 70.2399Z" fill="#F0EFEB"/>
  <path d="M102.17 63.7554C101.966 63.5502 101.815 63.299 101.729 63.0229C101.643 62.7468 101.625 62.454 101.677 62.1694C101.767 61.6981 101.996 61.2649 102.336 60.9256C102.675 60.5862 103.108 60.3566 103.58 60.2664C104.564 59.9714 105.618 60.0082 106.58 60.3712C107.542 60.7342 108.357 61.4032 108.901 62.2751C109.457 63.1877 109.652 64.2742 109.45 65.3231C109.248 66.372 108.663 67.3083 107.809 67.9494C105.765 69.2534 103.262 69.0419 102.945 67.9494C102.628 66.8568 104.179 67.3502 104.919 66.9273C105.659 66.5044 106.857 66.293 106.893 64.4603C106.928 62.6277 105.87 61.958 104.425 62.2751C102.98 62.5923 103.544 63.6496 102.945 63.9316C102.814 63.9889 102.668 64.0028 102.529 63.9711C102.389 63.9393 102.263 63.8638 102.17 63.7554Z" fill="#F0EFEB"/>
  <path d="M57.094 68.0549C57.094 68.0549 57.5873 74.011 60.1249 74.011C62.6624 74.011 63.6492 68.0549 63.6492 68.0549" stroke="#F0EFEB" stroke-width="0.35" stroke-miterlimit="10" stroke-linecap="round"/>
  <path d="M86.8743 69.4644C86.8743 69.4644 87.4029 74.8214 90.1871 74.8214C92.9714 74.8214 93.7115 69.4644 93.7115 69.4644" stroke="#F0EFEB" stroke-width="0.35" stroke-miterlimit="10" stroke-linecap="round"/>
  <path d="M72.8478 47.4377C72.8478 47.4377 71.5439 39.4375 74.5043 38.2393" stroke="#F0EFEB" stroke-width="0.35" stroke-miterlimit="10" stroke-linecap="round"/>
  <path d="M79.8959 45.9576C79.8959 45.9576 78.0634 39.9662 80.9533 38.2745" stroke="#F0EFEB" stroke-width="0.35" stroke-miterlimit="10" stroke-linecap="round"/>
  <path d="M85.2886 46.9092C85.2886 46.9092 86.0639 39.6139 88.8129 39.2262" stroke="#F0EFEB" stroke-width="0.35" stroke-miterlimit="10" stroke-linecap="round"/>
</svg>
