<svg width="742" height="211" viewBox="0 0 742 211" fill="none" xmlns="http://www.w3.org/2000/svg">
<path d="M242.209 204.521L260.773 202.377L253.746 155.341L279.925 152.24L280.289 198.315L296.753 196.535L303.684 58.7168L289.961 60.1763L282.527 138.369L255.617 142.067L251.378 60.2672L232.04 63.0043L242.209 204.521Z" fill="#637454"/>
<path d="M408.353 184.309L437.173 52.0992L454.594 105.156L476.759 48.0846L503.622 184.218L484.647 183.491L472.335 107.62L454.914 136.818L441.779 107.988L431.7 187.549L408.353 184.309Z" fill="#637454"/>
<path d="M515.433 56.2525L523.641 187.415L581.696 186.453L579.051 168.71L537.096 170.533L534.767 137.961L575.951 135.813L573.44 117.156L534.906 118.754L532.308 72.402L575.631 70.5744L575.176 49.2236L515.433 56.2525Z" fill="#637454"/>
<path d="M609.425 78.9719C594.97 78.5171 593.875 94.8009 593.875 94.8009L598.935 97.0356C598.935 97.0356 600.806 86.2216 608.971 87.9106C617.136 89.5996 615.084 104.472 615.084 104.472C610.339 104.142 605.577 104.779 601.083 106.342C594.606 108.898 592.784 122.037 602.451 126.779C612.118 131.522 624.526 124.865 624.526 124.865C624.526 124.865 623.881 79.5176 609.425 78.9719ZM601.672 115.467C602.585 108.854 615.945 111.223 615.945 111.223L617.724 120.894C610.062 125.411 600.758 122.124 601.715 115.463H601.672V115.467Z" fill="#637454"/>
<path d="M652.475 148.91C645.544 148.91 645.362 156.757 645.362 156.757L647.826 157.714C647.826 157.714 648.51 152.513 652.384 153.154C656.259 153.795 655.623 160.954 655.623 160.954C653.345 160.897 651.081 161.3 648.964 162.14C646.432 163.92 645.817 167.424 647.601 169.957C648.207 170.819 649.042 171.495 650.012 171.902C653.545 172.924 657.346 172.43 660.502 170.533C660.502 170.533 659.411 148.862 652.475 148.91ZM649.514 166.471C649.834 163.279 656.263 164.145 656.263 164.145L657.311 168.706C653.709 171.036 649.194 169.667 649.514 166.471Z" fill="#637454"/>
<path d="M627.668 65.0094L634.05 125.277L640.072 124.592L632.911 64.1909L627.668 65.0094Z" fill="#637454"/>
<path d="M663.606 133.76L663.922 170.897L667.662 170.854L666.844 133.579L663.606 133.76Z" fill="#637454"/>
<path d="M670.719 133.397L671.082 170.533L674.78 170.486L673.957 133.215L670.719 133.397Z" fill="#637454"/>
<path d="M657.263 83.1207C657.263 83.1207 644.812 85.494 646.362 105.065C647.912 124.636 660.502 130.976 668.71 127.875C676.923 124.774 684.992 82.8479 657.263 83.1207ZM666.021 117.109C660.87 118.98 652.934 114.965 651.93 102.648C650.925 90.3315 658.77 88.9629 658.77 88.9629C676.282 88.6901 671.312 115.467 666.069 117.156L666.021 117.109Z" fill="#637454"/>
<path d="M680.161 82.757L683.126 126.004H689.603C689.603 126.004 680.481 91.6047 694.621 90.0067C708.76 88.4086 698.495 126.502 698.495 126.502L703.054 126.866C703.054 126.866 713.362 98.4431 704.651 89.5953C699.777 84.5846 691.91 84.0519 686.408 88.3653V83.805L680.161 82.757Z" fill="#637454"/>
<path d="M731.008 115.788C731.35 118.793 729.194 121.504 726.19 121.847C725.804 121.89 725.419 121.894 725.034 121.855C718.605 121.582 718.237 110.859 717.83 108.716C717.661 106.386 717.756 104.047 718.102 101.734C718.102 101.734 728.913 104.926 732.515 100.002C736.117 95.078 732.242 80.7517 724.808 81.3884C717.375 82.025 711.128 96.3512 713.544 108.486C715.959 120.621 719.929 126.736 726.54 127.009C733.151 127.282 734.93 116.606 734.93 116.606L731.008 115.788ZM725.215 86.6329C728.454 86.4034 729.774 96.1693 727.908 97.1697C726.042 98.1701 719.652 96.3945 719.652 96.3945C719.427 91.6999 721.977 86.8625 725.215 86.6329Z" fill="#637454"/>
<path d="M691.607 145.895L693.569 167.749H696.85C696.85 167.749 691.88 150.46 698.993 149.499C706.106 148.537 701.366 167.749 701.366 167.749H703.647C703.647 167.749 708.526 153.24 704.058 148.862C701.569 146.419 697.638 146.242 694.937 148.451V146.125L691.607 145.895Z" fill="#637454"/>
<path d="M688.824 163.141C689.101 164.652 688.101 166.103 686.59 166.38C686.408 166.415 686.226 166.428 686.044 166.423C682.763 166.423 682.17 161.131 681.893 160.083C681.763 158.914 681.763 157.736 681.893 156.571C681.893 156.571 687.456 157.757 689.096 155.155C690.737 152.556 688.231 145.436 684.538 146.03C680.845 146.623 678.291 154.106 679.979 160.174C681.667 166.241 683.901 169.299 687.274 169.026C690.651 168.753 691.105 163.461 691.105 163.461L688.824 163.141ZM684.767 148.637C686.408 148.407 687.365 153.197 686.547 153.838C685.724 154.475 682.351 153.838 682.351 153.838C682.031 151.421 683.126 148.91 684.724 148.637H684.767Z" fill="#637454"/>
<path d="M739.719 160.494C739.996 162.006 738.996 163.457 737.485 163.734C737.303 163.768 737.121 163.781 736.939 163.777C733.658 163.777 733.064 158.485 732.787 157.437C732.657 156.268 732.657 155.09 732.787 153.925C732.787 153.925 738.35 155.111 739.991 152.508C741.632 149.91 739.125 142.79 735.433 143.383C731.74 143.977 729.185 151.46 730.874 157.528C732.562 163.595 734.796 166.653 738.169 166.38C741.545 166.107 742 160.815 742 160.815L739.719 160.494ZM735.662 145.991C737.303 145.761 738.26 150.551 737.441 151.192C736.619 151.828 733.246 151.192 733.246 151.192C732.883 148.775 733.978 146.263 735.571 145.991H735.662Z" fill="#637454"/>
<path d="M613.027 140.287C613.027 140.287 594.784 137.277 595.286 156.437C595.788 175.596 620.322 172.175 620.322 172.175L620.002 166.38C620.002 166.38 602.399 170.715 601.394 156.891C600.381 151.954 603.559 147.13 608.494 146.116C610.109 145.783 611.785 145.895 613.343 146.441L613.027 140.287Z" fill="#637454"/>
<path d="M620.69 137.368L622.513 172.179L627.574 171.906C627.574 171.906 621.781 155.891 631.86 155.345C641.938 154.799 636.102 171.495 636.102 171.495L640.345 173.366C640.345 173.366 643.22 158.814 640.938 154.843C638.851 150.91 634.362 148.897 630.037 149.962C628.006 150.213 626.197 151.374 625.11 153.11L625.747 137.095L620.69 137.368Z" fill="#637454"/>
<path d="M725.536 145.623H721.795V146.762C721.795 146.762 708.115 142.608 709.253 157.207C710.392 171.806 724.259 163.504 724.259 163.504C724.259 163.504 726.129 176.687 720.107 176.462C717.176 176.67 714.626 174.47 714.405 171.534L711.215 171.213C711.215 171.213 711.578 178.558 716.141 180.018C720.908 181.646 726.094 179.104 727.722 174.336C727.856 173.942 727.964 173.539 728.042 173.127C727.783 163.92 726.947 154.73 725.536 145.623ZM718.375 161.954C713.267 162.777 712.946 157.757 712.721 155.432C712.466 152.946 714.08 150.651 716.505 150.049C718.258 149.486 720.167 149.702 721.748 150.642L723.163 160.087C723.163 160.087 723.484 161.088 718.375 161.954Z" fill="#637454"/>
<path d="M349.795 50.0941C349.795 50.0941 312.49 54.0611 312.442 112.232C312.395 170.403 348.016 192.07 372.913 185.228C397.811 178.385 431.471 55.8844 349.795 50.0941ZM367.58 152.513C352.072 156.527 329.27 142.842 329.27 106.342C329.27 69.8425 352.804 67.2007 352.804 67.2007C404.474 70.9858 383.221 148.269 367.58 152.513Z" fill="#637454"/>
<path d="M179.002 58.7167V204.521L49.0245 211L25.0837 64.1908H0L99.1919 0L198.384 58.7167H179.002Z" fill="#637454"/>
<path d="M127.605 133.717C130.112 138.737 126.601 147.13 125.596 149.914C124.592 152.699 123.453 156.436 126.419 157.532C129.384 158.628 132.532 155.891 133.35 145.168C134.354 137.117 131.086 129.127 124.73 124.09C122.488 122.358 120.089 120.829 117.57 119.53L116.795 122.267C116.795 122.267 121.813 122.219 127.605 133.717Z" fill="#E2B90F"/>
<path d="M84.8274 142.522C86.3686 151.175 88.7497 159.654 91.9404 167.839C95.6808 175.184 90.6199 177.328 93.1266 179.745C95.6332 182.161 100.742 175.869 101.014 172.764C101.287 169.663 97.1398 166.739 94.9925 161.404C92.8495 156.068 88.5635 142.517 88.5635 142.517L84.8274 142.522Z" fill="#E2B90F"/>
<path d="M115.245 138.005L116.384 138.871C117.652 146.415 118.444 154.037 118.756 161.681C118.756 169.299 118.756 170.347 120.444 173.543C122.133 176.735 120.215 179.658 118.392 178.103C116.57 176.549 112.418 173.543 112.418 169.754C112.418 165.968 115.016 161.677 114.743 153.375C114.47 145.072 113.466 136.493 113.466 136.493" fill="#E2B90F"/>
<path d="M64.7611 110.907C60.2284 105.983 57.3971 99.7293 56.6871 93.0686C56.6871 89.1925 56.1849 83.9436 52.1284 83.9436C48.0719 83.9436 47.5697 94.7099 51.2625 102.194C55.6351 110.132 62.064 116.749 69.8697 121.353C72.7876 123.362 79.8096 127.511 79.8096 127.511L79.446 123.726C79.446 123.726 76.7532 122.86 64.7611 110.907Z" fill="#E2B90F"/>
<path d="M77.3032 118.295C77.3032 118.295 77.3032 119.434 77.6669 121.262C78.1994 127.645 79.4375 133.947 81.3597 140.058C83.3685 143.249 86.2388 142.795 96.681 141.699C107.123 140.603 118.89 141.469 119.483 136.359C120.076 131.249 118.89 115.42 118.89 115.42L77.3032 118.295Z" fill="#F0EFEB"/>
<path d="M75.3853 66.9279C84.2862 57.1057 97.997 53.2123 110.729 56.8891C123.817 60.3321 133.09 71.9646 133.532 85.4939C134.367 97.2174 129.735 108.668 120.99 116.515C113.877 123.085 99.9192 129.655 94.0357 129.837C88.1523 130.019 82.771 128.741 75.4762 115.238C68.1814 101.734 63.0253 80.4313 75.3853 66.9279Z" fill="#E2B90F"/>
<path d="M98.7374 71.4882C101.703 71.4882 104.301 73.6319 103.798 79.4265C103.287 85.39 103.5 91.3968 104.435 97.3083C105.166 98.4473 107.716 99.0882 107.946 102.873C108.175 106.658 105.985 106.797 104.664 106.386C103.344 105.974 101.655 107.022 101.79 109.395C101.928 111.769 101.058 115.281 97.6378 115.42C94.7632 115.498 92.2825 113.427 91.8452 110.582C91.2521 108.209 90.7066 106.749 89.2477 108.075C87.7887 109.4 84.689 106.936 84.689 104.792C84.689 102.648 88.1091 101.371 89.2477 99.2268C89.949 94.8224 90.2997 90.366 90.2954 85.9053C91.0746 80.3836 92.1223 71.4882 98.7374 71.4882Z" fill="#F0E8CE"/>
<path d="M68.9997 90.9248C68.952 89.3138 67.6446 88.0275 66.0341 88.0059C63.1595 88.0059 59.9212 89.1015 60.0121 92.341C60.103 95.5804 61.6096 99.3655 64.5708 98.8631C67.5364 98.3607 69.1295 96.0784 68.7226 95.169C68.2464 94.1945 67.0731 93.7918 66.0991 94.2682C65.822 94.4024 65.5795 94.606 65.3934 94.8528C64.389 96.3599 62.0166 94.3071 62.3846 92.7091C62.6703 91.6134 63.7916 90.9551 64.8912 91.2409C65.138 91.3059 65.3717 91.4142 65.5795 91.5658C66.7225 92.6571 69.32 92.1114 68.9997 90.9248Z" fill="#F0EFEB"/>
<path d="M132.211 82.5273C131.674 81.9903 131.436 81.2238 131.575 80.4746C131.813 79.2273 132.791 78.2485 134.038 78.0103C136.657 77.2265 139.476 78.2918 140.926 80.6088C142.415 83.0557 141.805 86.2345 139.51 87.9538C136.865 89.6428 133.627 89.37 133.216 87.9538C132.804 86.5376 134.813 87.1786 135.77 86.6286C136.727 86.0829 138.277 85.8057 138.324 83.4368C138.372 81.0679 137.004 80.1974 135.134 80.6088C133.263 81.0202 133.995 82.3888 133.22 82.7525C132.865 82.9085 132.458 82.8175 132.211 82.5273Z" fill="#F0EFEB"/>
<path d="M77.801 96.6024C73.8961 96.6024 73.1558 89.0236 73.0865 88.1618C73.0519 87.72 73.3809 87.3346 73.8181 87.2999C74.2511 87.261 74.645 87.5901 74.684 88.0275C74.8701 90.3055 75.8875 95.0087 77.8054 95.0087C79.7709 95.0087 81.1952 90.2622 81.5762 87.9625C81.6498 87.5295 82.0654 87.222 82.494 87.3086C82.9312 87.3779 83.2256 87.7893 83.152 88.2267C83.0091 89.0842 81.6498 96.6024 77.801 96.6024Z" fill="#F0EFEB"/>
<path d="M116.704 97.6548C112.427 97.6548 111.652 90.3141 111.621 90.0023C111.578 89.5649 111.898 89.1751 112.336 89.1275C112.782 89.0755 113.163 89.4046 113.21 89.8421C113.219 89.9027 113.916 96.061 116.708 96.061C119.535 96.061 120.47 89.8767 120.475 89.8161C120.535 89.3787 120.882 89.0755 121.379 89.1361C121.817 89.1968 122.12 89.5995 122.059 90.0369C122.012 90.3401 120.955 97.6548 116.704 97.6548Z" fill="#F0EFEB"/>
<path d="M94.2651 62.203C93.8842 62.203 93.5378 61.9258 93.4772 61.536C93.2954 60.41 91.8104 50.5012 96.1094 48.7602C96.5293 48.5957 96.9839 48.7949 97.1484 49.1976C97.3129 49.6091 97.1181 50.0725 96.7068 50.237C94.066 51.3067 94.6461 58.7514 95.0531 61.2762C95.1223 61.7136 94.8323 62.1207 94.395 62.1943C94.3517 62.203 94.3084 62.203 94.2651 62.203Z" fill="#F0EFEB"/>
<path d="M103.387 60.2887C103.045 60.2887 102.729 60.0679 102.625 59.7257C102.517 59.3836 100.114 51.337 104.352 48.8598C104.716 48.6346 105.214 48.7602 105.443 49.1456C105.664 49.5268 105.539 50.0161 105.153 50.237C102.538 51.7701 103.543 57.2702 104.149 59.258C104.279 59.6781 104.041 60.1285 103.621 60.2541C103.543 60.2757 103.465 60.2887 103.387 60.2887Z" fill="#F0EFEB"/>
<path d="M110.366 61.5187C110.34 61.5187 110.309 61.5187 110.279 61.5144C109.842 61.4667 109.522 61.077 109.569 60.6352C109.677 59.6045 110.755 50.5575 114.812 49.9858C115.232 49.9339 115.652 50.2327 115.712 50.6658C115.773 51.1032 115.47 51.5059 115.037 51.5666C112.894 51.8654 111.522 57.3915 111.158 60.8041C111.115 61.2156 110.773 61.5187 110.366 61.5187Z" fill="#F0EFEB"/>
</svg>
