<svg width="190" height="54" viewBox="0 0 190 54" fill="none" xmlns="http://www.w3.org/2000/svg">
  <path d="M34.2078 25.2517C33.8007 25.3447 33.8938 25.6006 33.8007 25.7286C33.9663 26.056 34.1101 26.3941 34.2311 26.7405H34.359C34.5917 26.6125 34.9639 26.5427 34.9755 25.9728C34.9871 25.4029 34.6614 25.1354 34.2078 25.2517Z" fill="#637454"/>
  <path d="M18.9358 26.0192C18.884 25.9603 18.8191 25.9144 18.7464 25.8852C18.6736 25.856 18.5949 25.8444 18.5168 25.8512C18.4387 25.858 18.3633 25.883 18.2967 25.9243C18.2301 25.9656 18.174 26.022 18.1332 26.089C17.9587 26.4379 18.3775 27.0544 18.7032 26.7752C18.749 26.7361 18.8023 26.7067 18.8599 26.689C18.9175 26.6712 18.9782 26.6654 19.0381 26.672C19.098 26.6785 19.156 26.6972 19.2084 26.727C19.2608 26.7567 19.3065 26.7969 19.3429 26.845C19.4127 26.6356 19.4941 26.4379 19.5755 26.2402C19.4589 26.2669 19.3371 26.2603 19.224 26.2212C19.1109 26.1821 19.0111 26.1122 18.9358 26.0192Z" fill="#637454"/>
  <path d="M25.2982 0L0 16.3653H6.37399L12.4804 53.7949L45.6298 52.1433V14.923H50.5731L25.2982 0ZM35.2662 26.9963C35.0084 27.1625 34.7118 27.2587 34.4055 27.2755C34.5666 27.8159 34.6565 28.3751 34.673 28.9388C34.7723 30.3272 34.5525 31.7199 34.0303 33.0102C33.5082 34.3006 32.6975 35.4543 31.6605 36.3828L31.172 36.8015V37.0109C31.7297 37.2937 32.2593 37.6286 32.7539 38.0112C33.5047 38.6055 34.0897 39.3834 34.4523 40.2696C34.815 41.1559 34.943 42.1207 34.8242 43.0709C34.6149 45.6414 33.8588 46.3043 33.161 46.0368C32.4631 45.7693 32.7306 44.8737 32.9632 44.2107C33.1958 43.5477 34.0449 41.5355 33.4401 40.3258C33.0171 39.2177 32.2295 38.2865 31.2069 37.6855C31.2069 38.8487 31.3116 40.4305 31.265 41.1749C31.2462 41.3365 31.1814 41.4892 31.0783 41.615C30.9752 41.7408 30.8382 41.8343 30.6835 41.8844C30.8114 42.6637 31.0208 43.7687 31.2883 44.8504C31.7652 46.8045 32.8004 47.6768 33.0563 48.5492C33.3122 49.4216 32.3468 50.4102 31.8931 50.8755C31.4395 51.3407 30.73 50.7126 30.9975 49.8752C31.2651 49.0377 31.2185 48.7818 30.6719 47.0139C30.2784 45.4205 30.0101 43.7988 29.8693 42.1636C28.7992 42.3613 27.2522 42.3613 25.8099 42.5125C25.0032 42.6152 24.1919 42.6773 23.379 42.6986C23.693 43.6757 24.3677 45.7344 24.7515 46.6882C25.2633 47.9676 26.2636 48.6771 26.1938 49.4216C26.124 50.166 24.9143 51.6664 24.2979 51.0965C23.6814 50.5265 24.9027 50.0031 24.0071 48.2352C23.2589 46.3573 22.7017 44.409 22.3438 42.4195C22.2541 42.3374 22.1758 42.2434 22.1112 42.1403C21.8807 41.6098 21.7241 41.0502 21.6459 40.477C21.3927 41.2591 20.9616 41.9718 20.3864 42.5591C19.8112 43.1464 19.1076 43.5923 18.331 43.8618C15.8652 44.8621 14.8416 44.4201 14.7602 43.5942C14.6788 42.7684 15.6093 42.6172 16.3421 42.5474C17.0748 42.4776 19.3546 42.373 20.1571 41.2098C20.694 40.4541 21.0882 39.6066 21.3203 38.7091C21.3203 38.302 21.2156 37.9298 21.1807 37.6274C21.1458 37.325 21.1225 37.1156 21.1109 36.9993C21.0993 36.883 20.7968 36.4759 20.6456 36.1851C19.1391 33.5895 18.5839 30.5501 19.0754 27.5895C18.8056 27.7487 18.4907 27.8142 18.1798 27.7756C17.4121 27.7059 17.2958 26.7288 17.4703 25.9728C17.6448 25.2167 18.4706 25.1121 19.1219 25.3331C19.2735 25.3722 19.4075 25.4611 19.5024 25.5856C19.5974 25.71 19.6477 25.8628 19.6453 26.0193C19.9118 25.4954 20.2483 25.0102 20.6456 24.577C20.9708 24.2227 21.3249 23.8958 21.7041 23.6C21.1574 23.0417 20.7038 21.6808 20.1338 19.3894C19.382 16.7127 19.4755 13.8691 20.4014 11.2475C20.7419 10.0567 21.0214 8.84939 21.2388 7.63016C21.4366 7.1649 21.6924 7.54873 21.8088 8.35129C21.6985 10.1587 21.4299 11.9529 21.0062 13.7133C20.5526 16.342 22.1694 19.0056 22.5299 20.2967C22.7509 21.0527 23.286 21.8436 23.4372 22.5183C25.0509 21.8293 26.8368 21.6507 28.555 22.0065C28.555 21.5063 28.555 20.9713 28.4852 20.5642C28.4154 20.1571 27.7756 15.9117 27.5546 14.4229C27.0671 12.8806 26.3197 11.4331 25.3447 10.1425C24.9841 9.54933 24.5538 8.18844 24.8911 7.93255C25.2284 7.67666 25.9612 8.88635 26.4148 9.42139C27.4084 10.6484 28.3103 11.9468 29.1132 13.3063C29.5087 14.167 30.1833 19.529 30.4276 20.9364C30.5445 21.4869 30.5681 22.0531 30.4974 22.6113C31.6586 23.1585 32.6393 24.0261 33.3238 25.1121C33.3746 25.0023 33.4506 24.9062 33.5456 24.8314C33.6406 24.7566 33.7519 24.7053 33.8705 24.6817C34.1766 24.5905 34.5041 24.6025 34.8027 24.716C35.1012 24.8296 35.354 25.0382 35.5221 25.3098C35.6825 25.5767 35.7446 25.8912 35.6979 26.1991C35.6512 26.507 35.4985 26.7889 35.2662 26.9963Z" fill="#637454"/>
  <path d="M61.7622 52.1433L66.5078 51.585L64.7165 39.6047L71.3813 38.8021L71.4743 50.5498L75.6849 50.0962L77.4528 14.9579L73.9518 15.3417L72.0443 35.2662L65.1818 36.22L64.1117 15.3533L59.18 16.0512L61.7622 52.1433Z" fill="#637454"/>
  <path d="M104.147 46.9906L111.498 13.2714L115.93 26.7986L121.594 12.2478L128.433 46.9557L123.606 46.7696L120.454 27.4267L116.023 34.8824L112.673 27.5198L110.102 47.8165L104.147 46.9906Z" fill="#637454"/>
  <path d="M131.457 14.3415L133.551 47.7699L148.358 47.5257L147.683 43.0011L136.971 43.4664L136.389 35.1732L146.892 34.6149L146.241 29.8577L136.412 30.2648L135.761 18.4473L146.811 17.9937L146.694 12.5386L131.457 14.3415Z" fill="#637454"/>
  <path d="M155.43 20.1454C151.743 20.0291 151.464 24.1815 151.464 24.1815L152.755 24.7515C152.755 24.7515 153.232 21.9948 155.314 22.4252C157.396 22.8556 156.872 26.6474 156.872 26.6474C155.662 26.5638 154.447 26.726 153.302 27.1242C151.65 27.7756 151.185 31.1254 153.65 32.3351C156.116 33.5448 159.28 31.8466 159.28 31.8466C159.28 31.8466 159.117 20.2617 155.43 20.1454ZM153.453 29.4505C153.685 27.764 157.093 28.3688 157.093 28.3688L157.547 30.8346C155.593 31.9629 153.22 31.1254 153.453 29.4389V29.4505Z" fill="#637454"/>
  <path d="M166.41 37.9531C164.642 37.9531 164.595 39.9537 164.595 39.9537L165.224 40.1979C165.224 40.1979 165.398 38.8719 166.387 39.0348C167.375 39.1976 167.213 41.0237 167.213 41.0237C166.632 41.0089 166.054 41.1118 165.514 41.3262C165.305 41.4731 165.139 41.6733 165.034 41.906C164.928 42.1388 164.887 42.3955 164.914 42.6496C164.942 42.9036 165.037 43.1457 165.189 43.3507C165.342 43.5557 165.546 43.7161 165.782 43.8153C166.228 43.9443 166.696 43.9799 167.156 43.9199C167.616 43.8599 168.059 43.7054 168.457 43.4663C168.457 43.4663 168.178 37.9415 166.41 37.9531ZM165.654 42.4311C165.735 41.6169 167.375 41.8379 167.375 41.8379L167.643 43.0011C166.724 43.6059 165.572 43.2453 165.654 42.4428V42.4311Z" fill="#637454"/>
  <path d="M160.071 16.563L161.711 31.9396L163.246 31.7651L161.408 16.3652L160.071 16.563Z" fill="#637454"/>
  <path d="M169.236 34.1032L169.329 43.5711L170.283 43.5478L170.062 34.0567L169.236 34.1032Z" fill="#637454"/>
  <path d="M171.062 33.9984L171.155 43.4663L172.097 43.4546L171.888 33.9635L171.062 33.9984Z" fill="#637454"/>
  <path d="M167.631 21.1923C167.631 21.1923 164.455 21.7971 164.851 26.787C165.246 31.7768 168.457 33.3936 170.55 32.6026C172.644 31.8117 174.691 21.1225 167.631 21.1923ZM169.864 29.8576C168.55 30.3345 166.526 29.311 166.27 26.1705C166.014 23.03 168.015 22.6811 168.015 22.6811C172.469 22.5997 171.19 29.3924 169.864 29.9042V29.8576Z" fill="#637454"/>
  <path d="M173.458 21.0876L174.214 32.1141H175.866C175.866 32.1141 173.539 23.3441 177.145 22.937C180.751 22.5299 178.134 32.2421 178.134 32.2421L179.297 32.3351C179.297 32.3351 181.926 25.0888 179.704 22.8323C179.104 22.2153 178.297 21.842 177.438 21.784C176.579 21.726 175.729 21.9875 175.052 22.5182V21.3551L173.458 21.0876Z" fill="#637454"/>
  <path d="M186.439 29.5087C186.464 29.7165 186.443 29.9273 186.376 30.1255C186.309 30.3238 186.198 30.5045 186.051 30.6542C185.905 30.8038 185.727 30.9187 185.53 30.9902C185.334 31.0617 185.123 31.0881 184.915 31.0673C183.275 30.9975 183.182 28.2642 183.077 27.7175C183.035 27.1235 183.058 26.5267 183.147 25.9379C183.147 25.9379 185.904 26.7521 186.823 25.4959C187.741 24.2397 186.753 20.5875 184.857 20.7503C182.961 20.9132 181.367 24.5654 181.984 27.6593C182.6 30.7533 183.612 32.3119 185.299 32.3817C186.985 32.4515 187.439 29.7297 187.439 29.7297L186.439 29.5087ZM184.962 22.0763C185.787 22.0181 186.125 24.5072 185.648 24.7631C185.171 25.019 183.543 24.5654 183.543 24.5654C183.484 23.3674 184.136 22.1461 184.962 22.0879V22.0763Z" fill="#637454"/>
  <path d="M176.378 37.1853L176.878 42.7567H177.715C177.715 42.7567 176.448 38.3484 178.262 38.1042C180.077 37.8599 178.867 42.7567 178.867 42.7567H179.448C179.448 42.7567 180.693 39.058 179.553 37.9414C179.246 37.6405 178.839 37.4635 178.41 37.4441C177.981 37.4248 177.559 37.5646 177.227 37.8367V37.2435L176.378 37.1853Z" fill="#637454"/>
  <path d="M175.668 41.5356C175.687 41.6389 175.683 41.7451 175.656 41.8465C175.629 41.948 175.58 42.0421 175.512 42.1223C175.444 42.2024 175.359 42.2664 175.263 42.3098C175.168 42.3531 175.064 42.3748 174.959 42.373C174.121 42.373 173.97 41.0238 173.9 40.7563C173.867 40.4586 173.867 40.1583 173.9 39.8607C173.9 39.8607 175.319 40.1631 175.738 39.5001C176.157 38.8371 175.517 37.0226 174.575 37.1738C173.633 37.325 172.981 39.2326 173.412 40.7795C173.842 42.3265 174.412 43.1058 175.273 43.036C176.133 42.9662 176.25 41.617 176.25 41.617L175.668 41.5356ZM174.633 37.8368C175.052 37.7787 175.296 38.9999 175.087 39.1628C174.877 39.3256 174.017 39.1628 174.017 39.1628C173.935 38.6045 174.226 37.9531 174.633 37.895V37.8368Z" fill="#637454"/>
  <path d="M188.637 40.9075C188.656 41.0108 188.652 41.117 188.624 41.2184C188.597 41.3199 188.548 41.4141 188.48 41.4942C188.412 41.5743 188.328 41.6384 188.232 41.6817C188.136 41.7251 188.032 41.7467 187.927 41.745C187.09 41.745 186.939 40.3957 186.869 40.1282C186.836 39.8306 186.836 39.5302 186.869 39.2326C186.869 39.2326 188.288 39.535 188.707 38.872C189.125 38.209 188.486 36.3945 187.543 36.5457C186.601 36.697 185.95 38.6045 186.38 40.1515C186.811 41.6984 187.381 42.4777 188.241 42.4079C189.102 42.3382 189.218 40.9889 189.218 40.9889L188.637 40.9075ZM187.602 37.2087C188.02 37.1506 188.265 38.3719 188.055 38.5347C187.846 38.6976 186.985 38.5347 186.985 38.5347C186.904 37.9183 187.183 37.2785 187.602 37.2204V37.2087Z" fill="#637454"/>
  <path d="M156.349 35.7199C156.349 35.7199 151.696 34.9522 151.824 39.8374C151.952 44.7225 158.21 43.8502 158.21 43.8502L158.128 42.373C158.128 42.373 153.639 43.478 153.383 39.9537C153.3 39.5506 153.325 39.1329 153.457 38.743C153.588 38.353 153.821 38.0049 154.13 37.7342C154.44 37.4634 154.816 37.2796 155.22 37.2016C155.624 37.1236 156.042 37.1541 156.43 37.2901L156.349 35.7199Z" fill="#637454"/>
  <path d="M158.291 35.0104L158.745 43.8618L160.036 43.792C160.036 43.792 158.558 39.7094 161.129 39.5698C163.699 39.4303 162.211 43.6873 162.211 43.6873L163.292 44.1642C163.292 44.1642 164.025 40.4538 163.444 39.4419C163.185 38.9545 162.771 38.5674 162.268 38.342C161.764 38.1165 161.2 38.0656 160.664 38.1973C160.408 38.2292 160.162 38.3178 159.945 38.4566C159.728 38.5955 159.544 38.7811 159.408 38.9999L159.57 34.9173L158.291 35.0104Z" fill="#637454"/>
  <path d="M185.031 37.1156H184.077V37.4064C184.077 37.4064 180.588 36.3479 180.879 40.0699C181.17 43.792 184.706 41.6751 184.706 41.6751C184.706 41.6751 185.182 45.0365 183.647 44.9784C183.288 45.004 182.933 44.8862 182.661 44.6507C182.388 44.4152 182.22 44.0814 182.193 43.7222L181.379 43.6408C181.379 43.6408 181.472 45.5134 182.635 45.8856C182.95 45.9931 183.283 46.032 183.614 45.9996C183.945 45.9672 184.265 45.8644 184.553 45.698C184.84 45.5316 185.089 45.3054 185.282 45.0348C185.475 44.7642 185.607 44.4555 185.671 44.1293C185.605 41.7803 185.391 39.4378 185.031 37.1156ZM183.17 41.2796C181.867 41.489 181.786 40.2095 181.728 39.6163C181.696 39.3096 181.777 39.0019 181.954 38.7497C182.132 38.4975 182.394 38.3179 182.693 38.2438C182.914 38.173 183.148 38.1498 183.378 38.1759C183.609 38.2019 183.831 38.2766 184.031 38.395L184.391 40.8027C184.391 40.8027 184.519 41.0819 183.17 41.2796Z" fill="#637454"/>
  <path d="M89.2007 12.7595C89.2007 12.7595 79.6862 13.7714 79.6746 28.6014C79.663 43.4314 88.7471 48.9562 95.0978 47.2115C101.448 45.4668 110.032 14.2483 89.2007 12.7595ZM93.7369 38.8719C89.7357 39.9536 84.0131 36.4642 84.0247 27.1242C84.0364 17.7842 90.0265 17.1445 90.0265 17.1445C103.147 18.0867 97.7381 37.7901 93.7369 38.8719Z" fill="#637454"/>
</svg>
