<svg width="95" height="165" viewBox="0 0 95 165" fill="none" xmlns="http://www.w3.org/2000/svg">
  <path d="M77.5804 139.96L77.1704 142.53L93.3704 146.8L94.2904 143.62L77.5804 139.96Z" fill="#E2B90F"/>
  <path d="M41.1604 130.84C41.1604 130.84 44.1604 146.98 47.5404 153.61C50.9204 160.24 46.3404 162.16 48.6204 164.33C50.9004 166.5 55.4904 160.84 55.7304 158.07C55.9704 155.3 52.2404 152.65 50.3104 147.83C48.3804 143.01 44.5304 130.83 44.5304 130.83L41.1604 130.84Z" fill="#93A583"/>
  <path d="M70.2803 127.53L69.2803 128.53C69.2803 128.53 70.4803 142.38 72.5303 149.01C74.5803 155.64 74.8203 156.6 73.7303 159.73C72.6403 162.86 75.5403 165.03 77.1003 163.46C78.6603 161.89 82.2803 158.16 81.3203 154.91C80.3603 151.66 76.5003 148.41 74.6903 141.06C72.8803 133.71 71.8003 126 71.8003 126" fill="#93A583"/>
  <path d="M27.1703 127.14C24.6403 131.64 28.1703 139.2 29.1703 141.69C30.1703 144.18 31.3103 147.54 28.3603 148.54C25.4103 149.54 22.2503 147.04 21.3603 137.41C20.4703 127.78 24.7103 122.79 29.9903 118.41C31.9403 116.8 37.1903 114.41 37.1903 114.41L37.9703 116.89C37.9703 116.89 32.9503 116.86 27.1703 127.14Z" fill="#93A583"/>
  <path d="M82.5803 126.41C85.1103 130.91 81.5803 138.47 80.5803 140.96C79.5803 143.45 78.4403 146.81 81.3903 147.81C84.3403 148.81 87.5003 146.31 88.3903 136.68C89.2803 127.05 85.0403 122.06 79.7603 117.68C77.8103 116.07 72.5603 113.68 72.5603 113.68L71.7803 116.16C71.7803 116.16 76.8003 116.14 82.5803 126.41Z" fill="#93A583"/>
  <path d="M36.8203 111.05C36.8203 111.05 36.9303 112.05 37.1303 113.7C37.7303 118.53 39.1303 128.46 40.4703 130.62C42.2903 133.51 44.8603 133.08 54.2703 132.12C63.6803 131.16 74.2703 131.91 74.6003 127.3C74.9303 122.69 74.0603 108.47 74.0603 108.47L36.8203 111.05Z" fill="#637454"/>
  <path d="M35.1104 64.8201C40.3704 59.0701 50.6604 51.9501 66.9304 55.8201C83.2004 59.6901 87.3704 75.6901 87.3704 81.5601C87.3704 94.9101 83.3704 102.76 76.0604 109.46C69.6604 115.36 57.0604 121.3 51.8004 121.46C46.5404 121.62 41.6704 120.46 35.1104 108.33C28.5504 96.2001 23.9704 76.9701 35.1104 64.8201Z" fill="#93A583"/>
  <path d="M56.1105 64.14C59.9705 64.14 63.3905 66.92 62.7405 74.52C62.0905 82.12 62.6305 96.46 63.6005 97.96C64.5705 99.46 67.8805 100.31 68.2005 105.24C68.5205 110.17 65.6305 110.38 63.9205 109.84C62.2105 109.3 59.9205 110.7 60.1705 113.84C60.4205 116.98 59.1704 121.54 54.7104 121.76C50.2504 121.98 47.8605 118.55 47.1105 115.45C46.3605 112.35 45.6105 110.45 43.6905 112.13C41.7705 113.81 37.4805 110.63 37.9105 107.85C38.3405 105.07 42.4005 103.36 43.8005 100.57C45.2005 97.78 44.3405 90.4 45.1905 83.13C46.0405 75.86 47.4305 64.14 56.1105 64.14Z" fill="#F0E8CE"/>
  <path d="M37.3003 1.42997C36.9103 2.35997 36.4403 7.70996 34.1603 14.98C31.8803 22.25 29.5903 31.25 33.1603 45.37C36.7303 59.49 39.0103 64.2 43.7203 61.64C48.4303 59.08 43.5802 53.7899 42.1502 48.9399C40.7202 44.0899 34.7303 34.1 36.4403 24.26C38.1503 14.42 39.8603 7.13996 39.4403 4.13996C39.0203 1.13996 38.0303 -0.330029 37.3003 1.42997Z" fill="#637454"/>
  <path d="M64.4804 49.94C64.7404 53.59 64.1004 59.86 68.2104 60.57C72.3204 61.28 72.6805 56.57 71.7505 51.3C70.8205 46.03 68.3304 25.9 66.8304 22.69C65.3304 19.48 58.4105 10.14 56.7005 8.14005C54.9905 6.14005 52.2804 1.65005 50.9904 2.58005C49.7004 3.51005 51.3105 8.64005 52.6905 10.86C54.0705 13.08 60.1304 21.28 60.9804 26.91C61.8304 32.54 64.3504 48.08 64.4804 49.94Z" fill="#637454"/>
  <path d="M31.3103 70.83C31.4616 70.1536 31.3479 69.4449 30.9926 68.8496C30.6373 68.2544 30.0675 67.818 29.4003 67.63C26.9403 66.83 23.8403 67.2 23.1903 70.04C22.5403 72.88 22.9803 76.5101 25.8703 76.7801C28.7603 77.0501 30.5003 75.38 30.3103 74.48C30.2435 74.1869 30.1035 73.9155 29.9034 73.6912C29.7033 73.4668 29.4496 73.2967 29.166 73.1969C28.8825 73.0971 28.5783 73.0707 28.2817 73.1202C27.9852 73.1697 27.706 73.2935 27.4703 73.48C26.2403 74.55 24.6703 72.24 25.3303 70.91C25.4822 70.6593 25.6909 70.4478 25.9396 70.2926C26.1883 70.1374 26.47 70.0429 26.762 70.0166C27.054 69.9903 27.3481 70.033 27.6205 70.1413C27.8929 70.2496 28.136 70.4205 28.3303 70.64C28.9703 71.65 31.3003 71.96 31.3103 70.83Z" fill="#637454"/>
  <path d="M83.0404 69.3601C82.8005 69.124 82.6215 68.8333 82.5188 68.5128C82.416 68.1923 82.3925 67.8516 82.4504 67.5201C82.5568 66.9718 82.8252 66.4681 83.221 66.0741C83.6168 65.6801 84.1217 65.414 84.6704 65.3101C86.7704 64.7701 89.8804 65.4201 90.8804 67.6601C91.8804 69.9001 91.9904 72.7301 89.6004 74.2601C87.2104 75.7901 84.2904 75.5401 83.9304 74.2601C83.5704 72.9801 85.3603 73.5801 86.2103 73.0801C87.0603 72.5801 88.4604 72.3601 88.5304 70.2201C88.6004 68.0801 87.3504 67.3001 85.6404 67.6901C83.9304 68.0801 84.6404 69.2901 83.9104 69.6101C83.7575 69.6656 83.5911 69.6714 83.4348 69.6264C83.2785 69.5815 83.1404 69.4883 83.0404 69.3601V69.3601Z" fill="#637454"/>
  <path d="M33.8904 83.6901C33.8904 83.6901 34.5304 88.6101 37.8904 88.6101C41.2504 88.6101 42.3104 83.6901 42.3104 83.6901" stroke="#F0EFEB" stroke-width="1.28" stroke-miterlimit="10" stroke-linecap="round"/>
  <path d="M65.7202 85.49C65.7202 85.49 66.5402 91.72 70.8502 91.72C75.1602 91.72 76.5302 85.49 76.5302 85.49" stroke="#F0EFEB" stroke-width="1.28" stroke-miterlimit="10" stroke-linecap="round"/>
  <path d="M0.490311 129.74C0.275871 129.472 0.12597 129.158 0.0522312 128.822C-0.0215075 128.487 -0.0171107 128.139 0.0650486 127.806C0.147208 127.472 0.304952 127.162 0.526078 126.899C0.747203 126.636 1.0258 126.428 1.34032 126.29C5.43032 124.5 13.0803 121.16 16.7703 119.58C21.9503 117.37 23.0303 115.42 23.0303 115.42C23.0303 115.42 31.8603 126.8 35.9603 136.33C39.3003 144.1 39.7903 154.17 39.8603 157.62C39.8627 157.772 39.8327 157.923 39.7722 158.062C39.7117 158.202 39.6221 158.327 39.5095 158.429C39.3969 158.531 39.2639 158.608 39.1192 158.655C38.9744 158.702 38.8214 158.717 38.6703 158.7C35.5403 158.35 27.1503 157.59 23.8203 159.16C19.6803 161.16 11.1003 164 11.1003 164C11.1003 164 9.79031 154.41 10.5203 148.24C11.1103 143.56 3.98031 134.08 0.490311 129.74Z" fill="#F0E8CE"/>
  <path d="M7.74033 140.59C7.74033 140.59 8.94034 137.06 11.0903 138.1C13.2403 139.14 14.6503 140.92 14.0903 144.22C14.0545 144.766 13.8765 145.294 13.574 145.75C13.2715 146.206 12.8551 146.575 12.3659 146.821C11.8768 147.066 11.332 147.18 10.7855 147.15C10.239 147.12 9.70976 146.948 9.25034 146.65C8.20034 145.72 7.42033 142.51 7.74033 140.59Z" fill="#93A583"/>
  <path d="M7.11035 130.04C7.11035 130.04 10.1703 128.51 9.66034 127.19C9.15034 125.87 10.1803 129.61 9.72034 130.85C9.26034 132.09 10.8903 129.96 11.6003 128.85C12.3103 127.74 10.8904 125.85 10.9904 125.99C11.0904 126.13 9.99035 129.71 11.8004 129.61C12.7078 129.572 13.5633 129.177 14.1804 128.51C14.5604 128.05 14.6604 127.51 14.2804 127.17C13.4404 126.35 17.5104 128.06 17.2104 125.98C16.9104 123.9 16.2104 122.68 17.2104 123.4C18.2104 124.12 17.6004 126.25 18.9304 124.93C20.2604 123.61 18.7604 122.99 19.9304 123.2" stroke="#637454" stroke-width="0.31" stroke-miterlimit="10" stroke-linecap="round"/>
  <path d="M31.7802 136.3C31.7802 136.3 28.0702 138.04 27.5302 136.67C26.9902 135.3 28.8602 138.8 30.1602 139.22C31.4602 139.64 28.5202 139.67 27.1602 139.59C25.8002 139.51 25.5502 136.89 25.5802 137.08C25.6102 137.27 29.1802 138.68 27.5802 140.29C26.8246 141.068 25.8264 141.565 24.7502 141.7C24.0902 141.7 23.6302 141.47 23.6902 140.87C23.8102 139.55 21.5902 144.42 20.3402 142.73C19.0902 141.04 18.7702 139.58 18.4402 140.98C18.1102 142.38 20.1902 143.28 18.1002 143.58C16.0102 143.88 16.8302 142.11 15.9502 143.34" stroke="#637454" stroke-width="0.31" stroke-miterlimit="10" stroke-linecap="round"/>
  <path d="M10.4204 136.05C12.1404 134.29 13.0604 132.79 13.9504 133.66C14.8404 134.53 12.5404 134.76 13.8304 135.48C15.1204 136.2 15.7504 136.78 15.8304 135.77C15.9104 134.76 14.3904 135.41 15.8304 134.07C17.2704 132.73 17.5904 132.52 17.8304 133.56C18.0704 134.6 18.0504 136.75 18.4704 134.17C18.8904 131.59 19.5304 131.63 18.4004 131.25C17.2704 130.87 14.0804 131.55 16.4904 131.93C18.9004 132.31 21.4904 129.53 20.3104 129.93C19.1304 130.33 20.7404 133.09 21.6704 132.32C22.6004 131.55 24.0704 130.98 23.1904 130.4C22.3104 129.82 20.5904 129.73 21.3304 130.34C22.0704 130.95 23.0104 132.96 23.5504 131.34C24.0904 129.72 23.2904 127.51 24.1304 128.68C24.9704 129.85 24.3204 131.05 24.9704 129.86C25.6204 128.67 24.6704 128.74 25.3104 128.1C25.4773 127.916 25.701 127.794 25.9457 127.752C26.1905 127.71 26.4421 127.752 26.6604 127.87" stroke="#637454" stroke-width="0.36" stroke-miterlimit="10" stroke-linecap="round"/>
  <path d="M24.6804 153.93C24.6804 153.93 20.2504 150.93 20.1704 149.35C20.0904 147.77 22.5404 147.75 23.5304 149.35C23.5304 149.35 23.1504 147.13 24.6804 146.83C26.2104 146.53 27.1104 148.96 24.6804 153.93Z" fill="#E2B90F"/>
  <path d="M74.6804 140.23L77.5804 139.96L77.1704 142.53L74.6804 140.23Z" fill="#F0E8CE"/>
  <path d="M75.9204 140.11L75.6504 141.12L74.6804 140.23L75.9204 140.11Z" fill="#E2B90F"/>
</svg>
