<svg width="110" height="190" viewBox="0 0 110 190" fill="none" xmlns="http://www.w3.org/2000/svg">
  <path d="M44.8535 155.949C44.8535 155.949 47.8535 172.089 51.2335 178.719C54.6135 185.349 50.0335 187.269 52.3135 189.439C54.5935 191.609 59.1835 185.949 59.4235 183.179C59.6635 180.409 55.9335 177.759 54.0035 172.939C52.0735 168.119 48.2235 155.939 48.2235 155.939L44.8535 155.949Z" fill="#93A583"/>
  <path d="M73.9736 152.639L72.9736 153.639C72.9736 153.639 74.1736 167.489 76.2236 174.119C78.2736 180.749 90.6537 168.489 89.5737 171.619C88.4937 174.749 90.9637 176.189 92.5737 174.619C94.1837 173.049 93.5737 170.369 92.5737 167.119C91.5737 163.869 80.2437 173.509 78.4337 166.119C76.6237 158.729 75.5436 151.059 75.5436 151.059" fill="#93A583"/>
  <path d="M25.9136 130.12C20.6236 124.69 18.8237 112.32 18.0737 108.31C17.3237 104.3 16.1336 98.9795 12.7936 98.7795C9.45365 98.5795 8.23365 103.5 13.8536 117.78C19.4736 132.06 26.6036 137.46 34.2936 141.52C37.1236 143.02 43.5137 144.33 43.5137 144.33L42.5836 140.43C42.5836 140.43 37.9736 142.51 25.9136 130.12Z" fill="#93A583"/>
  <path d="M95.1735 132.93C100.654 129.01 99.6035 118.27 99.4735 114.81C99.3435 111.35 99.4735 106.81 103.804 107.22C108.134 107.63 111.134 112.22 107.674 123.98C104.214 135.74 96.2935 139.32 87.2735 141.59C83.9435 142.43 75.8735 142.47 75.8735 142.47L76.0235 139.15C76.0235 139.15 82.6735 141.88 95.1735 132.93Z" fill="#93A583"/>
  <path d="M40.5137 136.189C40.5137 136.189 40.6237 137.189 40.8237 138.839C41.4237 143.669 42.8236 153.599 44.1636 155.759C45.9836 158.649 48.5536 158.219 57.9636 157.259C67.3736 156.299 77.9636 157.049 78.2936 152.439C78.6236 147.829 77.7537 133.609 77.7537 133.609L40.5137 136.189Z" fill="#637454"/>
  <path d="M38.7935 89.9294C44.0535 84.1794 54.3435 77.0594 70.6135 80.9294C86.8835 84.7994 91.0535 100.799 91.0535 106.669C91.0535 120.019 87.0535 127.869 79.7435 134.569C73.3435 140.469 60.7435 146.409 55.4835 146.569C50.2235 146.729 45.3535 145.569 38.7935 133.439C32.2335 121.309 27.6635 102.079 38.7935 89.9294Z" fill="#93A583"/>
  <path d="M59.7836 89.1895C63.6436 89.1895 67.0636 91.9695 66.4136 99.5695C65.7636 107.169 66.3036 121.509 67.2736 123.009C68.2436 124.509 71.5536 125.359 71.8736 130.289C72.1936 135.219 69.3036 135.429 67.5936 134.889C65.8836 134.349 63.5936 135.749 63.8436 138.889C64.0936 142.029 62.8436 146.589 58.3836 146.809C53.9236 147.029 51.5336 143.599 50.7836 140.499C50.0336 137.399 49.2836 135.499 47.3636 137.179C45.4436 138.859 41.1536 135.679 41.5836 132.899C42.0136 130.119 46.0736 128.409 47.4736 125.619C48.8736 122.829 48.0136 115.449 48.8636 108.179C49.7136 100.909 51.1236 89.1895 59.7836 89.1895Z" fill="#F0E8CE"/>
  <path d="M40.9834 26.5395C40.5934 27.4695 40.1234 32.8195 37.8434 40.0895C35.5634 47.3595 33.2734 56.3595 36.8434 70.4795C40.4134 84.5995 42.6934 89.3095 47.4034 86.7495C52.1134 84.1895 47.2633 78.8994 45.8333 74.0494C44.4033 69.1994 38.4134 59.2095 40.1234 49.3695C41.8334 39.5295 43.5434 32.2495 43.1234 29.2495C42.7034 26.2495 41.7234 24.7795 40.9834 26.5395Z" fill="#637454"/>
  <path d="M68.1735 75.0494C68.4335 78.6994 67.7935 84.9694 71.9035 85.6794C76.0135 86.3894 76.3736 81.6794 75.4436 76.4094C74.5136 71.1394 72.0235 51.0094 70.5235 47.7994C69.0235 44.5894 62.1035 35.2394 60.3935 33.2494C58.6835 31.2594 55.9736 26.7594 54.6836 27.6894C53.3936 28.6194 55.0036 33.7494 56.3836 35.9694C57.7636 38.1894 63.8235 46.3894 64.6735 52.0194C65.5235 57.6494 68.0335 73.1894 68.1735 75.0494Z" fill="#637454"/>
  <path d="M34.9934 95.9494C35.1447 95.273 35.031 94.5642 34.6757 93.969C34.3205 93.3738 33.7506 92.9373 33.0834 92.7494C30.6234 91.9494 27.5234 92.3194 26.8734 95.1594C26.2234 97.9994 26.6634 101.629 29.5534 101.899C32.4434 102.169 34.1834 100.499 33.9934 99.5994C33.9266 99.3063 33.7866 99.0349 33.5865 98.8105C33.3864 98.5862 33.1327 98.4161 32.8491 98.3163C32.5656 98.2164 32.2614 98.1901 31.9648 98.2396C31.6683 98.2891 31.3891 98.4129 31.1534 98.5994C29.9234 99.6694 28.3534 97.3594 29.0134 96.0294C29.1653 95.7787 29.374 95.5672 29.6227 95.412C29.8714 95.2568 30.1532 95.1622 30.4451 95.136C30.7371 95.1097 31.0312 95.1524 31.3036 95.2607C31.576 95.369 31.8192 95.5399 32.0134 95.7594C32.6634 96.7594 34.9934 97.0794 34.9934 95.9494Z" fill="#637454"/>
  <path d="M86.7335 94.4695C86.4937 94.2334 86.3147 93.9426 86.2119 93.6221C86.1092 93.3017 86.0856 92.961 86.1435 92.6295C86.2498 92.0812 86.5183 91.5775 86.9141 91.1835C87.3099 90.7895 87.8148 90.5233 88.3635 90.4195C90.4635 89.8795 93.5736 90.5294 94.5736 92.7694C95.5736 95.0094 95.6835 97.8395 93.2935 99.3695C90.9035 100.899 87.9835 100.649 87.6235 99.3695C87.2635 98.0895 89.0535 98.6895 89.9035 98.1895C90.7535 97.6895 92.1535 97.4695 92.2235 95.3295C92.2935 93.1895 91.0435 92.4094 89.3335 92.7994C87.6235 93.1894 88.3335 94.3995 87.6035 94.7195C87.4507 94.775 87.2842 94.7807 87.1279 94.7358C86.9716 94.6909 86.8336 94.5977 86.7335 94.4695Z" fill="#637454"/>
  <path d="M37.5835 108.799C37.5835 108.799 38.2235 113.719 41.5835 113.719C44.9435 113.719 46.0035 108.799 46.0035 108.799" stroke="#F0EFEB" stroke-width="1.28" stroke-miterlimit="10" stroke-linecap="round"/>
  <path d="M69.4136 110.609C69.4136 110.609 70.2336 116.839 74.5436 116.839C78.8536 116.839 80.2236 110.609 80.2236 110.609" stroke="#F0EFEB" stroke-width="1.28" stroke-miterlimit="10" stroke-linecap="round"/>
  <path d="M6.17354 55.3394C13.3535 53.8294 16.3635 59.3394 16.7735 67.4094C17.1835 75.4794 10.3235 75.9294 7.02352 75.9294C3.72352 75.9294 -0.346484 70.2794 0.0235164 64.9294C0.393516 59.5794 2.30354 56.1894 6.17354 55.3394Z" fill="#A2D6DA"/>
  <path d="M14.9536 23.5795C20.1836 22.4295 22.3736 26.5795 22.6636 32.7295C22.9536 38.8795 17.9636 39.1895 15.5736 39.1895C13.1836 39.1895 10.2036 34.8995 10.5036 30.8595C10.8036 26.8195 12.1436 24.1895 14.9536 23.5795Z" fill="#E2B90F"/>
  <path d="M51.9836 0.249454C59.1636 -1.26055 62.1736 4.24946 62.5836 12.3195C62.9936 20.3895 56.1336 20.8395 52.8336 20.8395C49.5336 20.8395 45.4636 15.1894 45.8336 9.83945C46.2036 4.48945 48.1036 1.06945 51.9836 0.249454Z" fill="#A2D6DA"/>
  <path d="M88.8137 26.0395C95.9937 24.5295 99.0037 30.0395 99.4137 38.1095C99.8237 46.1795 92.9637 46.6295 89.6637 46.6295C86.3637 46.6295 82.2937 40.9795 82.6637 35.6295C83.0337 30.2795 84.9337 26.8495 88.8137 26.0395Z" fill="#E2B90F"/>
  <path d="M102.233 61.1894C106.953 60.1894 108.933 63.7894 109.233 69.1194C109.533 74.4494 104.994 74.7194 102.824 74.7194C100.654 74.7194 97.9735 70.9994 98.2435 67.4994C98.5135 63.9994 99.7035 61.7494 102.233 61.1894Z" fill="#A2D6DA"/>
</svg>
