<svg width="90" height="188" viewBox="0 0 90 188" fill="none" xmlns="http://www.w3.org/2000/svg">
  <path d="M79.9324 141.238C82.5264 146.38 78.904 155.019 77.8869 157.864C76.8699 160.71 75.6929 164.549 78.7211 165.692C81.7493 166.834 84.9947 163.978 85.8631 152.973C86.7316 141.969 82.435 136.267 77.0071 131.262C74.6887 129.519 72.218 127.99 69.6251 126.691L68.8252 129.525C68.8252 129.525 74.0017 129.49 79.9324 141.238Z" fill="#E2B90F"/>
  <path d="M32.4182 148.745C32.4182 148.745 35.8464 167.189 39.7088 174.765C43.5711 182.341 38.3375 184.535 40.9429 187.015C43.5483 189.495 48.7934 183.027 49.0676 179.861C49.3419 176.696 45.0796 173.668 42.8741 168.16C40.6687 162.652 36.2692 148.734 36.2692 148.734L32.4182 148.745Z" fill="#E2B90F"/>
  <path d="M65.6942 144.963L64.5515 146.106C64.5515 146.106 65.9228 161.932 68.2653 169.509C70.6079 177.085 70.8822 178.182 69.6366 181.759C68.391 185.335 71.7049 187.815 73.4875 186.021C75.2702 184.227 79.4068 179.965 78.3098 176.251C77.2128 172.537 72.8019 168.823 70.7336 160.424C68.6653 152.025 67.4312 143.215 67.4312 143.215" fill="#E2B90F"/>
  <path d="M23.2306 144.506C19.8025 149.5 10.0208 149.934 6.87834 150.219C3.73586 150.505 -0.389351 151.168 0.0905908 154.71C0.570532 158.253 4.83287 160.138 15.4144 155.853C25.996 151.568 29.0699 144.609 30.9097 136.907C31.5953 134.061 31.4353 127.411 31.4353 127.411L28.43 127.936C28.43 127.936 31.0582 133.124 23.2306 144.506Z" fill="#E2B90F"/>
  <path d="M27.4587 126.131C27.4587 126.131 27.5844 127.273 27.813 129.159C28.4986 134.678 30.0984 146.025 31.6297 148.494C33.7094 151.796 36.6462 151.305 47.3992 150.208C58.1522 149.111 70.2535 149.968 70.6306 144.7C71.0077 139.432 70.0136 123.183 70.0136 123.183L27.4587 126.131Z" fill="#A2D6DA"/>
  <path d="M25.4818 73.3031C31.4925 66.7325 43.2511 58.5964 61.8431 63.0187C80.4351 67.441 85.2117 85.7016 85.2117 92.4665C85.2117 107.722 80.6408 116.692 72.2876 124.348C64.9742 131.09 50.5759 137.878 44.5652 138.061C38.5545 138.244 32.9895 136.918 25.4933 123.057C17.997 109.196 12.7634 87.1872 25.4818 73.3031Z" fill="#E2B90F"/>
  <path d="M49.4788 72.4803C53.8897 72.4803 57.7978 75.657 57.055 84.3417C56.3123 93.0264 56.9293 109.413 58.0378 111.127C59.1462 112.841 62.9286 113.812 63.2943 119.446C63.66 125.08 60.3575 125.32 58.4035 124.703C56.4494 124.085 53.8326 125.685 54.1183 129.273C54.4039 132.862 52.9755 138.072 47.879 138.324C42.7825 138.575 40.0514 134.656 39.1944 131.113C38.3373 127.571 37.4803 125.4 35.2863 127.319C33.0922 129.239 28.19 125.605 28.6814 122.428C29.1727 119.252 33.8122 117.298 35.412 114.11C37.0118 110.921 36.029 102.488 37.0003 94.1805C37.9717 85.8729 39.5715 72.4803 49.4788 72.4803Z" fill="#F0E8CE"/>
  <path d="M27.9957 0.866147C27.5501 1.92887 27.013 8.04242 24.4076 16.35C21.8022 24.6575 19.1854 34.942 23.2649 51.0772C27.3444 67.2124 29.9498 72.5946 35.332 69.6692C40.7142 66.7438 35.172 60.6989 33.5379 55.1567C31.9038 49.6145 25.059 38.1987 27.013 26.9544C28.967 15.7101 30.9211 7.39107 30.4412 3.96292C29.9612 0.534766 28.8413 -1.14504 27.9957 0.866147Z" fill="#F0EFEB"/>
  <path d="M59.0548 56.2994C59.3519 60.4703 58.6205 67.6351 63.3171 68.4464C68.0137 69.2578 68.4251 63.8756 67.3623 57.8535C66.2996 51.8313 63.4542 28.8284 61.7402 25.1603C60.0261 21.4922 52.1185 10.8078 50.1644 8.53375C48.2104 6.25975 45.1136 1.11751 43.6395 2.18024C42.1654 3.24296 44.0052 9.10511 45.5821 11.6419C47.1591 14.1788 54.0839 23.5491 55.0552 29.9826C56.0266 36.4161 58.9291 54.1739 59.0548 56.2994Z" fill="#F0EFEB"/>
  <path d="M21.151 80.1708C21.3357 79.3865 21.2075 78.5611 20.7936 77.8699C20.3797 77.1786 19.7126 76.6758 18.9341 76.4684C16.123 75.5542 12.5806 75.977 11.8378 79.2223C11.0951 82.4676 11.5978 86.6157 14.9003 86.9242C18.2028 87.2328 20.1911 85.3244 19.974 84.296C19.8976 83.9611 19.7376 83.6509 19.5089 83.3945C19.2803 83.1381 18.9904 82.9438 18.6664 82.8297C18.3424 82.7156 17.9947 82.6855 17.6559 82.742C17.317 82.7986 16.998 82.9401 16.7287 83.1533C15.3231 84.376 13.529 81.7363 14.2832 80.2165C14.4568 79.93 14.6953 79.6883 14.9795 79.5109C15.2637 79.3336 15.5856 79.2255 15.9193 79.1955C16.2529 79.1655 16.589 79.2143 16.9003 79.3381C17.2116 79.4618 17.4894 79.657 17.7114 79.9079C18.477 81.1078 21.151 81.4621 21.151 80.1708Z" fill="#F0EFEB"/>
  <path d="M80.2753 78.4909C80.0012 78.2211 79.7966 77.8888 79.6792 77.5226C79.5617 77.1564 79.5349 76.7671 79.6011 76.3882C79.7226 75.7618 80.0293 75.1862 80.4816 74.7359C80.9339 74.2857 81.5109 73.9816 82.1379 73.8629C84.5376 73.2458 88.0914 73.9886 89.2342 76.5482C90.3769 79.1079 90.5026 82.3418 87.7715 84.0902C85.0404 85.8385 81.7037 85.5529 81.2923 84.0902C80.8809 82.6275 82.9264 83.3131 83.8977 82.7418C84.869 82.1704 86.4688 81.919 86.5488 79.4736C86.6288 77.0282 85.2004 76.1369 83.2463 76.5825C81.2923 77.0282 82.1036 78.4109 81.2694 78.7765C81.0948 78.84 80.9045 78.8465 80.7259 78.7952C80.5473 78.7439 80.3896 78.6374 80.2753 78.4909V78.4909Z" fill="#F0EFEB"/>
  <path d="M24.1106 94.8662C24.1106 94.8662 24.8419 100.488 28.6815 100.488C32.521 100.488 33.7323 94.8662 33.7323 94.8662" stroke="#F0EFEB" stroke-width="1.28" stroke-miterlimit="10" stroke-linecap="round"/>
  <path d="M60.4834 96.9229C60.4834 96.9229 61.4204 104.042 66.3455 104.042C71.2707 104.042 72.8362 96.9229 72.8362 96.9229" stroke="#F0EFEB" stroke-width="1.28" stroke-miterlimit="10" stroke-linecap="round"/>
  <path d="M2.93597 143.557C2.93597 143.557 0.159165 142.769 0.0106113 140.883C-0.137942 138.998 1.30187 137.375 2.53601 137.615C2.53601 137.615 0.707654 135.832 2.38745 134.187C2.85283 133.753 3.46535 133.512 4.10153 133.512C4.7377 133.512 5.35023 133.753 5.8156 134.187C5.8156 134.187 5.2671 131.067 9.24376 131.17C13.2204 131.273 11.4721 135.741 11.4721 135.741C11.4721 135.741 14.1003 134.004 15.4259 136.141C15.796 136.734 15.9493 137.438 15.8598 138.131C15.7702 138.825 15.4433 139.466 14.9345 139.946C14.9345 139.946 17.7113 139.501 17.0143 142.517C16.3172 145.534 2.93597 143.557 2.93597 143.557Z" fill="#A2D6DA"/>
  <path d="M0.0563965 141.946L18.1685 141.329L16.0887 152.608L2.13612 153.648L0.0563965 141.946Z" fill="#F0EFEB"/>
</svg>
