<svg width="83" height="174" viewBox="0 0 83 174" fill="none" xmlns="http://www.w3.org/2000/svg">
  <path d="M57.4439 151.378L58.4312 152.787C58.4312 152.787 54.2894 163.756 50.4606 171.184C46.6318 178.613 24.7669 162.166 25.393 166.104C26.0191 170.041 22.2144 172.437 20.6973 170.245C19.1803 168.054 19.8184 160.71 23.5388 159.024C27.8733 157.061 45.6566 174.821 49.3529 166.489C53.0492 158.157 55.963 149.247 55.963 149.247" fill="#93A583"/>
  <path d="M23.9601 147.261L22.7561 148.465C22.7561 148.465 24.9354 159.999 27.3434 167.982C29.7514 175.964 54.217 163.611 52.9167 167.38C51.6164 171.148 54.9274 174.17 56.8177 172.292C58.708 170.414 59.3582 163.057 55.9869 160.746C52.0618 158.061 31.4371 172.413 29.2578 163.563C27.0785 154.714 25.7782 145.431 25.7782 145.431" fill="#93A583"/>
  <path d="M65.872 132.933C65.872 132.933 65.7396 134.137 65.4988 136.124C64.7764 141.939 63.0908 153.895 61.4774 156.496C59.3101 159.951 56.2399 159.421 44.874 158.217C33.5081 157.013 20.7937 157.964 20.3964 152.414C19.999 146.863 21.0465 129.742 21.0465 129.742L65.872 132.933Z" fill="#637454"/>
  <path d="M67.9668 77.2351C61.6337 70.312 49.2443 61.7394 29.655 66.399C10.0657 71.0585 5.04492 90.3228 5.04492 97.3903C5.04492 113.464 9.86099 122.915 18.6623 130.982C26.368 138.086 41.5386 145.238 47.8718 145.431C54.2049 145.623 60.0684 144.227 67.9668 129.622C75.8651 115.017 81.3675 91.8639 67.9668 77.2351Z" fill="#93A583"/>
  <path d="M42.6827 76.3442C38.0352 76.3442 33.9175 79.6913 34.7001 88.8419C35.4827 97.9924 34.8325 115.258 33.6646 117.064C32.4968 118.87 28.5115 119.893 28.1262 125.829C27.7409 131.765 31.2205 132.018 33.2794 131.368C35.3382 130.718 38.0954 132.403 37.7944 136.184C37.4934 139.964 38.9984 145.455 44.3683 145.72C49.7383 145.984 52.6158 141.855 53.5189 138.122C54.4219 134.39 55.3249 132.102 57.6366 134.125C59.9483 136.148 65.1135 132.319 64.5958 128.972C64.0781 125.625 59.1898 123.566 57.5042 120.206C55.8185 116.847 56.854 107.962 55.8306 99.2084C54.8072 90.4552 53.1215 76.3442 42.6827 76.3442Z" fill="#F0E8CE"/>
  <path d="M65.318 0.912611C65.7876 2.03235 66.3535 8.47383 69.0986 17.227C71.8438 25.9802 74.601 36.8164 70.3026 53.8171C66.0043 70.8178 63.2591 76.4887 57.5882 73.4064C51.9173 70.3241 57.7568 63.9549 59.4785 58.1154C61.2003 52.2759 68.4123 40.2237 66.3535 28.4003C64.2946 16.5768 62.2357 7.78754 62.7414 4.17549C63.2471 0.563445 64.427 -1.20646 65.318 0.912611Z" fill="#637454"/>
  <path d="M32.5929 59.3194C32.2798 63.7141 33.0504 71.2632 28.1019 72.1181C23.1534 72.9729 22.72 67.302 23.8397 60.9569C24.9594 54.6117 27.9574 30.3749 29.7634 26.51C31.5695 22.6451 39.9013 11.3875 41.9601 8.99154C44.019 6.59555 47.2819 1.17748 48.8351 2.29721C50.3882 3.41695 48.4498 9.59355 46.7882 12.2665C45.1267 14.9394 37.8304 24.8123 36.8069 31.5909C35.7835 38.3695 32.7494 57.0799 32.5929 59.3194Z" fill="#637454"/>
  <path d="M72.5301 84.4713C72.3479 83.6569 72.4848 82.8036 72.9126 82.0869C73.3403 81.3703 74.0264 80.8448 74.8298 80.6185C77.7916 79.6553 81.5241 80.1008 82.3067 83.5202C83.0893 86.9396 82.5595 91.3102 79.0799 91.6352C75.6003 91.9603 73.5053 89.9496 73.7341 88.866C73.8146 88.5131 73.9832 88.1863 74.2241 87.9162C74.465 87.646 74.7704 87.4413 75.1118 87.3211C75.4532 87.2009 75.8195 87.1691 76.1765 87.2287C76.5336 87.2883 76.8697 87.4374 77.1535 87.662C78.6345 88.9503 80.5248 86.169 79.7301 84.5677C79.5472 84.2658 79.2959 84.0111 78.9964 83.8243C78.697 83.6374 78.3578 83.5235 78.0063 83.4919C77.6547 83.4603 77.3007 83.5117 76.9727 83.6421C76.6447 83.7725 76.3519 83.9782 76.1181 84.2426C75.3475 85.4586 72.5421 85.8319 72.5301 84.4713Z" fill="#637454"/>
  <path d="M10.2464 82.7013C10.5352 82.4171 10.7507 82.067 10.8745 81.6811C10.9982 81.2953 11.0265 80.8852 10.9568 80.486C10.8287 79.8259 10.5055 79.2194 10.029 78.745C9.55248 78.2706 8.94455 77.9501 8.28388 77.8251C5.75545 77.1749 2.01096 77.9575 0.806943 80.6545C-0.397073 83.3515 -0.529512 86.7589 2.34809 88.601C5.22568 90.4432 8.74141 90.1422 9.17485 88.601C9.6083 87.0599 7.45311 87.7823 6.4297 87.1803C5.40628 86.5783 3.72066 86.3134 3.63638 83.7368C3.5521 81.1602 5.05712 80.2211 7.11599 80.6906C9.17485 81.1602 8.32 82.6171 9.19893 83.0024C9.38295 83.0692 9.58341 83.0761 9.77158 83.022C9.95975 82.968 10.126 82.8557 10.2464 82.7013V82.7013Z" fill="#637454"/>
  <path d="M69.4237 99.955C69.4237 99.955 68.6531 105.879 64.6076 105.879C60.5621 105.879 59.2859 99.955 59.2859 99.955" stroke="#F0EFEB" stroke-width="1.28" stroke-miterlimit="10" stroke-linecap="round"/>
  <path d="M31.1001 102.122C31.1001 102.122 30.1128 109.623 24.9235 109.623C19.7342 109.623 18.0847 102.122 18.0847 102.122" stroke="#F0EFEB" stroke-width="1.28" stroke-miterlimit="10" stroke-linecap="round"/>
  <path d="M20.6613 137.039C20.6613 137.039 16.9047 140.651 17.0492 144.48C17.1937 148.308 25.8867 153.69 32.5088 154.112C39.1309 154.533 41.8038 152.077 42.1409 149.296C42.478 146.514 42.8633 141.048 38.264 142.83C33.6646 144.612 37.9991 150.054 34.965 150.054C31.9309 150.054 20.589 146.358 19.9027 144.528C19.7268 143.938 19.6908 143.315 19.7974 142.709C19.9039 142.103 20.1503 141.53 20.5168 141.036L20.6613 137.039Z" fill="#93A583"/>
  <path d="M65.2098 138.508C66.6734 140.723 67.5059 143.295 67.6178 145.948C67.5215 149.729 58.7803 155.159 52.1582 155.581C45.5361 156.002 42.8632 153.546 42.5261 150.764C42.189 147.983 41.8037 142.517 46.403 144.299C51.0024 146.081 46.6679 151.523 49.702 151.523C52.7362 151.523 64.078 147.827 64.7643 145.997C64.9873 145.559 65.0871 145.069 65.0532 144.579C65.0193 144.089 64.8528 143.618 64.5716 143.215L65.2098 138.508Z" fill="#93A583"/>
</svg>
