<svg width="85" height="165" viewBox="0 0 85 165" fill="none" xmlns="http://www.w3.org/2000/svg">
  <path d="M1.81566 84.8279C1.1332 84.1574 0.618934 83.3349 0.314807 82.4278C0.0106804 81.5206 -0.0746874 80.5544 0.0656615 79.6079C0.445662 76.1679 1.81566 73.038 1.43566 71.048C1.05566 69.058 2.73566 72.0479 3.65566 73.9479C4.57566 75.8479 7.09566 78.078 6.48566 81.518C5.87566 84.958 3.96566 85.518 3.96566 85.518L1.81566 84.8279Z" fill="#E2B90F"/>
  <path d="M76.0457 123.598C78.3157 128.098 75.1457 135.658 74.2557 138.148C73.3657 140.638 72.3357 143.998 74.9857 144.998C77.6357 145.998 80.4757 143.498 81.2357 133.868C81.9957 124.238 78.2357 119.248 73.4857 114.868C71.4569 113.343 69.2948 112.004 67.0257 110.868L66.3257 113.348C66.3257 113.348 70.8657 113.328 76.0457 123.598Z" fill="#E2B90F"/>
  <path d="M34.4658 130.178C34.4658 130.178 37.4658 146.318 40.8458 152.948C44.2258 159.578 39.6458 161.498 41.9258 163.668C44.2058 165.838 48.7958 160.178 49.0358 157.408C49.2758 154.638 45.5958 151.978 43.5958 147.178C41.5958 142.378 37.8158 130.178 37.8158 130.178H34.4658Z" fill="#E2B90F"/>
  <path d="M63.5957 126.858L62.5957 127.858C62.5957 127.858 63.7957 141.708 65.8457 148.338C67.8957 154.968 68.1357 155.928 67.0457 159.058C65.9557 162.188 68.8557 164.358 70.4157 162.788C71.9757 161.218 75.5957 157.488 74.6357 154.238C73.6757 150.988 69.8157 147.738 68.0057 140.388C66.1957 133.038 65.1157 125.328 65.1157 125.328" fill="#E2B90F"/>
  <path d="M16.1255 110.748C11.1255 108.998 8.51554 100.838 7.52554 98.258C6.53554 95.678 5.05554 92.338 2.18554 93.548C-0.684459 94.758 -1.31446 98.798 4.72554 106.748C10.7655 114.698 17.3455 115.748 24.2755 115.498C26.8355 115.418 32.4155 113.768 32.4155 113.768L31.2755 111.348C31.2755 111.348 27.5255 114.748 16.1255 110.748Z" fill="#E2B90F"/>
  <path d="M30.1257 110.388C30.1257 110.388 30.2357 111.388 30.4357 113.038C31.0357 117.868 32.4357 127.798 33.7757 129.958C35.5957 132.848 38.1657 132.418 47.5757 131.458C56.9857 130.498 67.5757 131.248 67.9057 126.638C68.2357 122.028 67.3657 107.808 67.3657 107.808L30.1257 110.388Z" fill="#A2D6DA"/>
  <path d="M28.4055 64.178C33.6655 58.428 43.9555 51.308 60.2255 55.178C76.4955 59.048 80.6656 75.048 80.6656 80.918C80.6656 94.268 76.6655 102.118 69.3555 108.818C62.9555 114.718 50.3555 120.658 45.0955 120.818C39.8355 120.978 34.9655 119.818 28.4055 107.688C21.8455 95.558 17.2755 76.298 28.4055 64.178Z" fill="#E2B90F"/>
  <path d="M49.4059 63.438C53.2659 63.438 56.6859 66.218 56.0359 73.818C55.3859 81.418 55.9259 95.758 56.8959 97.258C57.8659 98.758 61.1759 99.608 61.4959 104.538C61.8159 109.468 58.9259 109.678 57.2159 109.138C55.5059 108.598 53.2159 109.998 53.4659 113.138C53.7159 116.278 52.4659 120.838 48.0059 121.058C43.5459 121.278 41.1559 117.848 40.4059 114.748C39.6559 111.648 38.9059 109.748 36.9859 111.428C35.0659 113.108 30.7759 109.928 31.2059 107.148C31.6359 104.368 35.6959 102.658 37.0959 99.868C38.4959 97.078 37.6359 89.698 38.4859 82.428C39.3359 75.158 40.7359 63.438 49.4059 63.438Z" fill="#F0E8CE"/>
  <path d="M30.5957 0.757968C30.2057 1.68797 29.7357 7.03799 27.4557 14.308C25.1757 21.578 22.8857 30.578 26.4557 44.698C30.0257 58.818 32.3057 63.528 37.0157 60.968C41.7257 58.408 36.8757 53.118 35.4457 48.268C34.0157 43.418 28.0257 33.428 29.7357 23.588C31.4457 13.748 33.1557 6.46799 32.7357 3.46799C32.3157 0.467989 31.3357 -1.00203 30.5957 0.757968Z" fill="#F0EFEB"/>
  <path d="M57.7859 49.278C58.0459 52.928 57.4059 59.198 61.5159 59.908C65.6259 60.618 65.9859 55.908 65.0559 50.638C64.1259 45.368 61.6359 25.238 60.1359 22.028C58.6359 18.818 51.7159 9.46795 50.0059 7.47795C48.2959 5.48795 45.5859 0.987954 44.2959 1.91795C43.0059 2.84795 44.6159 7.97795 45.9959 10.198C47.3759 12.418 53.4359 20.618 54.2859 26.248C55.1359 31.878 57.6459 47.408 57.7859 49.278Z" fill="#F0EFEB"/>
  <path d="M24.5957 70.1779C24.747 69.5015 24.6333 68.7928 24.2781 68.1975C23.9228 67.6023 23.3529 67.1659 22.6857 66.9779C20.2257 66.1779 17.1257 66.5479 16.4757 69.3879C15.8257 72.2279 16.2657 75.858 19.1557 76.128C22.0457 76.398 23.7857 74.7279 23.5957 73.8279C23.5289 73.5348 23.3889 73.2634 23.1888 73.0391C22.9887 72.8147 22.735 72.6446 22.4515 72.5448C22.1679 72.445 21.8637 72.4186 21.5671 72.4681C21.2706 72.5176 20.9915 72.6414 20.7557 72.8279C19.5257 73.8979 17.9557 71.5879 18.6157 70.2579C18.7676 70.0072 18.9763 69.7957 19.2251 69.6405C19.4738 69.4853 19.7555 69.3908 20.0474 69.3645C20.3394 69.3382 20.6335 69.3809 20.9059 69.4892C21.1783 69.5975 21.4215 69.7684 21.6157 69.9879C22.2757 70.9779 24.5957 71.2979 24.5957 70.1779Z" fill="#F0EFEB"/>
  <path d="M76.3456 68.698C76.1057 68.4619 75.9267 68.1711 75.8239 67.8507C75.7212 67.5302 75.6977 67.1895 75.7556 66.858C75.8619 66.3097 76.1304 65.806 76.5261 65.412C76.9219 65.018 77.4269 64.7519 77.9756 64.648C80.0756 64.108 83.1856 64.758 84.1856 66.998C85.1856 69.238 85.2956 72.068 82.9056 73.598C80.5156 75.128 77.5956 74.878 77.2356 73.598C76.8756 72.318 78.6656 72.918 79.5156 72.418C80.3656 71.918 81.7656 71.698 81.8356 69.558C81.9056 67.418 80.6556 66.638 78.9456 67.028C77.2356 67.418 77.9456 68.628 77.2156 68.948C77.0627 69.0035 76.8962 69.0092 76.74 68.9643C76.5837 68.9194 76.4456 68.8262 76.3456 68.698V68.698Z" fill="#F0EFEB"/>
  <path d="M27.1958 83.0179C27.1958 83.0179 27.8358 87.938 31.1958 87.938C34.5558 87.938 35.6158 83.0179 35.6158 83.0179" stroke="#F0EFEB" stroke-width="1.28" stroke-miterlimit="10" stroke-linecap="round"/>
  <path d="M59.0256 84.828C59.0256 84.828 59.8456 91.058 64.1556 91.058C68.4656 91.058 69.8356 84.828 69.8356 84.828" stroke="#F0EFEB" stroke-width="1.28" stroke-miterlimit="10" stroke-linecap="round"/>
  <path d="M29.2756 73.4179C36.4556 71.9079 39.4656 77.4179 39.8756 85.4879C40.2856 93.5579 33.4256 94.0079 30.1256 94.0079C26.8256 94.0079 22.7556 88.3579 23.1256 83.0079C23.4956 77.6579 25.4056 74.2279 29.2756 73.4179Z" stroke="white" stroke-width="1.22" stroke-miterlimit="10"/>
  <path d="M61.4958 73.6679C68.6758 72.1579 71.6858 77.6679 72.0958 85.7379C72.5058 93.8079 65.6458 94.2579 62.3458 94.2579C59.0458 94.2579 54.9758 88.6079 55.3458 83.2579C55.7158 77.9079 57.5958 74.4779 61.4958 73.6679Z" stroke="white" stroke-width="1.22" stroke-miterlimit="10"/>
  <path d="M39.8857 86.0479C39.8857 86.0479 49.2457 81.0479 55.3557 86.0479" stroke="white" stroke-width="1.22" stroke-miterlimit="10"/>
  <path d="M62.1857 119.178C61.1857 119.868 58.5257 116.038 59.0257 118.818C59.3457 120.608 58.5757 120.978 58.0257 120.978C57.4757 120.978 55.5757 124.688 57.7057 124.118C59.4757 123.638 61.7057 128.398 62.0857 126.308C62.4657 124.218 61.3057 123.608 63.1457 123.308C64.9857 123.008 66.8357 123.398 66.3257 121.778C65.8157 120.158 64.6457 120.598 64.1357 120.328C63.6257 120.058 64.8557 117.428 62.1857 119.178Z" fill="#637454"/>
  <path d="M54.8057 124.648C53.9957 124.908 53.2357 125.298 53.5457 125.828C53.8557 126.358 53.8557 127.428 54.8057 127.358C55.7557 127.288 56.3757 126.978 56.2557 126.358C56.1357 125.738 55.4857 124.438 54.8057 124.648Z" fill="#637454"/>
  <path d="M2.36588 84.1779C2.20588 84.1779 1.24588 85.3879 1.62588 88.9679C2.00588 92.5479 3.37588 110.968 3.37588 110.968C3.37588 110.968 4.06588 119.588 4.37588 114.968C4.68588 110.348 5.85588 86.6079 4.37588 84.4379C3.59588 83.3479 2.36588 84.1779 2.36588 84.1779Z" fill="#F0E8CE"/>
  <path d="M0.285685 76.1779C0.383977 75.1671 0.554406 74.1645 0.79568 73.1779C1.09743 72.2875 1.18312 71.338 1.04568 70.4079C0.84568 69.9179 1.40568 69.2679 2.11568 70.4079C2.82568 71.5479 4.35568 75.0079 5.04568 75.7279C6.01037 76.8018 6.56002 78.1848 6.59568 79.6279C6.72568 81.6279 6.06569 81.0079 5.07569 79.8779C4.08569 78.7479 4.18568 78.3979 3.31568 78.6079C2.44568 78.8179 0.185685 76.9679 0.285685 76.1779Z" fill="#637454"/>
</svg>
