<svg width="120" height="155" viewBox="0 0 120 155" fill="none" xmlns="http://www.w3.org/2000/svg">
  <path d="M9.41075 101.4C5.78075 104.91 6.29076 113.08 6.32076 115.73C6.35076 118.38 6.21075 121.89 3.38075 121.96C0.550753 122.03 -1.30925 118.74 1.13075 109.39C3.57075 100.04 8.78075 96.5699 14.6908 94.0099C17.1114 93.2239 19.5982 92.6583 22.1207 92.3199L21.9707 94.89C21.9707 94.89 17.6808 93.4099 9.41075 101.4Z" fill="#E2B90F"/>
  <path d="M40.8007 117.7C40.8007 117.7 37.8007 133.84 34.4207 140.47C31.0407 147.1 35.6208 149.02 33.3408 151.19C31.0608 153.36 26.4708 147.7 26.2308 144.93C25.9908 142.16 29.7208 139.51 31.6508 134.69C33.5808 129.87 37.4308 117.69 37.4308 117.69L40.8007 117.7Z" fill="#E2B90F"/>
  <path d="M24.4608 113.34L25.4608 114.34C25.4608 114.34 24.2608 128.19 22.2108 134.82C20.1608 141.45 19.9209 142.41 21.0109 145.54C22.1009 148.67 19.2008 150.84 17.6408 149.27C16.0808 147.7 12.4608 143.97 13.4208 140.72C14.3808 137.47 18.2408 134.22 20.0508 126.87C21.8608 119.52 22.9408 111.81 22.9408 111.81" fill="#E2B90F"/>
  <path d="M56.1307 113.23C59.1307 117.6 67.6907 117.98 70.4407 118.23C73.1907 118.48 76.8007 119.06 76.3807 122.16C75.9607 125.26 72.2307 126.91 62.9707 123.16C53.7107 119.41 51.0207 113.32 49.4107 106.58C48.8107 104.09 48.9507 98.27 48.9507 98.27L51.5807 98.73C51.5807 98.73 49.2807 103.27 56.1307 113.23Z" fill="#E2B90F"/>
  <path d="M55.5009 105.79C55.5009 105.79 54.9609 106.69 54.1109 108.07C51.5609 112.21 46.1809 120.67 44.0409 122.07C41.1809 123.94 39.0409 122.48 30.8609 117.69C22.6809 112.9 12.7509 109.17 14.3709 104.86C15.9909 100.55 22.6909 87.95 22.6909 87.95L55.5009 105.79Z" fill="#A2D6DA"/>
  <path d="M76.3408 64.4599C73.9408 57.0499 67.5508 46.29 51.1508 43.03C34.7508 39.77 24.3008 52.6 21.8608 57.94C16.3108 70.08 16.7108 78.94 20.5408 88.02C23.9108 96.02 32.8708 106.68 37.6208 109.02C42.3708 111.36 47.2508 112.32 58.2608 104.02C69.2708 95.72 81.3408 80.1399 76.3408 64.4599Z" fill="#E2B90F"/>
  <path d="M57.4909 55.07C53.9809 53.47 49.7209 54.57 47.1409 61.75C44.5609 68.93 38.1409 81.75 36.6209 82.75C35.1009 83.75 31.751 83.11 29.411 87.45C27.071 91.79 29.611 93.19 31.411 93.45C33.211 93.71 34.6509 95.88 33.1709 98.61C31.6909 101.34 30.8409 106.02 34.8409 108.08C38.8409 110.14 42.401 108.01 44.381 105.5C46.361 102.99 47.8309 101.5 48.8709 103.91C49.9109 106.32 55.1409 105.13 55.8709 102.42C56.6009 99.71 53.651 96.42 53.541 93.35C53.431 90.28 57.281 83.88 59.541 76.91C61.801 69.94 65.3409 58.68 57.4909 55.07Z" fill="#F0E8CE"/>
  <path d="M100.651 5.88995C100.651 6.88995 98.8209 11.96 97.8709 19.52C96.9209 27.08 95.2609 36.2199 86.1409 47.5999C77.0209 58.9799 72.9909 62.2999 69.7709 57.9999C66.5509 53.6999 73.1609 50.9199 76.4809 47.0999C79.8009 43.2799 89.4009 36.69 91.9409 27.02C94.4809 17.35 95.9409 10.02 97.5809 7.47995C99.2209 4.93995 100.711 3.98995 100.651 5.88995Z" fill="#F0EFEB"/>
  <path d="M55.7608 38.71C54.0008 41.92 51.9808 47.89 47.9408 46.82C43.9008 45.75 45.5408 41.33 48.5808 36.91C51.6208 32.49 62.2608 15.24 64.9508 12.91C67.6408 10.58 77.8308 4.99002 80.2108 3.91002C82.5908 2.83002 86.9308 -0.149983 87.7108 1.22002C88.4908 2.59002 84.8908 6.60002 82.7108 8.04002C80.5308 9.48002 71.6208 14.42 68.4908 19.19C65.3608 23.96 56.6508 37.07 55.7608 38.71Z" fill="#F0EFEB"/>
  <path d="M77.2409 71.5C77.3859 70.8226 77.7849 70.2264 78.3559 69.8339C78.9268 69.4415 79.6264 69.2827 80.3109 69.3901C82.8809 69.6801 85.5509 71.31 84.9509 74.16C84.3509 77.01 82.4509 80.16 79.7109 79.16C76.9709 78.16 76.0809 75.96 76.6309 75.22C76.8119 74.9801 77.0506 74.7899 77.325 74.6671C77.5993 74.5444 77.9003 74.4931 78.1998 74.518C78.4993 74.543 78.7876 74.6434 79.0379 74.8099C79.2881 74.9764 79.4921 75.2035 79.6309 75.47C80.3009 76.95 82.7009 75.4701 82.6309 74.0201C82.5993 73.7251 82.4979 73.4419 82.3353 73.1938C82.1726 72.9458 81.9532 72.74 81.6953 72.5934C81.4374 72.4469 81.1483 72.3638 80.852 72.3511C80.5556 72.3383 80.2604 72.3962 79.9909 72.5201C79.0309 73.2201 76.7709 72.53 77.2409 71.5Z" fill="#F0EFEB"/>
  <path d="M30.8008 48.65C31.1158 48.5356 31.3986 48.3467 31.625 48.0995C31.8513 47.8522 32.0146 47.5539 32.1008 47.23C32.2314 46.6876 32.1964 46.1186 32.0003 45.5963C31.8042 45.074 31.4561 44.6225 31.0008 44.3C29.3108 42.94 26.2208 42.23 24.3808 43.86C22.5408 45.49 21.2708 48.01 22.8008 50.4C24.3308 52.79 27.1008 53.78 27.9608 52.76C28.8208 51.74 26.9608 51.55 26.3708 50.76C25.7808 49.97 24.6308 49.17 25.4508 47.2C26.2708 45.23 27.7308 45.03 29.1308 46.1C30.5308 47.17 29.4108 47.99 29.9108 48.57C30.0324 48.6743 30.1834 48.738 30.343 48.7523C30.5025 48.7667 30.6625 48.7309 30.8008 48.65V48.65Z" fill="#F0EFEB"/>
  <path d="M69.5409 82.12C69.5409 82.12 66.9109 86.33 63.8709 84.94C60.8309 83.55 61.8709 78.63 61.8709 78.63" stroke="#F0EFEB" stroke-width="1.28" stroke-miterlimit="10" stroke-linecap="round"/>
  <path d="M39.841 70.5199C39.841 70.5199 36.511 75.8499 32.591 74.0499C28.671 72.2499 30.011 66.0499 30.011 66.0499" stroke="#F0EFEB" stroke-width="1.28" stroke-miterlimit="10" stroke-linecap="round"/>
  <path d="M96.751 148.73C96.821 146.8 93.311 142.43 91.211 142.2C89.111 141.97 90.211 146 90.211 146C88.1928 147.227 85.9002 147.932 83.541 148.05C80.071 148.05 77.391 142.85 77.391 142.85C77.391 142.85 81.391 140.28 81.121 138.75C80.808 137.61 80.1971 136.575 79.351 135.75C79.351 135.75 84.851 132.57 80.741 127.31C77.741 123.48 71.301 117.11 64.221 122.16C57.141 127.21 61.931 133.45 61.931 133.45C61.931 133.45 60.351 134.45 59.491 134.99C58.631 135.53 58.191 136.19 58.791 137.82C60.171 141.58 66.131 148.82 68.451 150.47C70.771 152.12 74.451 146.35 74.451 146.35C80.581 154.53 92.691 149.43 92.691 149.43C92.691 149.43 96.681 150.66 96.751 148.73ZM77.281 133.73C77.281 133.73 71.871 127.42 70.441 127.54C69.011 127.66 65.001 131.48 65.001 131.48C65.001 131.48 62.891 128.58 64.561 125.81C65.1885 124.574 66.2473 123.61 67.5372 123.101C68.827 122.593 70.2585 122.575 71.561 123.05C76.391 124.75 79.241 129.38 79.281 131.27C79.2471 131.833 79.0366 132.371 78.6793 132.807C78.322 133.243 77.8362 133.556 77.291 133.7L77.281 133.73Z" fill="#F0E8CE"/>
  <path d="M96.0608 144.51C96.0608 144.51 100.421 141.51 101.681 143.13C102.941 144.75 100.461 144.47 98.8708 144.28C97.9283 144.163 96.9718 144.242 96.0608 144.51V144.51Z" fill="#A2D6DA"/>
  <path d="M98.8909 146.34C99.9839 146.27 101.08 146.424 102.111 146.792C103.143 147.16 104.089 147.734 104.891 148.48C107.891 151.08 108.671 148.14 107.181 147.14C105.691 146.14 101.181 144.89 98.8909 146.34Z" fill="#A2D6DA"/>
  <path d="M103.931 144.51C103.931 144.51 109.931 141.95 111.611 144.09C113.291 146.23 112.111 147.76 110.311 146.34C108.511 144.92 103.931 144.51 103.931 144.51Z" fill="#A2D6DA"/>
  <path d="M114.571 154.82C114.571 154.82 111.501 147.66 114.571 144.04C117.641 140.42 117.401 137.3 116.461 134.84C116.461 134.84 113.231 134.43 113.631 131.99C114.115 129.975 114.883 128.039 115.911 126.24C115.911 126.24 120.551 131.59 119.851 132.93C119.274 133.819 118.414 134.488 117.411 134.83C117.411 134.83 119.001 138.97 118.671 140.52C118.031 143.52 114.731 145.96 114.961 148.33C115.171 150.521 115.665 152.676 116.431 154.74L114.571 154.82Z" fill="#93A583"/>
</svg>
