<svg width="60" height="58" viewBox="0 0 60 58" fill="none" xmlns="http://www.w3.org/2000/svg">
  <path d="M37.6646 12.9762C37.6646 12.9762 36.5147 10.0812 42.3406 6.84534C44.236 5.79282 45.712 5.15962 46.9297 4.68313C49.4519 3.69415 50.8539 3.37437 52.5417 1.34981C55.0428 -1.65102 55.8793 1.2884 55.8793 1.2884C55.8793 1.2884 51.6269 20.4285 43.5435 18.855L37.6646 12.9762Z" fill="#F0C820"/>
  <path d="M48.1961 11.7309C48.1961 11.7309 45.712 5.1617 46.9297 4.6852C49.4519 3.69622 50.8539 3.37644 52.5417 1.35189C55.0428 -1.64894 55.8793 1.29047 55.8793 1.29047C55.8793 1.29047 53.1792 13.4442 47.9907 17.5864C47.9907 17.5843 49.9856 13.8846 48.1961 11.7309Z" fill="#93A583"/>
  <path d="M41.7688 14.537C41.7688 14.537 39.272 10.8839 37.6646 12.9762C36.0572 15.0685 1.47886 52.8828 2.4509 53.8548C3.42082 54.8248 41.7688 14.537 41.7688 14.537Z" fill="#EFE7CE"/>
  <path d="M40.5617 13.3298C40.5617 13.3298 45.6379 17.2476 43.5434 18.8571C41.4511 20.4645 3.63682 55.0429 2.66478 54.0708C1.69274 53.0988 40.5617 13.3298 40.5617 13.3298Z" fill="#EFE7CE"/>
  <path d="M49.5027 35.0006C49.6192 33.3699 49.2846 31.3009 47.7132 30.8604C46.4892 30.5173 45.2122 31.5042 44.7738 32.6965C44.3354 33.8888 44.5112 35.2081 44.6933 36.4639C44.8903 37.8235 45.0872 39.1831 45.2842 40.5427C45.3562 41.0446 45.4155 41.6079 45.1126 42.0145C44.8246 42.4042 44.291 42.5228 43.806 42.5079C42.1944 42.4592 40.8221 41.2902 39.238 41.0001C37.4973 40.6803 35.5341 41.6418 34.9306 43.3063C34.327 44.9709 35.3965 47.1034 37.1394 47.4147C37.997 47.5693 38.8717 47.3131 39.7442 47.3152C40.6167 47.3173 41.6205 47.7176 41.809 48.5689C41.8725 48.8506 41.8323 49.147 41.7603 49.4266C41.4341 50.6782 40.3753 51.7116 39.1131 52.0039C38.698 52.1013 38.266 52.1225 37.8573 52.2495C36.2626 52.7493 35.6231 55.0725 36.7391 56.3177C37.6476 57.3321 39.2253 57.4401 40.5426 57.097C41.8598 56.7539 43.0584 56.0466 44.3672 55.6654C46.3748 55.0809 48.609 55.3181 50.4493 56.3092C51.703 56.9848 53.0033 58.0309 54.3756 57.6519C55.7013 57.2855 56.3303 55.6887 56.1863 54.3228C56.0423 52.9547 55.3477 51.718 54.8754 50.4283C54.4031 49.1386 54.1744 47.6117 54.9072 46.449C55.3964 45.6761 56.2307 45.1953 56.8407 44.5113C57.6645 43.588 58.0287 42.3533 58.3697 41.1632C58.7127 39.9624 58.9859 38.48 58.0753 37.6266C57.063 36.6799 55.4175 37.2644 54.2274 37.976C53.3739 38.4864 51.2816 39.8015 50.2545 39.2191C49.0961 38.5647 49.4286 36.0488 49.5027 35.0006Z" fill="#F0C820"/>
  <path d="M54.3038 23.0544C54.5664 22.2942 54.9073 21.5339 55.4918 20.9812C56.0763 20.4285 56.9552 20.1277 57.7091 20.4094C58.8399 20.8351 59.1745 22.2899 59.0432 23.4907C58.8103 25.6 57.3787 28.1836 55.3436 29.0752C52.0886 30.5046 53.6833 24.8524 54.3038 23.0544Z" fill="#F0C820"/>
  <path d="M23.0205 49.5896C22.5441 49.7993 22.0739 50.0661 21.7626 50.4812C20.9727 51.5337 21.6059 53.2152 22.7982 53.77C24.6978 54.6531 28.3318 52.7641 28.5372 50.5553C28.7871 47.8679 24.5114 48.9331 23.0205 49.5896Z" fill="#F0C820"/>
  <path d="M5.63382 7.86811C6.02348 9.2044 6.79222 10.5936 6.31573 11.9003C5.62111 13.8062 2.97394 13.9502 1.39835 15.2272C0.0429969 16.3242 -0.39961 18.4038 0.392423 19.9583C0.585137 20.3352 0.858325 20.6952 1.24587 20.8625C2.53557 21.4174 3.66644 19.6088 5.06415 19.4606C6.40044 19.3166 7.37883 20.7228 7.73461 22.0188C8.07769 23.2662 8.15181 24.5834 8.569 25.8096C8.98619 27.0357 9.86717 28.2238 11.1357 28.4864C12.6351 28.7956 14.1196 27.671 14.7951 26.2988C15.4707 24.9265 15.5512 23.3488 15.7375 21.8303C15.9239 20.3119 16.2712 18.7151 17.3322 17.6118C18.4419 16.4598 20.0958 16.0722 21.6143 15.5682C23.1327 15.0642 24.7421 14.234 25.2568 12.7198C25.8963 10.8393 24.0793 8.60084 22.1077 8.83803C20.7735 8.99898 19.433 10.0494 18.2195 9.47335C17.2538 9.01592 16.9828 7.7474 17.1077 6.68641C17.2327 5.62331 17.6287 4.57926 17.5143 3.51616C17.4 2.45306 16.4703 1.34972 15.4283 1.59749C13.5647 2.0401 14.0793 5.69107 12.184 5.95367C10.4538 6.19298 9.76976 3.66652 7.88074 3.82958C5.9176 3.999 5.13615 6.15698 5.63382 7.86811Z" fill="#F0C820"/>
</svg>
