<svg width="57" height="71" viewBox="0 0 57 71" fill="none" xmlns="http://www.w3.org/2000/svg">
  <path d="M45.5256 62.3817C45.5256 62.3386 45.5236 62.2975 45.5236 62.2544H45.5215C45.4291 53.8596 38.5987 47.0804 30.1813 47.0804C21.7638 47.0804 14.9334 53.8575 14.841 62.2544H14.839C14.8369 62.2975 14.8369 62.3386 14.8369 62.3817C14.8369 62.3878 14.8369 62.3919 14.8369 62.3981C14.8369 62.4084 14.8369 62.4166 14.8369 62.4268C14.8369 62.5028 14.839 62.5767 14.839 62.6527H14.8492C15.1038 67.274 21.8685 70.9757 30.1813 70.9757C38.494 70.9757 45.2587 67.274 45.5133 62.6527H45.5236C45.5256 62.5767 45.5256 62.5028 45.5256 62.4268C45.5256 62.4166 45.5256 62.4084 45.5256 62.3981C45.5236 62.3919 45.5256 62.3858 45.5256 62.3817Z" fill="#F0C820"/>
  <path d="M3.66834 30.1512C7.93454 29.2541 9.72273 32.5286 9.96704 37.3225C10.2114 42.1163 6.13403 42.3852 4.17339 42.3852C2.21275 42.3852 -0.205723 39.0285 0.013951 35.8505C0.235678 32.6703 1.371 30.6563 3.66834 30.1512Z" fill="#A2D6DA"/>
  <path d="M7.6451 10.8876C10.7513 10.204 12.053 12.6697 12.2254 16.3241C12.3979 19.9784 9.43328 20.1612 8.01259 20.1612C6.59189 20.1612 4.82218 17.6134 5.00079 15.2113C5.17941 12.8113 5.97598 11.249 7.6451 10.8876Z" fill="#E2B90F"/>
  <path d="M28.8632 0.148189C33.1294 -0.748985 34.9176 2.5256 35.1619 7.31942C35.4062 12.1132 31.3289 12.3822 29.3682 12.3822C27.4076 12.3822 24.9891 9.02549 25.2088 5.8474C25.4284 2.66726 26.5576 0.63681 28.8632 0.148189Z" fill="#A2D6DA"/>
  <path d="M46.4144 10.9203C50.6806 10.0231 52.4688 13.2977 52.7131 18.0915C52.9574 22.8853 48.8801 23.1543 46.9195 23.1543C44.9588 23.1543 42.5404 19.7976 42.76 16.6195C42.9797 13.4394 44.1089 11.4027 46.4144 10.9203Z" fill="#E2B90F"/>
  <path d="M52.8262 35.9326C55.6306 35.3393 56.807 37.4765 56.9856 40.6443C57.1643 43.8101 54.4666 43.9723 53.1773 43.9723C51.888 43.9723 50.2948 41.7612 50.457 39.6835C50.6151 37.6017 51.3234 36.2652 52.8262 35.9326Z" fill="#A2D6DA"/>
  <path d="M23.7141 20.929C23.4821 21.3745 23.0263 24.0065 21.5954 27.5151C20.1623 31.0237 18.6554 35.3885 19.838 42.5351C21.0205 49.6817 21.9546 52.1104 24.3957 51.0367C26.8367 49.963 24.6523 47.14 24.1452 44.6764C23.6381 42.2128 21.0842 37.0124 22.3406 32.2063C23.5971 27.4001 24.7468 23.8628 24.6626 22.36C24.5784 20.8571 24.1534 20.0873 23.7141 20.929Z" fill="#F0EFEB"/>
  <path d="M35.1701 46.0992C35.1475 47.9182 34.5706 50.9998 36.5764 51.5233C38.5843 52.0468 38.9579 49.7269 38.7157 47.0764C38.4734 44.426 38.0751 34.3456 37.4654 32.6929C36.8556 31.0402 33.813 26.1191 33.0493 25.0618C32.2835 24.0045 31.1277 21.662 30.4502 22.0685C29.7727 22.475 30.3578 25.0844 30.9491 26.2423C31.5403 27.4002 34.2031 31.7157 34.392 34.5406C34.5809 37.3656 35.1927 45.1733 35.1701 46.0992Z" fill="#F0EFEB"/>
  <path d="M22.3426 59.3268C21.585 59.3268 20.5442 58.8607 19.8892 56.6434C19.5443 55.4753 19.4499 54.3256 19.4458 54.2763C19.4191 53.9376 19.6716 53.6399 20.0104 53.6132C20.3471 53.5844 20.6468 53.839 20.6735 54.1778C20.8028 55.7586 21.4229 58.0949 22.3426 58.0949C23.2849 58.0949 24.0487 55.736 24.2684 54.1429C24.3156 53.8062 24.6235 53.5701 24.9623 53.6173C25.299 53.6645 25.5351 53.9745 25.4879 54.3112C25.418 54.8245 24.7323 59.3268 22.3426 59.3268Z" fill="#F0EFEB"/>
  <path d="M36.948 60.0453C36.1535 60.0453 35.0572 59.6244 34.3427 57.6207C33.9609 56.5531 33.8562 55.502 33.8521 55.4588C33.8192 55.1201 34.0656 54.8183 34.4043 54.7855C34.7431 54.7506 35.0449 54.999 35.0777 55.3377C35.1681 56.239 35.7039 58.8114 36.948 58.8114C38.223 58.8114 38.9436 56.2082 39.0955 55.2967C39.1509 54.962 39.4671 54.7341 39.8038 54.7896C40.1384 54.845 40.3663 55.1612 40.3109 55.4979C40.2329 55.9659 39.4876 60.0453 36.948 60.0453Z" fill="#F0EFEB"/>
</svg>
