<svg width="61" height="56" viewBox="0 0 61 56" fill="none" xmlns="http://www.w3.org/2000/svg">
  <path d="M40.2928 44.7576C40.2311 45.1855 40.4248 45.6112 40.7867 45.8454L41.8063 46.5073L43.4219 47.5546L44.4414 48.2166C44.8033 48.4529 45.2716 48.455 45.6356 48.2251L51.4509 45.2196C52.1363 44.7874 52.1427 43.7913 51.4636 43.3507L47.7216 40.9241L46.106 39.8768L42.364 37.4502C41.6849 37.0096 40.7782 37.4226 40.6632 38.2229L40.2928 44.7576Z" fill="#F0C820"/>
  <path d="M6.68669 23.0418C6.68669 23.0418 -2.99197 28.789 0.939519 34.8384C4.87101 40.8879 13.6429 50.8709 13.6429 50.8709C13.6429 50.8709 17.8766 55.1047 22.1125 50.8709C26.3484 46.6372 36.0271 35.4451 36.0271 35.4451C36.0271 35.4451 39.354 33.6294 36.0271 30.0002C32.7001 26.371 21.508 16.3879 21.508 16.3879C21.508 16.3879 20.299 13.9677 17.2743 16.3879C14.2474 18.8081 6.68669 23.0418 6.68669 23.0418Z" fill="#F0C820"/>
  <path d="M30.8268 55.4816C27.6851 55.4816 24.2368 54.1831 20.6841 51.6373C17.3572 49.2533 15.0391 46.582 14.9434 46.4691L18.9728 42.9932C18.9919 43.0166 21.0311 45.3559 23.8621 47.3674C26.1865 49.0192 29.5476 50.8051 32.3658 49.9387C36.3846 48.702 38.9687 46.9012 40.4289 45.6071C42.1317 44.0979 42.8406 42.825 42.9363 42.5674C42.7661 43.0208 42.7618 44.3022 43.8474 45.1515C44.7286 45.8412 45.9738 45.8923 46.8742 45.2771L43.8665 40.888C44.7882 40.2579 45.9376 40.2154 46.8678 40.7837C47.8002 41.352 48.294 42.4057 48.1514 43.5338C47.9704 44.9813 46.5315 47.1694 44.486 49.1107C42.583 50.9158 39.2092 53.4062 33.9303 55.0303C32.9363 55.3283 31.8996 55.4816 30.8268 55.4816Z" fill="#F0C820"/>
  <path d="M25.9631 30.5728L23.8899 25.6728C27.8192 24.0104 30.3586 20.179 30.3586 15.9133C30.3586 10.0725 25.6076 5.32146 19.7668 5.32146C13.9281 5.32146 9.17497 10.0725 9.17497 15.9133C9.17497 18.2249 9.9072 20.4216 11.2908 22.2628L7.03575 25.4578C4.95399 22.6886 3.85352 19.3871 3.85352 15.9133C3.85352 7.13926 10.9928 0 19.7668 0C28.5408 0 35.6801 7.13926 35.6801 15.9133C35.6801 22.3224 31.8678 28.076 25.9631 30.5728Z" fill="#F0C820"/>
  <path d="M57.2768 52.7525C57.2768 52.7525 62.328 48.0995 60.0674 39.0615C60.0674 39.0615 59.4033 36.0049 56.2125 34.1423C53.0218 32.282 50.4973 27.4969 53.2879 20.4513L50.3632 19.5211C50.3632 19.5211 48.3687 26.5667 48.6348 30.0214C48.9009 33.4782 53.952 37.4651 53.952 37.4651C53.952 37.4651 57.8069 42.9142 51.1614 51.4222L50.3632 52.7504L57.2768 52.7525Z" fill="#93A583"/>
  <path d="M46.6317 17.0947C47.0787 14.0593 49.1625 8.27168 52.2852 5.50665C53.5687 4.36999 54.4499 4.11243 55.0417 4.20183C55.693 4.0954 56.1613 4.44874 57.0617 6.62841C58.656 10.4833 58.4687 16.5987 57.5385 19.5212C56.6083 22.4459 52.0893 20.4514 52.0893 20.4514L51.7956 20.2939L51.1208 20.3216C51.1208 20.3216 46.1846 20.1321 46.6317 17.0947Z" fill="#93A583"/>
  <path d="M43.8093 36.1368C43.8093 36.1368 45.2184 30.2832 48.6348 30.0214C52.0512 29.7596 52.1363 31.8946 50.9465 33.0781C49.7587 34.2658 43.8093 36.1368 43.8093 36.1368Z" fill="#EEE7D0"/>
  <path d="M43.6624 36.2945L43.7071 36.1114C43.7113 36.0965 44.071 34.6172 44.848 33.1271C45.8846 31.1348 47.1915 30.0237 48.6283 29.9151C50.7378 29.7533 51.4061 30.5047 51.6169 30.9666C51.917 31.6222 51.6786 32.5013 51.023 33.1527C49.831 34.3447 44.0859 36.1604 43.8433 36.237L43.6624 36.2945ZM49.1839 30.1067C49.0115 30.1067 48.8306 30.1131 48.6432 30.128C45.6824 30.3557 44.2392 34.9833 43.9625 35.9773C44.9757 35.6495 49.8331 34.0424 50.8719 33.0037C51.4657 32.4141 51.6871 31.6308 51.4232 31.056C51.1401 30.4366 50.3525 30.1067 49.1839 30.1067Z" fill="#EFE7CE"/>
  <path d="M49.2371 38.7146C49.2371 38.7146 51.7871 32.1756 56.5807 32.2906C61.3721 32.4055 61.2785 34.8619 59.5011 36.0752C57.7216 37.2906 49.2371 38.7146 49.2371 38.7146Z" fill="#EEE7D0"/>
  <path d="M49.071 38.8508L49.1392 38.6763C49.1647 38.6103 51.7275 32.1841 56.4594 32.1841C56.5019 32.1841 56.5424 32.1841 56.5849 32.1862C59.7182 32.2607 60.4909 33.3016 60.6718 33.9146C60.8953 34.6681 60.459 35.5515 59.5628 36.1645C57.7833 37.38 49.6032 38.7635 49.2562 38.821L49.071 38.8508ZM56.4594 32.3948C52.3086 32.3948 49.8586 37.5481 49.4116 38.5762C50.6781 38.357 57.8493 37.0756 59.4415 35.9857C60.261 35.4259 60.6633 34.6362 60.4675 33.9721C60.1865 33.0227 58.7689 32.448 56.5786 32.3948C56.5381 32.3969 56.4977 32.3948 56.4594 32.3948Z" fill="#EFE7CE"/>
</svg>
