<?xml version="1.0" encoding="utf-8"?>
<!-- Generator: Adobe Illustrator 24.1.0, SVG Export Plug-In . SVG Version: 6.00 Build 0)  -->
<svg version="1.1" xmlns="http://www.w3.org/2000/svg" xmlns:xlink="http://www.w3.org/1999/xlink" x="0px" y="0px"
	 viewBox="0 0 566.93 566.93" style="enable-background:new 0 0 566.93 566.93;" xml:space="preserve">
<style type="text/css">
	.st0{fill:#637454;}
	.st1{fill:#EFE7CE;}
	.st2{fill:#F0C820;}
	.st3{fill:#93A583;}
	.st4{fill:none;stroke:#EFE7CE;stroke-width:14;stroke-linecap:round;stroke-linejoin:round;stroke-miterlimit:10;}
	.st5{fill:#F0C820;stroke:#EFE7CE;stroke-width:14;stroke-linecap:round;stroke-linejoin:round;stroke-miterlimit:10;}
	.st6{fill:none;stroke:#F0C820;stroke-width:14;stroke-linecap:round;stroke-linejoin:round;stroke-miterlimit:10;}
	.st7{fill:#EEE7D0;stroke:#EFE7CE;stroke-miterlimit:10;}
	.st8{fill:#F0C820;stroke:#EFE7CE;stroke-width:14;stroke-linejoin:round;stroke-miterlimit:10;}
	.st9{fill:none;stroke:#F0C820;stroke-width:25;stroke-miterlimit:10;}
	.st10{fill:none;stroke:#93A583;stroke-width:10;stroke-linecap:round;stroke-miterlimit:10;}
	.st11{fill:#E2B90F;}
	.st12{fill:#A2D6DA;}
	.st13{fill:#F0EFEB;}
	.st14{fill:none;stroke:#F0EFEB;stroke-width:6;stroke-linecap:round;stroke-miterlimit:10;}
	.st15{fill:#F0E8CE;}
	.st16{fill:none;stroke:#F0EFEB;stroke-width:1.28;stroke-linecap:round;stroke-miterlimit:10;}
	.st17{fill:none;stroke:#F0EFEB;stroke-width:1.43;stroke-linecap:round;stroke-miterlimit:10;}
	.st18{fill:none;stroke:#FFFFFF;stroke-width:1.22;stroke-miterlimit:10;}
	.st19{fill:none;stroke:#637454;stroke-width:0.31;stroke-linecap:round;stroke-miterlimit:10;}
	.st20{fill:none;stroke:#637454;stroke-width:0.36;stroke-linecap:round;stroke-miterlimit:10;}
	.st21{fill:none;stroke:#FFFFFF;stroke-width:6;stroke-linecap:round;stroke-linejoin:round;stroke-miterlimit:10;}
	.st22{fill:none;stroke:#FFFFFF;stroke-width:6;stroke-linejoin:round;stroke-miterlimit:10;}
</style>
<g id="Ebene_2">
</g>
<g id="Ebene_3">
</g>
<g id="Ebene_1">
	<path class="st0" d="M418.21,457.9H148.72c-20.84,0-37.9-17.05-37.9-37.9V150.52c0-20.84,17.05-37.9,37.9-37.9h269.48
		c20.84,0,37.9,17.05,37.9,37.9V420C456.1,440.85,439.05,457.9,418.21,457.9z"/>
	<line class="st21" x1="389.29" y1="330.63" x2="434.2" y2="304.43"/>
	<g>
		<path class="st22" d="M270.1,341.47c20.55-8.68,31.45,16.09,35.65,53.31s-15.8,40.92-25.5,41.7s-23.77-24.39-24.67-49.21
			C254.69,362.44,259.03,346.13,270.1,341.47z"/>
		<path class="st22" d="M365.25,331.74c19.16-10.69,32.3,13.49,40.19,50.93c7.89,37.44-11.24,43.02-20.63,44.7
			s-25.66-22.62-29.06-47.76S354.84,337.49,365.25,331.74z"/>
		<path class="st22" d="M302.67,384.64c0,0,29.69-12,50.74-13.58"/>
		<line class="st21" x1="297.2" y1="358.39" x2="361.53" y2="314.54"/>
	</g>
	<path class="st13" d="M125.94,183.6l55.5,145.17c0,0,22.81-92.18,118.87-66.2l-51.55-94.47
		C248.75,168.1,162.54,105.82,125.94,183.6z"/>
	<path class="st13" d="M261.74,165.74l53.35,96.83c0,0,76.71-75.58,125.63-40.15l-71.53-92.11
		C369.2,130.31,260.55,137.4,261.74,165.74z"/>
	<path class="st3" d="M304.74,275.13L191.8,328.77c0,0,4.44-41.07,56.47-53.64C300.3,262.57,304.74,275.13,304.74,275.13z"/>
	<path class="st3" d="M326.87,269.55l101.58-44.54c0,0-33.71-7.82-56.48,7.34C349.19,247.52,326.87,269.55,326.87,269.55z"/>
	<polygon class="st2" points="125.94,207.33 179.52,341.29 440.73,232.35 440.73,246.27 178.4,359.15 	"/>
</g>
</svg>
