<svg width="62" height="61" viewBox="0 0 62 61" fill="none" xmlns="http://www.w3.org/2000/svg">
<path d="M51.0943 39.7039C50.7606 39.7039 50.4366 39.5318 50.2561 39.2243C49.9865 38.7641 50.1417 38.1704 50.6054 37.9016L59.3187 32.8352C59.7804 32.5664 60.3761 32.7211 60.6457 33.1832C60.9154 33.6435 60.7602 34.2371 60.2965 34.5059L51.5832 39.5724C51.4299 39.6613 51.2612 39.7039 51.0943 39.7039Z" fill="#F0EFEB"/>
<path d="M29.8497 60.1765C29.2152 60.1765 28.5711 59.8903 27.9308 59.3218C25.9286 57.5466 24.3182 53.42 24.1844 49.7246C23.9845 44.1883 25.1001 40.9879 27.5952 39.9417C28.9843 39.3577 30.3211 39.4003 31.4639 40.0655C33.699 41.3688 35.1754 45.0584 35.8525 51.0318C36.2095 54.1819 35.74 56.5681 34.4556 58.1229C32.9598 59.9329 30.746 60.1108 30.0204 60.1688C29.9602 60.1746 29.904 60.1765 29.8497 60.1765ZM29.4849 41.4617C29.1357 41.4617 28.7612 41.5487 28.346 41.7227C28.346 41.7227 28.346 41.7227 28.3441 41.7227C26.726 42.4015 25.9577 45.1435 26.1207 49.653C26.2487 53.1473 27.828 56.6416 29.2172 57.8754C29.5567 58.177 29.7876 58.2524 29.8594 58.2389C30.8469 58.1596 32.0906 57.9353 32.9539 56.8911C33.891 55.7579 34.217 53.859 33.9201 51.2465C33.1285 44.2521 31.4251 42.2835 30.4802 41.7304C30.1698 41.5525 29.8419 41.4617 29.4849 41.4617Z" fill="#F0EFEB"/>
<path d="M50.0372 58.4284C49.4901 58.4284 48.9197 58.2137 48.3318 57.7864C46.2015 56.2394 44.1352 52.0896 43.6269 48.3381C42.8663 42.7379 43.6307 39.3906 45.9609 38.1066C47.5712 37.2113 48.8809 37.4646 49.6957 37.8339C52.0492 38.9014 53.8943 42.5233 55.1786 48.6011C55.8577 51.8169 55.6229 54.3056 54.4802 55.9957C53.1939 57.8966 51.0888 58.2718 50.3981 58.3955C50.2778 58.4168 50.1575 58.4284 50.0372 58.4284ZM48.1436 39.4254C47.8138 39.4254 47.4044 39.5182 46.9038 39.7967C46.9019 39.7967 46.9019 39.7986 46.8999 39.7986C45.3944 40.6282 44.9268 43.4921 45.5496 48.0789C46.0424 51.7067 47.9709 55.1313 49.4745 56.2239C49.8121 56.4695 50.0081 56.5024 50.0547 56.4927C50.9801 56.3283 52.1365 55.9996 52.8698 54.9167C53.708 53.6752 53.8457 51.6854 53.2792 49.0013C51.7698 41.8658 49.882 40.0461 48.8906 39.5956C48.7024 39.5086 48.4579 39.4254 48.1436 39.4254Z" fill="#F0EFEB"/>
<path d="M34.6514 50.0783L33.9238 48.2858C34.1644 48.1891 39.8724 45.9053 44.0593 45.592L44.2048 47.52C40.3225 47.8101 34.7077 50.0551 34.6514 50.0783Z" fill="#F0EFEB"/>
<path d="M33.2293 45.0719C32.9189 45.0719 32.6143 44.925 32.4261 44.6504C32.1254 44.2095 32.2379 43.6081 32.6822 43.3064L45.1633 34.8269C45.6057 34.5252 46.2091 34.6393 46.5117 35.0822C46.8125 35.523 46.6999 36.1244 46.2556 36.4261L33.7745 44.9056C33.6057 45.0178 33.4156 45.0719 33.2293 45.0719Z" fill="#F0EFEB"/>
<path d="M0 10.3051L10.7679 38.3774C10.7679 38.3774 15.1935 20.552 33.8307 25.5759L23.8292 7.30775C23.8272 7.30775 7.10102 -4.73566 0 10.3051Z" fill="#F0EFEB"/>
<path d="M26.3473 6.85129L36.6981 25.5758C36.6981 25.5758 51.5812 10.9605 61.0725 17.8118L47.1945 0C47.1964 0 26.1165 1.37103 26.3473 6.85129Z" fill="#F0EFEB"/>
<path d="M34.6901 28.0046L12.7778 38.3773C12.7778 38.3773 13.6393 30.4354 23.734 28.0046C33.8287 25.5758 34.6901 28.0046 34.6901 28.0046Z" fill="#93A583"/>
<path d="M38.9836 26.9256L58.6919 18.3127C58.6919 18.3127 52.1516 16.8005 47.7338 19.732C43.3141 22.6655 38.9836 26.9256 38.9836 26.9256Z" fill="#93A583"/>
<path d="M0 14.8937L10.3954 40.7982L61.0746 19.7319V22.4237L10.1781 44.2519L0 14.8937Z" fill="#F0C820"/>
</svg>
