<svg width="57" height="61" viewBox="0 0 57 61" fill="none" xmlns="http://www.w3.org/2000/svg">
  <path d="M50.8806 11.1319C51.1765 10.6239 51.2198 10.1522 50.9888 9.92724L50.3321 9.28864L49.2928 8.27996L48.6361 7.64137C48.4051 7.41641 47.936 7.47446 47.438 7.79376L39.9251 12.1188C39.0013 12.7211 38.4456 13.8821 38.8787 14.3103L41.2964 16.647L42.3356 17.6556L44.7533 19.9923C45.1935 20.4132 46.3266 19.8109 46.8896 18.853L50.8806 11.1319Z" fill="#EFE7CE"/>
  <path d="M53.2115 6.80685C53.3342 6.58915 53.3559 6.39321 53.2548 6.29888L52.9734 6.03038L52.5404 5.60223L52.2589 5.33373C52.1579 5.23939 51.963 5.26116 51.7537 5.39904L48.5927 7.22048C48.2029 7.47447 47.972 7.96792 48.1524 8.14208L49.17 9.129L49.6102 9.55715L50.6278 10.5441C50.8083 10.7255 51.2918 10.4642 51.53 10.0651L53.2115 6.80685Z" fill="#F0C820"/>
  <path d="M5.49994 56.5806L2.47601 53.5401C1.45119 52.5096 1.45119 50.8333 2.47601 49.8029L38.3446 13.737C39.3694 12.7065 41.0365 12.7065 42.0613 13.737L45.0853 16.7775C46.1101 17.808 46.1101 19.4843 45.0853 20.5147L9.2167 56.5806C8.19911 57.6038 6.52476 57.6038 5.49994 56.5806Z" fill="#F0C820"/>
  <path d="M0.368459 3.66464C0.368459 3.66464 -3.11014 27.0676 11.3095 36.6029L32.4048 16.2405C32.4048 16.2405 26.0394 8.13478 24.8197 0L0.368459 3.66464Z" fill="#EFE7CE"/>
  <path d="M56.6253 57.3354C56.6253 57.3354 60.1039 33.9324 45.6843 24.3971L24.5962 44.7522C24.5962 44.7522 30.9616 52.858 32.1813 60.9927L56.6253 57.3354Z" fill="#EFE7CE"/>
  <path d="M38.692 47.5063C40.575 47.2143 41.8744 45.4974 41.5943 43.6714C41.3143 41.8455 39.5609 40.6019 37.6779 40.8939C35.795 41.1858 34.4956 42.9027 34.7756 44.7287C35.0556 46.5547 36.8091 47.7982 38.692 47.5063Z" fill="#F0C820"/>
  <path d="M44.9424 46.5415C46.8253 46.2496 48.1247 44.5327 47.8447 42.7067C47.5647 40.8807 45.8112 39.6372 43.9283 39.9291C42.0453 40.2211 40.7459 41.938 41.026 43.764C41.306 45.5899 43.0594 46.8335 44.9424 46.5415Z" fill="#F0C820"/>
  <path d="M41.917 52.6476C42.148 52.9016 42.5594 53.0177 42.9852 52.9379L42.9419 52.9233L42.581 52.9451L43.7718 52.7347C44.1976 52.6621 44.5513 52.4081 44.6812 52.0961L47.8422 43.7146C48.0804 43.1268 47.4525 42.6043 46.6586 42.7422L42.2779 43.5114L40.387 43.8452L36.0063 44.6144C35.2124 44.7523 34.7939 45.4562 35.2197 45.9279L41.917 52.6476Z" fill="#F0C820"/>
  <path d="M9.53419 26.4942C9.18056 26.4942 8.83414 26.3201 8.62485 26.0008C8.28565 25.4928 8.42277 24.8107 8.92796 24.4769L24.4518 14.0635C24.957 13.7297 25.6354 13.8603 25.9673 14.3683C26.3065 14.8762 26.1694 15.5584 25.6642 15.8922L10.1404 26.3128C9.95278 26.4362 9.74349 26.4942 9.53419 26.4942Z" fill="#93A583"/>
  <path d="M6.20002 17.8806C5.73813 17.8806 5.31233 17.5903 5.16077 17.1259C4.97313 16.5526 5.27625 15.9285 5.85361 15.7326L23.5569 9.79656C24.1343 9.60063 24.7478 9.91267 24.9426 10.4932C25.1303 11.0665 24.8271 11.6906 24.2498 11.8865L6.54644 17.8225C6.43097 17.866 6.3155 17.8806 6.20002 17.8806Z" fill="#93A583"/>
  <path d="M3.22658 10.6891C2.71417 10.6891 2.25228 10.3191 2.15124 9.79657C2.03577 9.20152 2.42549 8.62098 3.0245 8.51213L21.3629 5.01439C21.9547 4.89828 22.5321 5.29015 22.6404 5.89245C22.7558 6.48751 22.3661 7.06804 21.7671 7.17689L3.42865 10.6674C3.3637 10.6819 3.29153 10.6891 3.22658 10.6891Z" fill="#93A583"/>
</svg>
