<svg width="48" height="58" viewBox="0 0 48 58" fill="none" xmlns="http://www.w3.org/2000/svg">
  <path d="M11.4641 38.6624C17.1936 38.6624 21.8383 34.0344 21.8383 28.3254C21.8383 22.6164 17.1936 17.9884 11.4641 17.9884C5.73454 17.9884 1.08984 22.6164 1.08984 28.3254C1.08984 34.0344 5.73454 38.6624 11.4641 38.6624Z" fill="#F0C820"/>
  <path d="M25.663 31.5103C31.3926 31.5103 36.0373 26.8823 36.0373 21.1733C36.0373 15.4643 31.3926 10.8363 25.663 10.8363C19.9335 10.8363 15.2888 15.4643 15.2888 21.1733C15.2888 26.8823 19.9335 31.5103 25.663 31.5103Z" fill="#F0C820"/>
  <path d="M15.289 26.1679C21.0186 26.1679 25.6633 21.5399 25.6633 15.8309C25.6633 10.1219 21.0186 5.4939 15.289 5.4939C9.55949 5.4939 4.91479 10.1219 4.91479 15.8309C4.91479 21.5399 9.55949 26.1679 15.289 26.1679Z" fill="#F0C820"/>
  <path d="M34.9257 37.2003C40.6553 37.2003 45.3 32.5722 45.3 26.8633C45.3 21.1543 40.6553 16.5262 34.9257 16.5262C29.1962 16.5262 24.5515 21.1543 24.5515 26.8633C24.5515 32.5722 29.1962 37.2003 34.9257 37.2003Z" fill="#F0C820"/>
  <path d="M36.0374 23.5848C40.3352 23.5848 43.8192 20.1132 43.8192 15.8309C43.8192 11.5486 40.3352 8.07703 36.0374 8.07703C31.7396 8.07703 28.2556 11.5486 28.2556 15.8309C28.2556 20.1132 31.7396 23.5848 36.0374 23.5848Z" fill="#F0C820"/>
  <path d="M27.1417 15.5077C31.4394 15.5077 34.9234 12.0362 34.9234 7.75387C34.9234 3.47153 31.4394 0 27.1417 0C22.8439 0 19.3599 3.47153 19.3599 7.75387C19.3599 12.0362 22.8439 15.5077 27.1417 15.5077Z" fill="#F0C820"/>
  <path d="M9.48669 55.1709C10.1801 56.5728 11.643 57.4509 13.2311 57.4197L17.6957 57.3306L32.1029 57.1144L36.5675 57.0252C38.1556 56.994 39.5804 56.0579 40.2179 54.6315L47.6508 33.9308C48.8452 31.2562 46.8142 28.2697 43.8393 28.3299L27.4548 28.6553L20.3843 28.7957L3.99984 29.1211C1.02715 29.179 -0.885305 32.2436 0.41427 34.8691L9.48669 55.1709Z" fill="#EFE7CE"/>
  <path d="M10.3433 28.8915L13.2846 57.3684L17.3869 57.4197L12.5129 28.8915H10.3433Z" fill="#93A583"/>
  <path d="M37.6635 28.526L34.7221 57.0029L30.6199 57.0542L35.4916 28.526H37.6635Z" fill="#93A583"/>
  <path d="M26.2626 57.2191L27.5398 28.6508L20.467 28.7912L24.0504 57.2681H24.1175L26.2626 57.2191Z" fill="#93A583"/>
</svg>
