<svg width="43" height="65" viewBox="0 0 43 65" fill="none" xmlns="http://www.w3.org/2000/svg">
  <path d="M30.2881 47.251L31.085 48.3998C31.085 48.3998 27.7407 57.3467 24.65 63.4078C21.5579 69.4674 3.90516 56.0516 4.40957 59.2631C4.91547 62.4745 1.84276 64.4286 0.617561 62.6419C-0.607642 60.8537 -0.0927882 54.8635 2.91127 53.4884C6.41079 51.8872 20.77 66.375 23.7546 59.5782C26.7393 52.7813 29.0912 45.514 29.0912 45.514" fill="#93A583"/>
  <path d="M6.32123 41.8563L5.42285 42.7639C5.42285 42.7639 7.048 51.4545 8.84476 57.4704C10.64 63.4847 28.8868 54.1775 27.9167 57.0165C26.9467 59.8556 29.4165 62.1338 30.8268 60.718C32.237 59.3023 32.722 53.7598 30.2075 52.0184C27.2795 49.9935 11.8981 60.8085 10.2714 54.1398C8.64479 47.4711 7.67627 40.4767 7.67627 40.4767" fill="#93A583"/>
  <path d="M37.5795 31.0609C37.5795 31.0609 37.481 31.9686 37.3004 33.4658C36.7617 37.8472 35.5051 46.856 34.3008 48.816C32.6846 51.4199 30.3954 51.0203 21.9175 50.1127C13.441 49.205 3.95876 49.9227 3.66179 45.7402C3.36482 41.5578 4.1468 28.6576 4.1468 28.6576L37.5795 31.0609Z" fill="#F0EFEB"/>
  <path d="M3.86024 34.1532C3.86024 34.1532 1.05914 36.8747 1.16659 39.7605C1.27404 42.6448 7.75821 46.7006 12.6963 47.0187C17.6344 47.3368 19.6282 45.4853 19.8804 43.3896C20.1311 41.2938 20.4191 37.1747 16.9883 38.5181C13.5574 39.8615 16.7913 43.961 14.5274 43.961C12.265 43.961 3.80652 41.1762 3.29465 39.7967C3.02902 38.895 3.19765 37.921 3.75279 37.1657L3.86024 34.1532Z" fill="#93A583"/>
  <path d="M37.0856 35.2599C38.1765 36.929 38.7988 38.8679 38.8809 40.8672C38.8093 43.7153 32.2893 47.8073 27.3512 48.1254C22.4131 48.4435 20.4193 46.592 20.1671 44.4963C19.9164 42.4005 19.6284 38.2814 23.0592 39.6248C26.4901 40.9682 23.2562 45.0677 25.5201 45.0677C27.7825 45.0677 36.2425 42.2829 36.7529 40.9033C37.0916 40.2309 37.0364 39.4258 36.6096 38.8076L37.0856 35.2599Z" fill="#93A583"/>
  <path d="M21.7802 37.0179C33.4994 37.0179 42.9997 28.7312 42.9997 18.509C42.9997 8.28675 33.4994 0 21.7802 0C10.0611 0 0.560791 8.28675 0.560791 18.509C0.560791 28.7312 10.0611 37.0179 21.7802 37.0179Z" fill="#F0C820"/>
</svg>
