<svg width="63" height="60" viewBox="0 0 63 60" fill="none" xmlns="http://www.w3.org/2000/svg">
  <path d="M53.0103 11.9032L19.2756 45.6378L24.8811 51.2433L58.6157 17.5087L53.0103 11.9032Z" fill="#93A583"/>
  <path d="M46.813 17.3948C46.6028 17.9634 46.7444 18.6028 47.1737 19.0298L48.3795 20.2357L50.2867 22.1428L51.4925 23.3487C51.9217 23.7779 52.5589 23.9173 53.1275 23.7093L61.982 21.2888C63.0462 20.8972 63.3471 19.5343 62.544 18.7311L58.1234 14.3105L56.2162 12.4034L51.7956 7.98275C50.9925 7.17961 49.6295 7.48051 49.2379 8.54473L46.813 17.3948Z" fill="#93A583"/>
  <path d="M27.2145 49.6178C27.4246 49.0491 27.283 48.4097 26.8538 47.9827L25.648 46.7769L23.7408 44.8697L22.535 43.6639C22.1058 43.2347 21.4686 43.0953 20.8999 43.3032L12.0455 45.7237C10.9812 46.1154 10.6803 47.4783 11.4835 48.2814L15.9041 52.702L17.8113 54.6092L22.2319 59.0298C23.035 59.8329 24.3979 59.532 24.7895 58.4678L27.2145 49.6178Z" fill="#93A583"/>
  <path d="M38.0957 23.2225L27.3119 34.1324C27.3119 34.1324 12.4372 32.9841 9.37282 25.3244C6.30849 17.6647 14.351 9.6731 14.351 9.6731C14.351 9.6731 15.4993 7.14198 22.201 10.7749C22.201 10.7749 23.159 6.52027 26.4136 8.81464C29.6704 11.1134 38.0957 23.2225 38.0957 23.2225Z" fill="#F0C820"/>
  <path d="M45.3725 34.1346L61.4929 55.0761H45.0296L36.2747 42.0355L45.3725 34.1346Z" fill="#F0C820"/>
  <path d="M14.3511 9.6753C14.3511 9.6753 15.6697 12.0383 20.2452 13.3193C24.8207 14.6026 24.8207 14.6026 24.8207 14.6026C24.8207 14.6026 22.0506 13.6401 22.2033 10.7771C22.2011 10.7771 16.099 6.95834 14.3511 9.6753Z" fill="#EEE7D0"/>
  <path d="M24.7896 14.7089L20.2142 13.4256C15.6475 12.1468 14.309 9.82805 14.2536 9.72849L14.2205 9.67096L14.2559 9.61565C15.9639 6.96063 21.5041 10.2219 22.232 10.6666H22.3183L22.3116 10.7839C22.1656 13.5274 24.7454 14.4611 24.856 14.4987L24.7896 14.7089ZM14.4837 9.6776C14.7205 10.0405 16.1962 12.0715 20.2761 13.2132L23.8759 14.2221C23.0683 13.6734 22.0218 12.6136 22.0904 10.837C21.4753 10.4675 16.1077 7.33233 14.4837 9.6776Z" fill="#EFE7CE"/>
  <path d="M21.1987 6.08446C21.1898 6.08446 21.181 6.08446 21.1699 6.08446C20.3137 6.06897 19.6344 5.36318 19.6499 4.50915L19.703 1.52226C19.7185 0.666015 20.4221 -0.00658884 21.2783 4.87044e-05C22.1346 0.0155363 22.8138 0.721328 22.7983 1.57536L22.7452 4.56225C22.7319 5.40964 22.0416 6.08446 21.1987 6.08446Z" fill="#F0C820"/>
  <path d="M4.53618 20.0433C4.52291 20.0433 4.50963 20.0433 4.49414 20.0433L1.50725 19.9658C0.65322 19.9437 -0.0215963 19.2313 0.000528878 18.3772C0.022654 17.5232 0.737296 16.8528 1.58911 16.8683L4.57601 16.9457C5.43004 16.9679 6.10707 17.6781 6.08494 18.5343C6.06282 19.3751 5.37472 20.0433 4.53618 20.0433Z" fill="#F0C820"/>
  <path d="M9.7443 11.1511C9.3903 11.1511 9.03408 11.0294 8.74203 10.7838L3.4674 6.30789C2.81471 5.75476 2.73506 4.77683 3.28819 4.12414C3.84131 3.47145 4.81925 3.3918 5.47194 3.94492L10.7466 8.42084C11.3993 8.97397 11.4789 9.9519 10.9258 10.6046C10.6182 10.9652 10.1824 11.1511 9.7443 11.1511Z" fill="#F0C820"/>
  <path d="M4.05829 30.7894C3.45206 30.7894 2.8768 30.431 2.629 29.8381C2.29934 29.0482 2.67104 28.1411 3.4587 27.8114L6.21549 26.6565C7.00535 26.3268 7.91248 26.6985 8.24215 27.4862C8.57181 28.276 8.20011 29.1832 7.41246 29.5128L4.65567 30.6678C4.46096 30.7518 4.25741 30.7894 4.05829 30.7894Z" fill="#F0C820"/>
</svg>
